<svg xmlns="http://www.w3.org/2000/svg" xmlns:xlink="http://www.w3.org/1999/xlink" width="500" zoomAndPan="magnify" viewBox="0 0 375 233.04" height="300" preserveAspectRatio="xMidYMid meet" version="1.0"><defs><g/><clipPath id="40ca5af0ab"><path d="M 1 17 L 374 17 L 374 224.078125 L 1 224.078125 Z M 1 17 " clip-rule="nonzero"/></clipPath><clipPath id="0e28500388"><rect x="0" width="373" y="0" height="208"/></clipPath><clipPath id="9834555237"><path d="M 111.1875 0 L 285.964844 0 L 285.964844 89.628906 L 111.1875 89.628906 Z M 111.1875 0 " clip-rule="nonzero"/></clipPath><clipPath id="6eedc16a3a"><path d="M 164 176 L 374.230469 176 L 374.230469 214 L 164 214 Z M 164 176 " clip-rule="nonzero"/></clipPath><clipPath id="d925490219"><rect x="0" width="211" y="0" height="38"/></clipPath></defs><g clip-path="url(#40ca5af0ab)"><g transform="matrix(1, 0, 0, 1, 1, 17)"><g clip-path="url(#0e28500388)"><g fill="#ffffff" fill-opacity="1"><g transform="translate(1.174775, 164.133737)"><g><path d="M 1.546875 23.78125 L 1.546875 -16.890625 L 17.921875 -16.890625 C 19.640625 -16.890625 20.5 -17.75 20.5 -19.46875 L 20.5 -96.65625 L 62.875 -96.65625 L 62.875 -21.015625 C 62.875 -12.054688 60.921875 -4.21875 57.015625 2.5 C 53.117188 9.21875 47.722656 14.441406 40.828125 18.171875 C 33.941406 21.910156 25.960938 23.78125 16.890625 23.78125 Z M 1.546875 23.78125 "/></g></g></g><g fill="#ffffff" fill-opacity="1"><g transform="translate(65.774734, 164.133737)"><g><path d="M 56.515625 -43.59375 C 59.035156 -44.96875 60.523438 -46.890625 60.984375 -49.359375 C 61.441406 -51.828125 60.894531 -54.066406 59.34375 -56.078125 C 57.800781 -58.085938 55.25 -59.09375 51.6875 -59.09375 C 48.695312 -59.207031 46.425781 -58.375 44.875 -56.59375 C 43.320312 -54.8125 42.515625 -52.742188 42.453125 -50.390625 C 42.398438 -48.035156 43.09375 -45.9375 44.53125 -44.09375 C 45.96875 -42.257812 48.238281 -41.34375 51.34375 -41.34375 L 100.09375 -41.34375 L 100.09375 0 L 51.34375 0 C 44.445312 0 38.007812 -1.289062 32.03125 -3.875 C 26.0625 -6.457031 20.78125 -10.046875 16.1875 -14.640625 C 11.59375 -19.234375 8.003906 -24.515625 5.421875 -30.484375 C 2.835938 -36.460938 1.546875 -42.898438 1.546875 -49.796875 C 1.546875 -58.867188 3.582031 -67.132812 7.65625 -74.59375 C 11.738281 -82.0625 17.539062 -88.0625 25.0625 -92.59375 C 32.582031 -97.132812 41.515625 -99.460938 51.859375 -99.578125 C 57.253906 -99.578125 62.679688 -99.0625 68.140625 -98.03125 C 73.597656 -97 78.738281 -95.046875 83.5625 -92.171875 C 88.382812 -89.296875 92.398438 -85.046875 95.609375 -79.421875 C 96.992188 -77.003906 98 -74.128906 98.625 -70.796875 C 99.257812 -67.472656 99.488281 -64.054688 99.3125 -60.546875 C 99.144531 -57.046875 98.425781 -53.773438 97.15625 -50.734375 C 95.894531 -47.691406 93.945312 -45.3125 91.3125 -43.59375 Z M 56.515625 -43.59375 "/></g></g></g><g fill="#ffffff" fill-opacity="1"><g transform="translate(167.411981, 164.133737)"><g><path d="M 1.546875 0 L 1.546875 -40.140625 L 22.21875 -40.140625 C 21.988281 -40.597656 21.726562 -41.023438 21.4375 -41.421875 C 21.15625 -41.828125 20.898438 -42.203125 20.671875 -42.546875 L 8.953125 -42.546875 C 4.929688 -48.296875 2.804688 -54.328125 2.578125 -60.640625 C 2.347656 -66.960938 3.5 -72.535156 6.03125 -77.359375 C 8.90625 -82.867188 12.550781 -87.03125 16.96875 -89.84375 C 21.394531 -92.65625 26.445312 -94.519531 32.125 -95.4375 C 37.8125 -96.363281 43.929688 -96.828125 50.484375 -96.828125 L 99.578125 -96.828125 L 99.578125 -57.890625 L 50.484375 -57.890625 C 47.148438 -57.890625 44.59375 -56.710938 42.8125 -54.359375 C 41.03125 -52.003906 40.367188 -49.503906 40.828125 -46.859375 C 41.285156 -44.796875 42.347656 -42.898438 44.015625 -41.171875 C 45.679688 -39.453125 47.953125 -38.59375 50.828125 -38.59375 C 54.265625 -38.59375 56.726562 -39.710938 58.21875 -41.953125 C 59.71875 -44.191406 60.238281 -46.6875 59.78125 -49.4375 C 59.320312 -52.195312 57.769531 -54.207031 55.125 -55.46875 L 89.59375 -55.46875 C 93.375 -51.445312 95.953125 -47.222656 97.328125 -42.796875 C 98.710938 -38.378906 99.203125 -34.101562 98.796875 -29.96875 C 98.398438 -25.84375 97.335938 -22.113281 95.609375 -18.78125 C 92.742188 -13.269531 89.070312 -9.191406 84.59375 -6.546875 C 80.113281 -3.898438 75 -2.144531 69.25 -1.28125 C 63.507812 -0.425781 57.367188 0 50.828125 0 Z M 1.546875 0 "/></g></g></g><g fill="#ffffff" fill-opacity="1"><g transform="translate(268.532446, 164.133737)"><g><path d="M 51.515625 -99.578125 C 58.398438 -99.578125 64.828125 -98.285156 70.796875 -95.703125 C 76.773438 -93.117188 82.0625 -89.554688 86.65625 -85.015625 C 91.25 -80.484375 94.835938 -75.203125 97.421875 -69.171875 C 100.003906 -63.140625 101.296875 -56.679688 101.296875 -49.796875 L 101.296875 0 L 59.953125 0 L 59.953125 -49.796875 C 59.953125 -52.085938 59.117188 -54.09375 57.453125 -55.8125 C 55.785156 -57.539062 53.804688 -58.40625 51.515625 -58.40625 C 49.097656 -58.40625 47.054688 -57.539062 45.390625 -55.8125 C 43.722656 -54.09375 42.890625 -52.085938 42.890625 -49.796875 C 42.890625 -47.492188 43.722656 -45.476562 45.390625 -43.75 C 47.054688 -42.03125 49.097656 -41.171875 51.515625 -41.171875 L 57.546875 -41.171875 L 57.546875 0 L 51.515625 0 C 44.617188 0 38.15625 -1.289062 32.125 -3.875 C 26.09375 -6.457031 20.804688 -10.046875 16.265625 -14.640625 C 11.734375 -19.234375 8.175781 -24.515625 5.59375 -30.484375 C 3.007812 -36.460938 1.71875 -42.898438 1.71875 -49.796875 C 1.71875 -56.679688 3.007812 -63.140625 5.59375 -69.171875 C 8.175781 -75.203125 11.734375 -80.484375 16.265625 -85.015625 C 20.804688 -89.554688 26.09375 -93.117188 32.125 -95.703125 C 38.15625 -98.285156 44.617188 -99.578125 51.515625 -99.578125 Z M 51.515625 -99.578125 "/></g></g></g></g></g></g><g clip-path="url(#9834555237)"><path fill="#ffffff" d="M 111.117188 45.210938 L 111.117188 44.515625 C 191.976562 44.515625 197.851562 37.800781 197.851562 0.0976562 L 199.195312 0.0976562 C 199.195312 37.800781 205.082031 44.515625 285.941406 44.515625 L 285.941406 45.210938 C 205.082031 45.210938 199.195312 51.917969 199.195312 89.617188 L 197.851562 89.617188 C 197.851562 51.917969 191.976562 45.210938 111.117188 45.210938 " fill-opacity="1" fill-rule="evenodd"/></g><g clip-path="url(#6eedc16a3a)"><g transform="matrix(1, 0, 0, 1, 164, 176)"><g clip-path="url(#d925490219)"><g fill="#ffffff" fill-opacity="1"><g transform="translate(1.185443, 28.671765)"><g><path d="M 2.125 -0.046875 C 2.101562 -0.148438 2.09375 -0.25 2.09375 -0.34375 C 2.09375 -0.445312 2.085938 -0.546875 2.078125 -0.640625 C 2.054688 -0.847656 2.046875 -1.046875 2.046875 -1.234375 C 2.046875 -1.421875 2.046875 -1.617188 2.046875 -1.828125 C 2.078125 -2.242188 2.085938 -2.65625 2.078125 -3.0625 C 2.078125 -3.46875 2.078125 -3.867188 2.078125 -4.265625 C 2.078125 -4.296875 2.078125 -4.316406 2.078125 -4.328125 C 2.078125 -4.347656 2.078125 -4.367188 2.078125 -4.390625 C 2.109375 -4.390625 2.128906 -4.390625 2.140625 -4.390625 C 2.160156 -4.390625 2.175781 -4.390625 2.1875 -4.390625 C 2.3125 -4.390625 2.4375 -4.390625 2.5625 -4.390625 C 2.6875 -4.390625 2.800781 -4.378906 2.90625 -4.359375 C 3.28125 -4.347656 3.65625 -4.34375 4.03125 -4.34375 C 4.40625 -4.351562 4.773438 -4.359375 5.140625 -4.359375 C 5.523438 -4.347656 5.898438 -4.34375 6.265625 -4.34375 C 6.640625 -4.351562 7.019531 -4.351562 7.40625 -4.34375 C 7.8125 -4.320312 8.21875 -4.316406 8.625 -4.328125 C 9.03125 -4.335938 9.429688 -4.332031 9.828125 -4.3125 C 9.953125 -4.3125 10.070312 -4.3125 10.1875 -4.3125 C 10.300781 -4.3125 10.414062 -4.304688 10.53125 -4.296875 C 10.644531 -4.273438 10.753906 -4.265625 10.859375 -4.265625 C 10.972656 -4.265625 11.082031 -4.265625 11.1875 -4.265625 C 11.40625 -4.265625 11.617188 -4.257812 11.828125 -4.25 C 12.046875 -4.25 12.265625 -4.25 12.484375 -4.25 C 12.648438 -4.25 12.816406 -4.25 12.984375 -4.25 C 13.160156 -4.25 13.332031 -4.25 13.5 -4.25 C 13.519531 -4.25 13.535156 -4.242188 13.546875 -4.234375 C 13.554688 -4.222656 13.570312 -4.21875 13.59375 -4.21875 C 13.695312 -4.207031 13.804688 -4.207031 13.921875 -4.21875 C 13.960938 -4.238281 14.007812 -4.25 14.0625 -4.25 C 14.113281 -4.25 14.164062 -4.25 14.21875 -4.25 C 14.382812 -4.226562 14.5625 -4.210938 14.75 -4.203125 C 14.9375 -4.203125 15.117188 -4.203125 15.296875 -4.203125 C 15.359375 -4.203125 15.421875 -4.195312 15.484375 -4.1875 C 15.546875 -4.175781 15.609375 -4.171875 15.671875 -4.171875 C 15.859375 -4.171875 16.039062 -4.195312 16.21875 -4.25 C 16.28125 -4.25 16.34375 -4.25 16.40625 -4.25 C 16.46875 -4.25 16.53125 -4.253906 16.59375 -4.265625 C 16.71875 -4.285156 16.847656 -4.300781 16.984375 -4.3125 C 17.117188 -4.332031 17.242188 -4.363281 17.359375 -4.40625 C 17.628906 -4.53125 17.796875 -4.71875 17.859375 -4.96875 C 17.878906 -5 17.890625 -5.023438 17.890625 -5.046875 C 17.898438 -5.078125 17.90625 -5.109375 17.90625 -5.140625 C 17.90625 -5.191406 17.90625 -5.238281 17.90625 -5.28125 C 17.90625 -5.332031 17.90625 -5.378906 17.90625 -5.421875 C 17.863281 -5.546875 17.796875 -5.628906 17.703125 -5.671875 C 17.609375 -5.722656 17.507812 -5.753906 17.40625 -5.765625 C 17.3125 -5.796875 17.21875 -5.816406 17.125 -5.828125 C 17.03125 -5.835938 16.929688 -5.847656 16.828125 -5.859375 C 16.671875 -5.878906 16.507812 -5.890625 16.34375 -5.890625 C 16.1875 -5.890625 16.023438 -5.894531 15.859375 -5.90625 C 15.734375 -5.925781 15.597656 -5.929688 15.453125 -5.921875 C 15.316406 -5.910156 15.1875 -5.914062 15.0625 -5.9375 C 14.789062 -5.96875 14.515625 -5.976562 14.234375 -5.96875 C 13.960938 -5.957031 13.6875 -5.953125 13.40625 -5.953125 C 12.882812 -5.953125 12.359375 -5.953125 11.828125 -5.953125 C 11.304688 -5.953125 10.785156 -5.953125 10.265625 -5.953125 C 10.066406 -5.953125 9.863281 -5.957031 9.65625 -5.96875 C 9.445312 -5.976562 9.238281 -5.988281 9.03125 -6 C 8.78125 -6.007812 8.523438 -6.007812 8.265625 -6 C 8.003906 -6 7.742188 -6.003906 7.484375 -6.015625 C 7.367188 -6.015625 7.257812 -6.015625 7.15625 -6.015625 C 7.050781 -6.015625 6.941406 -6.023438 6.828125 -6.046875 C 6.816406 -6.046875 6.796875 -6.046875 6.765625 -6.046875 C 6.742188 -6.054688 6.71875 -6.0625 6.6875 -6.0625 C 6.625 -6.082031 6.5625 -6.09375 6.5 -6.09375 C 6.445312 -6.09375 6.378906 -6.09375 6.296875 -6.09375 C 6.222656 -6.101562 6.144531 -6.113281 6.0625 -6.125 C 5.976562 -6.132812 5.894531 -6.144531 5.8125 -6.15625 C 5.75 -6.175781 5.6875 -6.1875 5.625 -6.1875 C 5.5625 -6.195312 5.503906 -6.210938 5.453125 -6.234375 C 5.304688 -6.242188 5.164062 -6.269531 5.03125 -6.3125 C 4.90625 -6.351562 4.773438 -6.394531 4.640625 -6.4375 C 4.484375 -6.488281 4.328125 -6.550781 4.171875 -6.625 C 4.023438 -6.695312 3.875 -6.789062 3.71875 -6.90625 C 3.695312 -6.914062 3.675781 -6.925781 3.65625 -6.9375 C 3.644531 -6.945312 3.632812 -6.957031 3.625 -6.96875 C 3.488281 -7.039062 3.359375 -7.125 3.234375 -7.21875 C 3.117188 -7.3125 3.007812 -7.40625 2.90625 -7.5 C 2.84375 -7.5625 2.78125 -7.625 2.71875 -7.6875 C 2.65625 -7.75 2.59375 -7.8125 2.53125 -7.875 C 2.445312 -7.96875 2.375 -8.070312 2.3125 -8.1875 C 2.25 -8.300781 2.191406 -8.410156 2.140625 -8.515625 C 2.066406 -8.734375 1.992188 -8.945312 1.921875 -9.15625 C 1.859375 -9.363281 1.800781 -9.570312 1.75 -9.78125 C 1.738281 -9.863281 1.726562 -9.941406 1.71875 -10.015625 C 1.707031 -10.085938 1.6875 -10.15625 1.65625 -10.21875 C 1.65625 -10.300781 1.648438 -10.378906 1.640625 -10.453125 C 1.640625 -10.523438 1.628906 -10.59375 1.609375 -10.65625 C 1.609375 -10.738281 1.613281 -10.820312 1.625 -10.90625 C 1.632812 -11 1.640625 -11.09375 1.640625 -11.1875 C 1.640625 -11.207031 1.640625 -11.222656 1.640625 -11.234375 C 1.640625 -11.253906 1.640625 -11.269531 1.640625 -11.28125 C 1.640625 -11.5625 1.671875 -11.828125 1.734375 -12.078125 C 1.796875 -12.335938 1.875 -12.585938 1.96875 -12.828125 C 2.082031 -13.148438 2.21875 -13.441406 2.375 -13.703125 C 2.4375 -13.796875 2.5 -13.878906 2.5625 -13.953125 C 2.625 -14.035156 2.6875 -14.113281 2.75 -14.1875 C 2.851562 -14.3125 2.960938 -14.421875 3.078125 -14.515625 C 3.191406 -14.617188 3.3125 -14.726562 3.4375 -14.84375 C 3.507812 -14.882812 3.582031 -14.925781 3.65625 -14.96875 C 3.726562 -15.007812 3.796875 -15.039062 3.859375 -15.0625 C 3.929688 -15.113281 4.003906 -15.15625 4.078125 -15.1875 C 4.160156 -15.226562 4.234375 -15.265625 4.296875 -15.296875 C 4.472656 -15.410156 4.664062 -15.5 4.875 -15.5625 C 5.082031 -15.632812 5.289062 -15.691406 5.5 -15.734375 C 5.613281 -15.765625 5.726562 -15.796875 5.84375 -15.828125 C 5.957031 -15.859375 6.070312 -15.882812 6.1875 -15.90625 C 6.257812 -15.914062 6.335938 -15.925781 6.421875 -15.9375 C 6.503906 -15.945312 6.585938 -15.957031 6.671875 -15.96875 C 6.765625 -15.988281 6.851562 -16 6.9375 -16 C 7.03125 -16.007812 7.125 -16.015625 7.21875 -16.015625 C 7.34375 -16.015625 7.457031 -16.019531 7.5625 -16.03125 C 7.675781 -16.039062 7.785156 -16.03125 7.890625 -16 C 7.921875 -16 7.953125 -16 7.984375 -16 C 8.015625 -16 8.046875 -16 8.078125 -16 C 8.472656 -15.976562 8.867188 -15.96875 9.265625 -15.96875 C 9.671875 -15.96875 10.078125 -15.96875 10.484375 -15.96875 C 10.628906 -15.957031 10.78125 -15.953125 10.9375 -15.953125 C 11.101562 -15.960938 11.265625 -15.960938 11.421875 -15.953125 C 11.679688 -15.929688 11.941406 -15.921875 12.203125 -15.921875 C 12.460938 -15.921875 12.734375 -15.921875 13.015625 -15.921875 C 13.085938 -15.910156 13.160156 -15.910156 13.234375 -15.921875 C 13.304688 -15.941406 13.378906 -15.953125 13.453125 -15.953125 C 13.585938 -15.953125 13.722656 -15.953125 13.859375 -15.953125 C 14.003906 -15.953125 14.144531 -15.953125 14.28125 -15.953125 C 14.425781 -15.929688 14.5625 -15.925781 14.6875 -15.9375 C 14.820312 -15.945312 14.941406 -15.957031 15.046875 -15.96875 C 15.109375 -15.96875 15.164062 -15.960938 15.21875 -15.953125 C 15.269531 -15.953125 15.328125 -15.957031 15.390625 -15.96875 C 15.554688 -16 15.722656 -16.007812 15.890625 -16 C 16.066406 -16 16.234375 -16 16.390625 -16 C 16.492188 -16 16.59375 -15.992188 16.6875 -15.984375 C 16.789062 -15.972656 16.898438 -15.96875 17.015625 -15.96875 C 17.316406 -16 17.613281 -16.007812 17.90625 -16 C 18.195312 -16 18.488281 -16 18.78125 -16 C 18.894531 -16 18.992188 -16.003906 19.078125 -16.015625 C 19.171875 -16.035156 19.273438 -16.046875 19.390625 -16.046875 C 19.421875 -16.046875 19.4375 -16.046875 19.4375 -16.046875 C 19.4375 -16.046875 19.441406 -16.046875 19.453125 -16.046875 C 19.484375 -16.046875 19.515625 -16.046875 19.546875 -16.046875 C 19.578125 -16.046875 19.597656 -16.046875 19.609375 -16.046875 C 19.847656 -16.046875 20.082031 -16.046875 20.3125 -16.046875 C 20.539062 -16.046875 20.769531 -16.035156 21 -16.015625 C 21.375 -16.003906 21.742188 -16 22.109375 -16 C 22.472656 -16.007812 22.84375 -16.007812 23.21875 -16 C 23.34375 -16 23.46875 -16 23.59375 -16 C 23.726562 -16.007812 23.859375 -16.015625 23.984375 -16.015625 C 24.015625 -16.015625 24.039062 -16.015625 24.0625 -16.015625 C 24.09375 -16.015625 24.125 -16.015625 24.15625 -16.015625 C 24.1875 -15.660156 24.191406 -15.3125 24.171875 -14.96875 C 24.148438 -14.625 24.140625 -14.273438 24.140625 -13.921875 C 24.148438 -13.566406 24.15625 -13.210938 24.15625 -12.859375 C 24.15625 -12.515625 24.15625 -12.164062 24.15625 -11.8125 C 24.144531 -11.800781 24.117188 -11.796875 24.078125 -11.796875 C 23.992188 -11.796875 23.90625 -11.796875 23.8125 -11.796875 C 23.71875 -11.804688 23.632812 -11.804688 23.5625 -11.796875 C 23.394531 -11.773438 23.21875 -11.769531 23.03125 -11.78125 C 22.84375 -11.789062 22.660156 -11.785156 22.484375 -11.765625 C 22.273438 -11.753906 22.0625 -11.75 21.84375 -11.75 C 21.632812 -11.75 21.421875 -11.75 21.203125 -11.75 C 20.816406 -11.75 20.429688 -11.75 20.046875 -11.75 C 19.671875 -11.75 19.28125 -11.75 18.875 -11.75 C 18.738281 -11.75 18.597656 -11.753906 18.453125 -11.765625 C 18.316406 -11.785156 18.179688 -11.796875 18.046875 -11.796875 C 17.941406 -11.796875 17.828125 -11.796875 17.703125 -11.796875 C 17.578125 -11.796875 17.453125 -11.785156 17.328125 -11.765625 C 17.316406 -11.765625 17.296875 -11.765625 17.265625 -11.765625 C 17.242188 -11.765625 17.21875 -11.765625 17.1875 -11.765625 C 16.882812 -11.765625 16.570312 -11.765625 16.25 -11.765625 C 15.9375 -11.765625 15.628906 -11.765625 15.328125 -11.765625 C 15.140625 -11.796875 14.945312 -11.804688 14.75 -11.796875 C 14.5625 -11.796875 14.382812 -11.800781 14.21875 -11.8125 C 14.019531 -11.832031 13.816406 -11.835938 13.609375 -11.828125 C 13.398438 -11.816406 13.1875 -11.820312 12.96875 -11.84375 C 12.863281 -11.84375 12.753906 -11.84375 12.640625 -11.84375 C 12.523438 -11.851562 12.40625 -11.859375 12.28125 -11.859375 C 12.164062 -11.878906 12.054688 -11.890625 11.953125 -11.890625 C 11.859375 -11.898438 11.757812 -11.890625 11.65625 -11.859375 C 11.625 -11.828125 11.59375 -11.828125 11.5625 -11.859375 C 11.5 -11.859375 11.4375 -11.847656 11.375 -11.828125 C 11.3125 -11.816406 11.25 -11.8125 11.1875 -11.8125 C 11.082031 -11.800781 10.976562 -11.785156 10.875 -11.765625 C 10.78125 -11.753906 10.675781 -11.75 10.5625 -11.75 C 10.476562 -11.726562 10.390625 -11.722656 10.296875 -11.734375 C 10.203125 -11.742188 10.109375 -11.75 10.015625 -11.75 C 9.828125 -11.75 9.660156 -11.6875 9.515625 -11.5625 C 9.367188 -11.4375 9.273438 -11.289062 9.234375 -11.125 C 9.203125 -11.03125 9.203125 -10.921875 9.234375 -10.796875 C 9.265625 -10.691406 9.316406 -10.613281 9.390625 -10.5625 C 9.472656 -10.507812 9.554688 -10.46875 9.640625 -10.4375 C 9.671875 -10.414062 9.707031 -10.40625 9.75 -10.40625 C 9.800781 -10.40625 9.84375 -10.40625 9.875 -10.40625 C 10.101562 -10.40625 10.335938 -10.40625 10.578125 -10.40625 C 10.816406 -10.40625 11.0625 -10.40625 11.3125 -10.40625 C 11.476562 -10.394531 11.648438 -10.390625 11.828125 -10.390625 C 12.015625 -10.398438 12.195312 -10.390625 12.375 -10.359375 C 12.632812 -10.347656 12.898438 -10.335938 13.171875 -10.328125 C 13.453125 -10.316406 13.734375 -10.320312 14.015625 -10.34375 C 14.179688 -10.34375 14.335938 -10.34375 14.484375 -10.34375 C 14.640625 -10.351562 14.796875 -10.351562 14.953125 -10.34375 C 15.210938 -10.34375 15.476562 -10.34375 15.75 -10.34375 C 16.019531 -10.34375 16.285156 -10.332031 16.546875 -10.3125 C 16.671875 -10.3125 16.789062 -10.304688 16.90625 -10.296875 C 17.019531 -10.296875 17.128906 -10.296875 17.234375 -10.296875 C 17.328125 -10.296875 17.421875 -10.285156 17.515625 -10.265625 C 17.609375 -10.253906 17.703125 -10.25 17.796875 -10.25 C 17.804688 -10.25 17.816406 -10.25 17.828125 -10.25 C 17.835938 -10.25 17.847656 -10.25 17.859375 -10.25 C 18.078125 -10.25 18.285156 -10.222656 18.484375 -10.171875 C 18.515625 -10.171875 18.539062 -10.171875 18.5625 -10.171875 C 18.582031 -10.171875 18.601562 -10.171875 18.625 -10.171875 C 18.882812 -10.171875 19.144531 -10.171875 19.40625 -10.171875 C 19.664062 -10.171875 19.925781 -10.171875 20.1875 -10.171875 C 20.3125 -10.171875 20.421875 -10.164062 20.515625 -10.15625 C 20.617188 -10.15625 20.726562 -10.144531 20.84375 -10.125 C 20.945312 -10.113281 21.046875 -10.097656 21.140625 -10.078125 C 21.242188 -10.066406 21.351562 -10.046875 21.46875 -10.015625 C 21.664062 -9.972656 21.859375 -9.921875 22.046875 -9.859375 C 22.242188 -9.796875 22.429688 -9.722656 22.609375 -9.640625 C 22.722656 -9.609375 22.828125 -9.566406 22.921875 -9.515625 C 23.023438 -9.460938 23.125 -9.40625 23.21875 -9.34375 C 23.34375 -9.269531 23.460938 -9.191406 23.578125 -9.109375 C 23.703125 -9.023438 23.820312 -8.941406 23.9375 -8.859375 C 23.96875 -8.847656 24 -8.828125 24.03125 -8.796875 C 24.070312 -8.765625 24.097656 -8.734375 24.109375 -8.703125 C 24.222656 -8.585938 24.332031 -8.472656 24.4375 -8.359375 C 24.539062 -8.242188 24.632812 -8.128906 24.71875 -8.015625 C 24.9375 -7.710938 25.085938 -7.410156 25.171875 -7.109375 C 25.203125 -7.015625 25.226562 -6.925781 25.25 -6.84375 C 25.28125 -6.757812 25.300781 -6.671875 25.3125 -6.578125 C 25.34375 -6.484375 25.363281 -6.382812 25.375 -6.28125 C 25.394531 -6.1875 25.414062 -6.09375 25.4375 -6 C 25.476562 -5.769531 25.492188 -5.539062 25.484375 -5.3125 C 25.484375 -5.082031 25.484375 -4.847656 25.484375 -4.609375 C 25.484375 -4.566406 25.484375 -4.519531 25.484375 -4.46875 C 25.484375 -4.425781 25.472656 -4.382812 25.453125 -4.34375 C 25.441406 -4.226562 25.425781 -4.125 25.40625 -4.03125 C 25.394531 -3.945312 25.375 -3.847656 25.34375 -3.734375 C 25.320312 -3.628906 25.296875 -3.519531 25.265625 -3.40625 C 25.234375 -3.289062 25.195312 -3.171875 25.15625 -3.046875 C 25.082031 -2.859375 24.988281 -2.671875 24.875 -2.484375 C 24.769531 -2.304688 24.648438 -2.132812 24.515625 -1.96875 C 24.328125 -1.726562 24.117188 -1.519531 23.890625 -1.34375 C 23.835938 -1.289062 23.785156 -1.238281 23.734375 -1.1875 C 23.691406 -1.144531 23.648438 -1.109375 23.609375 -1.078125 C 23.484375 -0.941406 23.335938 -0.828125 23.171875 -0.734375 C 23.015625 -0.640625 22.851562 -0.554688 22.6875 -0.484375 C 22.53125 -0.421875 22.375 -0.363281 22.21875 -0.3125 C 22.070312 -0.257812 21.910156 -0.203125 21.734375 -0.140625 C 21.566406 -0.078125 21.375 -0.046875 21.15625 -0.046875 C 20.851562 -0.046875 20.550781 -0.046875 20.25 -0.046875 C 19.945312 -0.046875 19.644531 -0.046875 19.34375 -0.046875 C 19.1875 -0.046875 19.035156 -0.046875 18.890625 -0.046875 C 18.742188 -0.0546875 18.601562 -0.0625 18.46875 -0.0625 C 18.289062 -0.0820312 18.113281 -0.09375 17.9375 -0.09375 C 17.757812 -0.09375 17.585938 -0.09375 17.421875 -0.09375 C 17.085938 -0.09375 16.753906 -0.09375 16.421875 -0.09375 C 16.085938 -0.101562 15.753906 -0.101562 15.421875 -0.09375 C 14.859375 -0.0703125 14.300781 -0.0625 13.75 -0.0625 C 13.195312 -0.0625 12.632812 -0.0625 12.0625 -0.0625 C 11.894531 -0.0507812 11.722656 -0.046875 11.546875 -0.046875 C 11.367188 -0.046875 11.195312 -0.046875 11.03125 -0.046875 C 10.925781 -0.0234375 10.828125 -0.0078125 10.734375 0 C 10.648438 0 10.554688 0.00390625 10.453125 0.015625 C 10.390625 0.015625 10.332031 0.015625 10.28125 0.015625 C 10.226562 0.015625 10.171875 0.0234375 10.109375 0.046875 C 9.910156 0.0546875 9.707031 0.0625 9.5 0.0625 C 9.289062 0.0625 9.078125 0.0625 8.859375 0.0625 C 8.753906 0.0625 8.644531 0.0546875 8.53125 0.046875 C 8.414062 0.046875 8.296875 0.0351562 8.171875 0.015625 C 8.109375 0.00390625 8.050781 0 8 0 C 7.957031 0 7.90625 -0.00390625 7.84375 -0.015625 C 7.71875 -0.015625 7.59375 -0.015625 7.46875 -0.015625 C 7.351562 -0.015625 7.234375 -0.0234375 7.109375 -0.046875 C 6.941406 -0.078125 6.769531 -0.0859375 6.59375 -0.078125 C 6.425781 -0.0664062 6.257812 -0.0625 6.09375 -0.0625 C 5.875 -0.0625 5.648438 -0.0507812 5.421875 -0.03125 C 5.203125 -0.0195312 4.988281 -0.0234375 4.78125 -0.046875 C 4.625 -0.046875 4.460938 -0.046875 4.296875 -0.046875 C 4.140625 -0.0546875 3.976562 -0.0625 3.8125 -0.0625 C 3.5625 -0.0507812 3.304688 -0.046875 3.046875 -0.046875 C 2.785156 -0.046875 2.523438 -0.046875 2.265625 -0.046875 C 2.242188 -0.046875 2.222656 -0.046875 2.203125 -0.046875 C 2.179688 -0.046875 2.15625 -0.046875 2.125 -0.046875 Z M 2.125 -0.046875 "/></g></g></g><g fill="#ffffff" fill-opacity="1"><g transform="translate(46.751256, 28.671765)"><g><path d="M 8.609375 -4.703125 C 8.609375 -4.671875 8.609375 -4.644531 8.609375 -4.625 C 8.609375 -4.601562 8.609375 -4.578125 8.609375 -4.546875 C 8.609375 -4.328125 8.609375 -4.109375 8.609375 -3.890625 C 8.609375 -3.679688 8.609375 -3.46875 8.609375 -3.25 C 8.585938 -3.144531 8.578125 -3.035156 8.578125 -2.921875 C 8.578125 -2.816406 8.570312 -2.703125 8.5625 -2.578125 C 8.539062 -2.472656 8.535156 -2.367188 8.546875 -2.265625 C 8.554688 -2.171875 8.5625 -2.0625 8.5625 -1.9375 C 8.539062 -1.800781 8.535156 -1.660156 8.546875 -1.515625 C 8.554688 -1.367188 8.550781 -1.21875 8.53125 -1.0625 C 8.53125 -1 8.523438 -0.941406 8.515625 -0.890625 C 8.515625 -0.847656 8.515625 -0.796875 8.515625 -0.734375 C 8.515625 -0.628906 8.507812 -0.53125 8.5 -0.4375 C 8.5 -0.34375 8.5 -0.242188 8.5 -0.140625 C 8.5 -0.117188 8.5 -0.101562 8.5 -0.09375 C 8.5 -0.09375 8.5 -0.078125 8.5 -0.046875 C 8.445312 -0.0234375 8.394531 -0.015625 8.34375 -0.015625 C 8.300781 -0.015625 8.265625 -0.015625 8.234375 -0.015625 C 8.097656 -0.015625 7.957031 -0.015625 7.8125 -0.015625 C 7.675781 -0.015625 7.539062 -0.015625 7.40625 -0.015625 C 7.15625 -0.00390625 6.90625 0 6.65625 0 C 6.414062 0 6.175781 0.00390625 5.9375 0.015625 C 5.550781 0.0351562 5.164062 0.0390625 4.78125 0.03125 C 4.40625 0.0195312 4.023438 0.0234375 3.640625 0.046875 C 3.492188 0.046875 3.335938 0.046875 3.171875 0.046875 C 3.015625 0.0546875 2.847656 0.0625 2.671875 0.0625 C 2.578125 0.0625 2.484375 0.0507812 2.390625 0.03125 C 2.304688 0.0195312 2.207031 0.015625 2.09375 0.015625 C 2.082031 0.015625 2.066406 0.015625 2.046875 0.015625 C 2.035156 0.015625 2.015625 0.015625 1.984375 0.015625 C 1.921875 0.015625 1.863281 0.015625 1.8125 0.015625 C 1.769531 0.015625 1.71875 0.015625 1.65625 0.015625 C 1.65625 -0.00390625 1.65625 -0.0195312 1.65625 -0.03125 C 1.65625 -0.0507812 1.65625 -0.0703125 1.65625 -0.09375 C 1.65625 -0.21875 1.65625 -0.335938 1.65625 -0.453125 C 1.65625 -0.566406 1.65625 -0.675781 1.65625 -0.78125 C 1.675781 -1.007812 1.675781 -1.234375 1.65625 -1.453125 C 1.65625 -1.671875 1.660156 -1.890625 1.671875 -2.109375 C 1.679688 -2.335938 1.675781 -2.566406 1.65625 -2.796875 C 1.65625 -2.898438 1.65625 -3.003906 1.65625 -3.109375 C 1.65625 -3.222656 1.65625 -3.332031 1.65625 -3.4375 C 1.644531 -3.78125 1.640625 -4.113281 1.640625 -4.4375 C 1.648438 -4.757812 1.65625 -5.085938 1.65625 -5.421875 C 1.65625 -5.703125 1.65625 -5.976562 1.65625 -6.25 C 1.65625 -6.53125 1.648438 -6.800781 1.640625 -7.0625 C 1.640625 -7.195312 1.632812 -7.332031 1.625 -7.46875 C 1.613281 -7.613281 1.609375 -7.753906 1.609375 -7.890625 C 1.640625 -8.140625 1.648438 -8.382812 1.640625 -8.625 C 1.640625 -8.875 1.640625 -9.125 1.640625 -9.375 C 1.671875 -9.863281 1.671875 -10.347656 1.640625 -10.828125 C 1.617188 -11.148438 1.613281 -11.472656 1.625 -11.796875 C 1.632812 -12.117188 1.628906 -12.429688 1.609375 -12.734375 C 1.609375 -13.054688 1.609375 -13.375 1.609375 -13.6875 C 1.609375 -14.007812 1.609375 -14.332031 1.609375 -14.65625 C 1.609375 -14.820312 1.609375 -14.984375 1.609375 -15.140625 C 1.609375 -15.304688 1.609375 -15.46875 1.609375 -15.625 C 1.609375 -15.65625 1.613281 -15.6875 1.625 -15.71875 C 1.632812 -15.757812 1.644531 -15.804688 1.65625 -15.859375 C 1.675781 -15.867188 1.691406 -15.878906 1.703125 -15.890625 C 1.722656 -15.910156 1.738281 -15.929688 1.75 -15.953125 C 1.769531 -15.953125 1.78125 -15.953125 1.78125 -15.953125 C 1.789062 -15.960938 1.796875 -15.96875 1.796875 -15.96875 C 2.015625 -15.96875 2.226562 -15.96875 2.4375 -15.96875 C 2.644531 -15.96875 2.847656 -15.976562 3.046875 -16 C 3.140625 -16 3.234375 -15.992188 3.328125 -15.984375 C 3.421875 -15.972656 3.519531 -15.960938 3.625 -15.953125 C 3.695312 -15.953125 3.773438 -15.953125 3.859375 -15.953125 C 3.953125 -15.953125 4.035156 -15.953125 4.109375 -15.953125 C 4.140625 -15.960938 4.203125 -15.96875 4.296875 -15.96875 C 4.472656 -15.96875 4.648438 -15.96875 4.828125 -15.96875 C 5.003906 -15.96875 5.1875 -15.96875 5.375 -15.96875 C 5.59375 -15.96875 5.816406 -15.972656 6.046875 -15.984375 C 6.273438 -15.992188 6.503906 -16 6.734375 -16 C 7.015625 -16 7.289062 -16 7.5625 -16 C 7.84375 -16.007812 8.113281 -16.007812 8.375 -16 C 8.632812 -15.976562 8.890625 -15.96875 9.140625 -15.96875 C 9.398438 -15.96875 9.65625 -15.96875 9.90625 -15.96875 C 10.019531 -15.96875 10.140625 -15.972656 10.265625 -15.984375 C 10.390625 -16.003906 10.503906 -16.007812 10.609375 -16 C 10.765625 -15.976562 10.914062 -15.96875 11.0625 -15.96875 C 11.207031 -15.96875 11.359375 -15.96875 11.515625 -15.96875 C 11.960938 -16 12.410156 -16.015625 12.859375 -16.015625 C 13.304688 -16.015625 13.742188 -16.007812 14.171875 -16 C 15.097656 -15.976562 16.019531 -15.972656 16.9375 -15.984375 C 17.863281 -15.992188 18.78125 -15.988281 19.6875 -15.96875 C 19.78125 -15.96875 19.867188 -15.957031 19.953125 -15.9375 C 20.046875 -15.925781 20.148438 -15.921875 20.265625 -15.921875 C 20.304688 -15.910156 20.351562 -15.90625 20.40625 -15.90625 C 20.46875 -15.90625 20.523438 -15.90625 20.578125 -15.90625 C 20.660156 -15.90625 20.742188 -15.898438 20.828125 -15.890625 C 20.910156 -15.878906 20.992188 -15.875 21.078125 -15.875 C 21.191406 -15.863281 21.300781 -15.84375 21.40625 -15.8125 C 21.507812 -15.78125 21.613281 -15.75 21.71875 -15.71875 C 21.75 -15.71875 21.78125 -15.707031 21.8125 -15.6875 C 21.851562 -15.675781 21.882812 -15.671875 21.90625 -15.671875 C 22.132812 -15.578125 22.359375 -15.484375 22.578125 -15.390625 C 22.804688 -15.296875 23.023438 -15.1875 23.234375 -15.0625 C 23.328125 -15.007812 23.421875 -14.957031 23.515625 -14.90625 C 23.617188 -14.863281 23.710938 -14.800781 23.796875 -14.71875 C 23.867188 -14.65625 23.941406 -14.582031 24.015625 -14.5 C 24.097656 -14.414062 24.175781 -14.335938 24.25 -14.265625 C 24.300781 -14.203125 24.347656 -14.144531 24.390625 -14.09375 C 24.441406 -14.039062 24.5 -13.984375 24.5625 -13.921875 C 24.632812 -13.828125 24.707031 -13.734375 24.78125 -13.640625 C 24.863281 -13.546875 24.925781 -13.4375 24.96875 -13.3125 C 25.03125 -13.207031 25.085938 -13.09375 25.140625 -12.96875 C 25.191406 -12.84375 25.234375 -12.71875 25.265625 -12.59375 C 25.296875 -12.488281 25.328125 -12.382812 25.359375 -12.28125 C 25.390625 -12.1875 25.414062 -12.085938 25.4375 -11.984375 C 25.46875 -11.867188 25.484375 -11.765625 25.484375 -11.671875 C 25.492188 -11.585938 25.507812 -11.488281 25.53125 -11.375 C 25.539062 -11.3125 25.550781 -11.25 25.5625 -11.1875 C 25.570312 -11.125 25.578125 -11.054688 25.578125 -10.984375 C 25.578125 -10.859375 25.578125 -10.734375 25.578125 -10.609375 C 25.578125 -10.492188 25.578125 -10.375 25.578125 -10.25 C 25.578125 -10.132812 25.578125 -10.023438 25.578125 -9.921875 C 25.578125 -9.828125 25.566406 -9.726562 25.546875 -9.625 C 25.472656 -8.957031 25.289062 -8.34375 25 -7.78125 C 24.96875 -7.6875 24.925781 -7.597656 24.875 -7.515625 C 24.832031 -7.429688 24.796875 -7.34375 24.765625 -7.25 C 24.566406 -6.875 24.335938 -6.554688 24.078125 -6.296875 C 24.015625 -6.234375 23.941406 -6.164062 23.859375 -6.09375 C 23.785156 -6.019531 23.707031 -5.953125 23.625 -5.890625 C 23.457031 -5.734375 23.238281 -5.59375 22.96875 -5.46875 C 22.757812 -5.363281 22.539062 -5.265625 22.3125 -5.171875 C 22.082031 -5.085938 21.851562 -5.023438 21.625 -4.984375 C 21.53125 -4.972656 21.429688 -4.957031 21.328125 -4.9375 C 21.234375 -4.925781 21.140625 -4.910156 21.046875 -4.890625 C 20.984375 -4.878906 20.910156 -4.867188 20.828125 -4.859375 C 20.753906 -4.847656 20.679688 -4.835938 20.609375 -4.828125 C 20.585938 -4.828125 20.578125 -4.828125 20.578125 -4.828125 C 20.578125 -4.828125 20.570312 -4.828125 20.5625 -4.828125 C 20.457031 -4.804688 20.359375 -4.796875 20.265625 -4.796875 C 20.171875 -4.796875 20.070312 -4.796875 19.96875 -4.796875 C 19.78125 -4.785156 19.597656 -4.78125 19.421875 -4.78125 C 19.242188 -4.789062 19.0625 -4.789062 18.875 -4.78125 C 18.71875 -4.78125 18.5625 -4.773438 18.40625 -4.765625 C 18.257812 -4.753906 18.109375 -4.75 17.953125 -4.75 C 17.878906 -4.75 17.804688 -4.753906 17.734375 -4.765625 C 17.660156 -4.773438 17.585938 -4.78125 17.515625 -4.78125 C 17.316406 -4.78125 17.113281 -4.78125 16.90625 -4.78125 C 16.707031 -4.78125 16.503906 -4.769531 16.296875 -4.75 C 16.046875 -4.738281 15.800781 -4.734375 15.5625 -4.734375 C 15.320312 -4.742188 15.070312 -4.742188 14.8125 -4.734375 C 14.707031 -4.710938 14.597656 -4.703125 14.484375 -4.703125 C 14.367188 -4.703125 14.25 -4.695312 14.125 -4.6875 C 14.101562 -4.6875 14.082031 -4.6875 14.0625 -4.6875 C 14.039062 -4.6875 14.015625 -4.6875 13.984375 -4.6875 C 13.296875 -4.695312 12.597656 -4.703125 11.890625 -4.703125 C 11.191406 -4.703125 10.5 -4.703125 9.8125 -4.703125 C 9.75 -4.703125 9.675781 -4.707031 9.59375 -4.71875 C 9.519531 -4.726562 9.445312 -4.734375 9.375 -4.734375 C 9.25 -4.734375 9.125 -4.726562 9 -4.71875 C 8.875 -4.707031 8.742188 -4.703125 8.609375 -4.703125 Z M 8.609375 -8.90625 C 8.640625 -8.90625 8.671875 -8.90625 8.703125 -8.90625 C 8.734375 -8.90625 8.753906 -8.90625 8.765625 -8.90625 C 9.085938 -8.90625 9.414062 -8.90625 9.75 -8.90625 C 10.082031 -8.90625 10.410156 -8.90625 10.734375 -8.90625 C 10.765625 -8.90625 10.796875 -8.90625 10.828125 -8.90625 C 10.859375 -8.90625 10.878906 -8.90625 10.890625 -8.90625 C 10.984375 -8.925781 11.070312 -8.9375 11.15625 -8.9375 C 11.238281 -8.945312 11.328125 -8.953125 11.421875 -8.953125 C 12.222656 -8.953125 13.015625 -8.953125 13.796875 -8.953125 C 14.585938 -8.953125 15.375 -8.953125 16.15625 -8.953125 C 16.195312 -8.953125 16.234375 -8.945312 16.265625 -8.9375 C 16.296875 -8.9375 16.328125 -8.9375 16.359375 -8.9375 C 16.410156 -8.9375 16.453125 -8.9375 16.484375 -8.9375 C 16.523438 -8.9375 16.566406 -8.9375 16.609375 -8.9375 C 16.640625 -8.9375 16.664062 -8.9375 16.6875 -8.9375 C 16.71875 -8.945312 16.75 -8.953125 16.78125 -8.953125 C 16.875 -8.972656 16.960938 -8.988281 17.046875 -9 C 17.140625 -9.019531 17.234375 -9.050781 17.328125 -9.09375 C 17.523438 -9.195312 17.707031 -9.316406 17.875 -9.453125 C 18.050781 -9.597656 18.203125 -9.765625 18.328125 -9.953125 C 18.429688 -10.085938 18.484375 -10.222656 18.484375 -10.359375 C 18.484375 -10.492188 18.453125 -10.632812 18.390625 -10.78125 C 18.378906 -10.851562 18.34375 -10.914062 18.28125 -10.96875 C 18.226562 -11.019531 18.179688 -11.078125 18.140625 -11.140625 C 18.035156 -11.253906 17.914062 -11.347656 17.78125 -11.421875 C 17.644531 -11.503906 17.519531 -11.570312 17.40625 -11.625 C 17.382812 -11.644531 17.359375 -11.65625 17.328125 -11.65625 C 17.265625 -11.664062 17.203125 -11.675781 17.140625 -11.6875 C 17.085938 -11.695312 17.019531 -11.707031 16.9375 -11.71875 C 16.84375 -11.738281 16.742188 -11.75 16.640625 -11.75 C 16.546875 -11.757812 16.453125 -11.765625 16.359375 -11.765625 C 16.253906 -11.765625 16.15625 -11.765625 16.0625 -11.765625 C 15.96875 -11.765625 15.867188 -11.765625 15.765625 -11.765625 C 15.734375 -11.765625 15.695312 -11.769531 15.65625 -11.78125 C 15.613281 -11.789062 15.582031 -11.796875 15.5625 -11.796875 C 15.40625 -11.773438 15.242188 -11.769531 15.078125 -11.78125 C 14.921875 -11.789062 14.753906 -11.78125 14.578125 -11.75 C 14.273438 -11.75 13.960938 -11.75 13.640625 -11.75 C 13.328125 -11.75 13.019531 -11.753906 12.71875 -11.765625 C 12.53125 -11.785156 12.335938 -11.789062 12.140625 -11.78125 C 11.953125 -11.769531 11.765625 -11.773438 11.578125 -11.796875 C 11.429688 -11.804688 11.285156 -11.804688 11.140625 -11.796875 C 10.992188 -11.796875 10.84375 -11.785156 10.6875 -11.765625 C 10.550781 -11.765625 10.410156 -11.765625 10.265625 -11.765625 C 10.128906 -11.765625 9.992188 -11.773438 9.859375 -11.796875 C 9.835938 -11.796875 9.816406 -11.796875 9.796875 -11.796875 C 9.773438 -11.796875 9.753906 -11.796875 9.734375 -11.796875 C 9.609375 -11.773438 9.476562 -11.765625 9.34375 -11.765625 C 9.21875 -11.765625 9.085938 -11.757812 8.953125 -11.75 C 8.890625 -11.75 8.828125 -11.75 8.765625 -11.75 C 8.703125 -11.75 8.632812 -11.75 8.5625 -11.75 C 8.539062 -11.6875 8.523438 -11.628906 8.515625 -11.578125 C 8.515625 -11.535156 8.515625 -11.5 8.515625 -11.46875 C 8.515625 -11.34375 8.515625 -11.222656 8.515625 -11.109375 C 8.515625 -10.992188 8.519531 -10.875 8.53125 -10.75 C 8.550781 -10.519531 8.5625 -10.289062 8.5625 -10.0625 C 8.5625 -9.84375 8.566406 -9.617188 8.578125 -9.390625 C 8.578125 -9.316406 8.578125 -9.238281 8.578125 -9.15625 C 8.578125 -9.082031 8.585938 -9 8.609375 -8.90625 Z M 8.609375 -8.90625 "/></g></g></g><g fill="#ffffff" fill-opacity="1"><g transform="translate(92.386262, 28.671765)"><g><path d="M 26.796875 -6.4375 C 26.773438 -6.425781 26.765625 -6.40625 26.765625 -6.375 C 26.753906 -6.195312 26.75 -6.019531 26.75 -5.84375 C 26.75 -5.664062 26.738281 -5.492188 26.71875 -5.328125 C 26.707031 -5.128906 26.703125 -4.929688 26.703125 -4.734375 C 26.703125 -4.546875 26.703125 -4.351562 26.703125 -4.15625 C 26.703125 -4.09375 26.691406 -4.023438 26.671875 -3.953125 C 26.660156 -3.890625 26.65625 -3.828125 26.65625 -3.765625 C 26.65625 -3.671875 26.644531 -3.582031 26.625 -3.5 C 26.613281 -3.414062 26.59375 -3.332031 26.5625 -3.25 C 26.519531 -3.09375 26.46875 -2.929688 26.40625 -2.765625 C 26.351562 -2.597656 26.289062 -2.429688 26.21875 -2.265625 C 26.125 -2.078125 26.007812 -1.890625 25.875 -1.703125 C 25.8125 -1.640625 25.75 -1.570312 25.6875 -1.5 C 25.632812 -1.425781 25.570312 -1.347656 25.5 -1.265625 C 25.4375 -1.191406 25.359375 -1.117188 25.265625 -1.046875 C 25.171875 -0.984375 25.082031 -0.910156 25 -0.828125 C 24.820312 -0.703125 24.632812 -0.59375 24.4375 -0.5 C 24.25 -0.414062 24.054688 -0.332031 23.859375 -0.25 C 23.660156 -0.1875 23.460938 -0.128906 23.265625 -0.078125 C 23.078125 -0.0351562 22.882812 0.00390625 22.6875 0.046875 C 22.5625 0.078125 22.453125 0.09375 22.359375 0.09375 C 22.160156 0.09375 21.960938 0.09375 21.765625 0.09375 C 21.578125 0.101562 21.382812 0.109375 21.1875 0.109375 C 21.113281 0.109375 21.035156 0.113281 20.953125 0.125 C 20.878906 0.132812 20.800781 0.140625 20.71875 0.140625 C 20.226562 0.109375 19.726562 0.0976562 19.21875 0.109375 C 18.71875 0.128906 18.21875 0.128906 17.71875 0.109375 C 17.550781 0.109375 17.382812 0.113281 17.21875 0.125 C 17.050781 0.144531 16.878906 0.148438 16.703125 0.140625 C 16.472656 0.117188 16.242188 0.109375 16.015625 0.109375 C 15.796875 0.109375 15.570312 0.109375 15.34375 0.109375 C 15.082031 0.109375 14.820312 0.109375 14.5625 0.109375 C 14.300781 0.109375 14.039062 0.117188 13.78125 0.140625 C 13.070312 0.148438 12.367188 0.148438 11.671875 0.140625 C 11.378906 0.117188 11.09375 0.113281 10.8125 0.125 C 10.53125 0.132812 10.25 0.128906 9.96875 0.109375 C 9.613281 0.078125 9.253906 0.0664062 8.890625 0.078125 C 8.535156 0.0859375 8.179688 0.09375 7.828125 0.09375 C 7.628906 0.09375 7.429688 0.09375 7.234375 0.09375 C 7.046875 0.101562 6.847656 0.109375 6.640625 0.109375 C 6.566406 0.109375 6.492188 0.101562 6.421875 0.09375 C 6.359375 0.09375 6.285156 0.0820312 6.203125 0.0625 C 6.160156 0.0625 6.113281 0.0625 6.0625 0.0625 C 6.019531 0.0625 5.976562 0.0546875 5.9375 0.046875 C 5.84375 0.0234375 5.742188 0.00390625 5.640625 -0.015625 C 5.546875 -0.0351562 5.453125 -0.0507812 5.359375 -0.0625 C 5.242188 -0.09375 5.128906 -0.125 5.015625 -0.15625 C 4.898438 -0.1875 4.78125 -0.21875 4.65625 -0.25 C 4.582031 -0.28125 4.503906 -0.3125 4.421875 -0.34375 C 4.347656 -0.375 4.273438 -0.398438 4.203125 -0.421875 C 4.046875 -0.460938 3.894531 -0.519531 3.75 -0.59375 C 3.613281 -0.675781 3.488281 -0.769531 3.375 -0.875 C 3.21875 -0.976562 3.082031 -1.09375 2.96875 -1.21875 C 2.851562 -1.34375 2.738281 -1.472656 2.625 -1.609375 C 2.488281 -1.785156 2.375 -1.945312 2.28125 -2.09375 C 2.21875 -2.21875 2.160156 -2.34375 2.109375 -2.46875 C 2.054688 -2.601562 2.007812 -2.742188 1.96875 -2.890625 C 1.9375 -3.003906 1.90625 -3.117188 1.875 -3.234375 C 1.84375 -3.359375 1.8125 -3.476562 1.78125 -3.59375 C 1.757812 -3.644531 1.75 -3.691406 1.75 -3.734375 C 1.75 -3.785156 1.75 -3.832031 1.75 -3.875 C 1.738281 -4.007812 1.726562 -4.148438 1.71875 -4.296875 C 1.707031 -4.441406 1.703125 -4.585938 1.703125 -4.734375 C 1.703125 -4.898438 1.703125 -5.0625 1.703125 -5.21875 C 1.703125 -5.382812 1.695312 -5.546875 1.6875 -5.703125 C 1.664062 -5.804688 1.660156 -5.914062 1.671875 -6.03125 C 1.679688 -6.144531 1.675781 -6.257812 1.65625 -6.375 C 1.644531 -6.539062 1.640625 -6.695312 1.640625 -6.84375 C 1.640625 -7 1.640625 -7.15625 1.640625 -7.3125 C 1.671875 -7.6875 1.675781 -8.054688 1.65625 -8.421875 C 1.644531 -8.796875 1.644531 -9.164062 1.65625 -9.53125 C 1.675781 -9.664062 1.6875 -9.796875 1.6875 -9.921875 C 1.6875 -10.054688 1.691406 -10.1875 1.703125 -10.3125 C 1.703125 -10.394531 1.703125 -10.472656 1.703125 -10.546875 C 1.703125 -10.617188 1.710938 -10.6875 1.734375 -10.75 C 1.742188 -10.875 1.742188 -10.992188 1.734375 -11.109375 C 1.734375 -11.222656 1.738281 -11.335938 1.75 -11.453125 C 1.75 -11.515625 1.753906 -11.578125 1.765625 -11.640625 C 1.773438 -11.710938 1.785156 -11.78125 1.796875 -11.84375 C 1.796875 -11.882812 1.800781 -11.925781 1.8125 -11.96875 C 1.820312 -12.007812 1.828125 -12.050781 1.828125 -12.09375 C 1.835938 -12.21875 1.863281 -12.332031 1.90625 -12.4375 C 1.945312 -12.539062 1.976562 -12.648438 2 -12.765625 C 2.050781 -12.921875 2.113281 -13.097656 2.1875 -13.296875 C 2.25 -13.429688 2.320312 -13.5625 2.40625 -13.6875 C 2.488281 -13.820312 2.585938 -13.953125 2.703125 -14.078125 C 2.742188 -14.117188 2.785156 -14.164062 2.828125 -14.21875 C 2.867188 -14.28125 2.921875 -14.34375 2.984375 -14.40625 C 3.054688 -14.476562 3.128906 -14.546875 3.203125 -14.609375 C 3.285156 -14.679688 3.363281 -14.75 3.4375 -14.8125 C 3.601562 -14.9375 3.785156 -15.046875 3.984375 -15.140625 C 4.191406 -15.234375 4.394531 -15.3125 4.59375 -15.375 C 4.757812 -15.4375 4.925781 -15.488281 5.09375 -15.53125 C 5.269531 -15.570312 5.429688 -15.617188 5.578125 -15.671875 C 5.660156 -15.679688 5.742188 -15.691406 5.828125 -15.703125 C 5.910156 -15.710938 5.984375 -15.71875 6.046875 -15.71875 C 6.117188 -15.726562 6.191406 -15.738281 6.265625 -15.75 C 6.335938 -15.757812 6.40625 -15.769531 6.46875 -15.78125 C 6.476562 -15.78125 6.488281 -15.78125 6.5 -15.78125 C 6.507812 -15.78125 6.519531 -15.78125 6.53125 -15.78125 C 6.8125 -15.800781 7.082031 -15.8125 7.34375 -15.8125 C 7.613281 -15.8125 7.890625 -15.8125 8.171875 -15.8125 C 8.765625 -15.8125 9.359375 -15.8125 9.953125 -15.8125 C 10.546875 -15.820312 11.144531 -15.820312 11.75 -15.8125 C 12.175781 -15.789062 12.597656 -15.78125 13.015625 -15.78125 C 13.441406 -15.78125 13.875 -15.78125 14.3125 -15.78125 C 14.488281 -15.78125 14.671875 -15.773438 14.859375 -15.765625 C 15.046875 -15.765625 15.234375 -15.769531 15.421875 -15.78125 C 15.785156 -15.8125 16.15625 -15.828125 16.53125 -15.828125 C 16.90625 -15.828125 17.28125 -15.820312 17.65625 -15.8125 C 18.050781 -15.789062 18.453125 -15.78125 18.859375 -15.78125 C 19.273438 -15.78125 19.679688 -15.78125 20.078125 -15.78125 C 20.273438 -15.769531 20.472656 -15.765625 20.671875 -15.765625 C 20.878906 -15.765625 21.082031 -15.753906 21.28125 -15.734375 C 21.382812 -15.734375 21.484375 -15.726562 21.578125 -15.71875 C 21.671875 -15.71875 21.769531 -15.71875 21.875 -15.71875 C 21.894531 -15.695312 21.921875 -15.6875 21.953125 -15.6875 C 22.316406 -15.6875 22.6875 -15.644531 23.0625 -15.5625 C 23.351562 -15.507812 23.613281 -15.4375 23.84375 -15.34375 C 24.007812 -15.300781 24.171875 -15.238281 24.328125 -15.15625 C 24.492188 -15.082031 24.65625 -15 24.8125 -14.90625 C 24.820312 -14.894531 24.859375 -14.875 24.921875 -14.84375 C 25.046875 -14.789062 25.15625 -14.722656 25.25 -14.640625 C 25.351562 -14.554688 25.453125 -14.453125 25.546875 -14.328125 C 25.640625 -14.222656 25.734375 -14.117188 25.828125 -14.015625 C 25.921875 -13.921875 26 -13.8125 26.0625 -13.6875 C 26.226562 -13.457031 26.34375 -13.203125 26.40625 -12.921875 C 26.4375 -12.816406 26.46875 -12.707031 26.5 -12.59375 C 26.539062 -12.476562 26.578125 -12.363281 26.609375 -12.25 C 26.617188 -12.1875 26.625 -12.132812 26.625 -12.09375 C 26.625 -12.050781 26.632812 -12.003906 26.65625 -11.953125 C 26.65625 -11.890625 26.65625 -11.820312 26.65625 -11.75 C 26.664062 -11.6875 26.679688 -11.625 26.703125 -11.5625 C 26.703125 -11.550781 26.703125 -11.535156 26.703125 -11.515625 C 26.703125 -11.503906 26.703125 -11.488281 26.703125 -11.46875 C 26.703125 -11.40625 26.703125 -11.347656 26.703125 -11.296875 C 26.703125 -11.242188 26.703125 -11.175781 26.703125 -11.09375 C 26.703125 -10.914062 26.703125 -10.734375 26.703125 -10.546875 C 26.703125 -10.359375 26.707031 -10.164062 26.71875 -9.96875 C 26.738281 -9.863281 26.75 -9.753906 26.75 -9.640625 C 26.75 -9.535156 26.753906 -9.429688 26.765625 -9.328125 C 26.765625 -9.273438 26.773438 -9.242188 26.796875 -9.234375 C 26.796875 -9.066406 26.796875 -8.894531 26.796875 -8.71875 C 26.796875 -8.539062 26.796875 -8.359375 26.796875 -8.171875 C 26.773438 -8.171875 26.765625 -8.164062 26.765625 -8.15625 C 26.765625 -8.144531 26.765625 -8.140625 26.765625 -8.140625 C 26.765625 -8.035156 26.765625 -7.929688 26.765625 -7.828125 C 26.765625 -7.734375 26.765625 -7.632812 26.765625 -7.53125 C 26.765625 -7.507812 26.773438 -7.5 26.796875 -7.5 C 26.796875 -7.3125 26.796875 -7.128906 26.796875 -6.953125 C 26.796875 -6.773438 26.796875 -6.601562 26.796875 -6.4375 Z M 16.21875 -4 C 16.300781 -4 16.375 -4 16.4375 -4 C 16.5 -4 16.554688 -4 16.609375 -4 C 16.816406 -4 17.019531 -4 17.21875 -4 C 17.414062 -4 17.613281 -4.007812 17.8125 -4.03125 C 17.957031 -4.0625 18.09375 -4.097656 18.21875 -4.140625 C 18.351562 -4.179688 18.472656 -4.238281 18.578125 -4.3125 C 18.671875 -4.363281 18.757812 -4.414062 18.84375 -4.46875 C 18.925781 -4.519531 19.003906 -4.578125 19.078125 -4.640625 C 19.429688 -4.929688 19.625 -5.320312 19.65625 -5.8125 C 19.65625 -5.863281 19.664062 -5.894531 19.6875 -5.90625 C 19.6875 -5.96875 19.6875 -6.023438 19.6875 -6.078125 C 19.695312 -6.128906 19.703125 -6.1875 19.703125 -6.25 C 19.722656 -6.375 19.734375 -6.503906 19.734375 -6.640625 C 19.734375 -6.785156 19.738281 -6.925781 19.75 -7.0625 C 19.75 -7.351562 19.753906 -7.640625 19.765625 -7.921875 C 19.773438 -8.210938 19.765625 -8.503906 19.734375 -8.796875 C 19.710938 -8.828125 19.707031 -8.859375 19.71875 -8.890625 C 19.738281 -8.929688 19.75 -8.96875 19.75 -9 C 19.738281 -9.164062 19.734375 -9.335938 19.734375 -9.515625 C 19.742188 -9.691406 19.742188 -9.859375 19.734375 -10.015625 C 19.710938 -10.234375 19.628906 -10.441406 19.484375 -10.640625 C 19.421875 -10.710938 19.347656 -10.789062 19.265625 -10.875 C 19.191406 -10.96875 19.117188 -11.050781 19.046875 -11.125 C 18.929688 -11.21875 18.8125 -11.300781 18.6875 -11.375 C 18.570312 -11.457031 18.441406 -11.515625 18.296875 -11.546875 C 18.191406 -11.554688 18.082031 -11.570312 17.96875 -11.59375 C 17.863281 -11.613281 17.757812 -11.632812 17.65625 -11.65625 C 17.59375 -11.65625 17.535156 -11.65625 17.484375 -11.65625 C 17.429688 -11.65625 17.378906 -11.660156 17.328125 -11.671875 C 17.222656 -11.671875 17.117188 -11.675781 17.015625 -11.6875 C 16.921875 -11.707031 16.828125 -11.71875 16.734375 -11.71875 C 16.535156 -11.71875 16.332031 -11.722656 16.125 -11.734375 C 15.925781 -11.742188 15.722656 -11.734375 15.515625 -11.703125 C 15.453125 -11.679688 15.382812 -11.671875 15.3125 -11.671875 C 15.238281 -11.671875 15.164062 -11.671875 15.09375 -11.671875 C 14.707031 -11.671875 14.328125 -11.675781 13.953125 -11.6875 C 13.578125 -11.695312 13.1875 -11.703125 12.78125 -11.703125 C 12.570312 -11.703125 12.347656 -11.703125 12.109375 -11.703125 C 11.878906 -11.703125 11.648438 -11.6875 11.421875 -11.65625 C 11.410156 -11.65625 11.398438 -11.65625 11.390625 -11.65625 C 11.378906 -11.65625 11.375 -11.65625 11.375 -11.65625 C 11.28125 -11.65625 11.191406 -11.648438 11.109375 -11.640625 C 11.023438 -11.628906 10.945312 -11.617188 10.875 -11.609375 C 10.8125 -11.609375 10.753906 -11.601562 10.703125 -11.59375 C 10.660156 -11.582031 10.609375 -11.570312 10.546875 -11.5625 C 10.441406 -11.550781 10.332031 -11.523438 10.21875 -11.484375 C 10.113281 -11.441406 10.007812 -11.398438 9.90625 -11.359375 C 9.789062 -11.304688 9.675781 -11.25 9.5625 -11.1875 C 9.445312 -11.125 9.351562 -11.039062 9.28125 -10.9375 C 9.21875 -10.863281 9.15625 -10.785156 9.09375 -10.703125 C 9.03125 -10.628906 8.984375 -10.546875 8.953125 -10.453125 C 8.941406 -10.378906 8.921875 -10.296875 8.890625 -10.203125 C 8.867188 -10.117188 8.851562 -10.039062 8.84375 -9.96875 C 8.820312 -9.925781 8.8125 -9.875 8.8125 -9.8125 C 8.8125 -9.757812 8.8125 -9.710938 8.8125 -9.671875 C 8.800781 -9.578125 8.785156 -9.484375 8.765625 -9.390625 C 8.753906 -9.296875 8.75 -9.203125 8.75 -9.109375 C 8.757812 -8.773438 8.757812 -8.429688 8.75 -8.078125 C 8.75 -7.734375 8.753906 -7.382812 8.765625 -7.03125 C 8.785156 -6.820312 8.789062 -6.609375 8.78125 -6.390625 C 8.769531 -6.171875 8.765625 -5.957031 8.765625 -5.75 C 8.785156 -5.695312 8.796875 -5.644531 8.796875 -5.59375 C 8.796875 -5.550781 8.800781 -5.507812 8.8125 -5.46875 C 8.863281 -5.3125 8.925781 -5.164062 9 -5.03125 C 9.070312 -4.90625 9.164062 -4.789062 9.28125 -4.6875 C 9.3125 -4.632812 9.34375 -4.585938 9.375 -4.546875 C 9.414062 -4.515625 9.453125 -4.484375 9.484375 -4.453125 C 9.515625 -4.378906 9.582031 -4.316406 9.6875 -4.265625 C 9.769531 -4.234375 9.84375 -4.203125 9.90625 -4.171875 C 9.96875 -4.140625 10.023438 -4.109375 10.078125 -4.078125 C 10.171875 -4.046875 10.25 -4.03125 10.3125 -4.03125 C 10.425781 -4.019531 10.535156 -4.015625 10.640625 -4.015625 C 10.742188 -4.015625 10.851562 -4.007812 10.96875 -4 C 11.050781 -4 11.132812 -4 11.21875 -4 C 11.3125 -4 11.394531 -4 11.46875 -4 C 11.957031 -4 12.441406 -4 12.921875 -4 C 13.398438 -4.007812 13.878906 -4 14.359375 -3.96875 C 14.554688 -3.96875 14.753906 -3.972656 14.953125 -3.984375 C 15.148438 -3.992188 15.351562 -4 15.5625 -4 C 15.675781 -4 15.785156 -4 15.890625 -4 C 16.003906 -4 16.113281 -4 16.21875 -4 Z M 16.21875 -4 "/></g></g></g><g fill="#ffffff" fill-opacity="1"><g transform="translate(139.243856, 28.671765)"><g><path d="M 20.9375 -5.65625 C 21.050781 -5.53125 21.164062 -5.40625 21.28125 -5.28125 C 21.40625 -5.15625 21.519531 -5.035156 21.625 -4.921875 C 21.726562 -4.804688 21.835938 -4.6875 21.953125 -4.5625 C 22.066406 -4.445312 22.179688 -4.328125 22.296875 -4.203125 C 22.460938 -4.046875 22.625 -3.875 22.78125 -3.6875 C 22.9375 -3.507812 23.085938 -3.332031 23.234375 -3.15625 C 23.359375 -3.039062 23.472656 -2.910156 23.578125 -2.765625 C 23.691406 -2.628906 23.816406 -2.5 23.953125 -2.375 C 24.078125 -2.25 24.207031 -2.117188 24.34375 -1.984375 C 24.488281 -1.847656 24.617188 -1.707031 24.734375 -1.5625 C 24.890625 -1.425781 25.039062 -1.285156 25.1875 -1.140625 C 25.332031 -0.992188 25.472656 -0.851562 25.609375 -0.71875 C 25.722656 -0.601562 25.828125 -0.5 25.921875 -0.40625 C 26.015625 -0.320312 26.101562 -0.222656 26.1875 -0.109375 C 26.1875 -0.109375 26.1875 -0.101562 26.1875 -0.09375 C 26.1875 -0.09375 26.195312 -0.0820312 26.21875 -0.0625 C 26.1875 -0.0625 26.160156 -0.0625 26.140625 -0.0625 C 26.128906 -0.0625 26.109375 -0.0625 26.078125 -0.0625 C 25.878906 -0.0625 25.675781 -0.0625 25.46875 -0.0625 C 25.269531 -0.0625 25.070312 -0.0625 24.875 -0.0625 C 24.707031 -0.0507812 24.535156 -0.0390625 24.359375 -0.03125 C 24.179688 -0.0195312 24 -0.0234375 23.8125 -0.046875 C 23.707031 -0.046875 23.597656 -0.046875 23.484375 -0.046875 C 23.367188 -0.0546875 23.25 -0.0625 23.125 -0.0625 C 23.050781 -0.0625 22.972656 -0.0546875 22.890625 -0.046875 C 22.816406 -0.046875 22.738281 -0.046875 22.65625 -0.046875 C 22.601562 -0.046875 22.539062 -0.046875 22.46875 -0.046875 C 22.394531 -0.046875 22.320312 -0.046875 22.25 -0.046875 C 21.644531 -0.078125 21.046875 -0.0859375 20.453125 -0.078125 C 19.867188 -0.0664062 19.273438 -0.0625 18.671875 -0.0625 C 18.617188 -0.0625 18.566406 -0.0625 18.515625 -0.0625 C 18.460938 -0.0625 18.414062 -0.0625 18.375 -0.0625 C 18.351562 -0.0625 18.332031 -0.0546875 18.3125 -0.046875 C 18.289062 -0.046875 18.265625 -0.046875 18.234375 -0.046875 C 18.210938 -0.046875 18.191406 -0.046875 18.171875 -0.046875 C 18.148438 -0.046875 18.125 -0.046875 18.09375 -0.046875 C 18 -0.046875 17.90625 -0.046875 17.8125 -0.046875 C 17.71875 -0.0546875 17.628906 -0.0625 17.546875 -0.0625 C 17.492188 -0.125 17.441406 -0.179688 17.390625 -0.234375 C 17.335938 -0.296875 17.28125 -0.359375 17.21875 -0.421875 C 17.125 -0.535156 17.023438 -0.65625 16.921875 -0.78125 C 16.828125 -0.90625 16.734375 -1.019531 16.640625 -1.125 C 16.578125 -1.1875 16.519531 -1.25 16.46875 -1.3125 C 16.425781 -1.375 16.375 -1.4375 16.3125 -1.5 C 16.238281 -1.59375 16.15625 -1.6875 16.0625 -1.78125 C 15.96875 -1.882812 15.882812 -1.984375 15.8125 -2.078125 C 15.71875 -2.203125 15.617188 -2.316406 15.515625 -2.421875 C 15.421875 -2.523438 15.328125 -2.632812 15.234375 -2.75 C 15.210938 -2.78125 15.191406 -2.804688 15.171875 -2.828125 C 15.160156 -2.847656 15.140625 -2.875 15.109375 -2.90625 C 15.066406 -2.976562 15.019531 -3.050781 14.96875 -3.125 C 14.914062 -3.207031 14.859375 -3.28125 14.796875 -3.34375 C 14.734375 -3.40625 14.675781 -3.46875 14.625 -3.53125 C 14.582031 -3.59375 14.53125 -3.65625 14.46875 -3.71875 C 14.457031 -3.75 14.4375 -3.78125 14.40625 -3.8125 C 14.375 -3.84375 14.34375 -3.875 14.3125 -3.90625 C 14.25 -3.976562 14.1875 -4.050781 14.125 -4.125 C 14.0625 -4.207031 14 -4.28125 13.9375 -4.34375 C 13.707031 -4.570312 13.523438 -4.785156 13.390625 -4.984375 C 13.367188 -5.015625 13.332031 -5.046875 13.28125 -5.078125 C 13.238281 -5.117188 13.203125 -5.15625 13.171875 -5.1875 C 13.128906 -5.238281 13.082031 -5.289062 13.03125 -5.34375 C 12.988281 -5.394531 12.9375 -5.445312 12.875 -5.5 C 12.863281 -5.5 12.84375 -5.5 12.8125 -5.5 C 12.789062 -5.5 12.765625 -5.5 12.734375 -5.5 C 12.265625 -5.5 11.789062 -5.5 11.3125 -5.5 C 10.832031 -5.5 10.351562 -5.5 9.875 -5.5 C 9.738281 -5.507812 9.601562 -5.515625 9.46875 -5.515625 C 9.34375 -5.515625 9.207031 -5.515625 9.0625 -5.515625 C 9.007812 -5.515625 8.941406 -5.515625 8.859375 -5.515625 C 8.785156 -5.515625 8.707031 -5.507812 8.625 -5.5 C 8.625 -5.476562 8.617188 -5.460938 8.609375 -5.453125 C 8.609375 -5.453125 8.609375 -5.441406 8.609375 -5.421875 C 8.609375 -5.128906 8.609375 -4.84375 8.609375 -4.5625 C 8.609375 -4.289062 8.609375 -4.007812 8.609375 -3.71875 C 8.609375 -3.632812 8.609375 -3.550781 8.609375 -3.46875 C 8.617188 -3.382812 8.617188 -3.304688 8.609375 -3.234375 C 8.585938 -3.140625 8.582031 -3.050781 8.59375 -2.96875 C 8.601562 -2.882812 8.597656 -2.796875 8.578125 -2.703125 C 8.566406 -2.472656 8.5625 -2.238281 8.5625 -2 C 8.5625 -1.769531 8.5625 -1.539062 8.5625 -1.3125 C 8.539062 -1.1875 8.523438 -1.054688 8.515625 -0.921875 C 8.515625 -0.796875 8.515625 -0.664062 8.515625 -0.53125 C 8.503906 -0.5 8.5 -0.457031 8.5 -0.40625 C 8.507812 -0.363281 8.507812 -0.3125 8.5 -0.25 C 8.5 -0.238281 8.5 -0.21875 8.5 -0.1875 C 8.5 -0.164062 8.5 -0.140625 8.5 -0.109375 C 8.4375 -0.109375 8.378906 -0.101562 8.328125 -0.09375 C 8.285156 -0.09375 8.234375 -0.09375 8.171875 -0.09375 C 8.015625 -0.09375 7.867188 -0.09375 7.734375 -0.09375 C 7.597656 -0.101562 7.453125 -0.101562 7.296875 -0.09375 C 7.097656 -0.0703125 6.90625 -0.0664062 6.71875 -0.078125 C 6.53125 -0.0859375 6.335938 -0.0820312 6.140625 -0.0625 C 5.691406 -0.0507812 5.238281 -0.046875 4.78125 -0.046875 C 4.332031 -0.046875 3.882812 -0.046875 3.4375 -0.046875 C 3.332031 -0.046875 3.222656 -0.0390625 3.109375 -0.03125 C 2.992188 -0.0195312 2.878906 -0.015625 2.765625 -0.015625 C 2.660156 -0.015625 2.550781 -0.0195312 2.4375 -0.03125 C 2.332031 -0.0390625 2.21875 -0.0507812 2.09375 -0.0625 C 2.0625 -0.0625 2.023438 -0.0625 1.984375 -0.0625 C 1.941406 -0.0625 1.894531 -0.0625 1.84375 -0.0625 C 1.832031 -0.0625 1.804688 -0.0625 1.765625 -0.0625 C 1.722656 -0.0625 1.6875 -0.0625 1.65625 -0.0625 C 1.65625 -0.15625 1.65625 -0.242188 1.65625 -0.328125 C 1.65625 -0.421875 1.664062 -0.503906 1.6875 -0.578125 C 1.6875 -0.609375 1.6875 -0.625 1.6875 -0.625 C 1.6875 -0.632812 1.6875 -0.648438 1.6875 -0.671875 C 1.6875 -1.054688 1.6875 -1.4375 1.6875 -1.8125 C 1.695312 -2.1875 1.695312 -2.566406 1.6875 -2.953125 C 1.664062 -3.265625 1.65625 -3.578125 1.65625 -3.890625 C 1.65625 -4.203125 1.65625 -4.503906 1.65625 -4.796875 C 1.65625 -5.203125 1.65625 -5.597656 1.65625 -5.984375 C 1.65625 -6.378906 1.65625 -6.769531 1.65625 -7.15625 C 1.644531 -7.289062 1.632812 -7.425781 1.625 -7.5625 C 1.613281 -7.707031 1.617188 -7.84375 1.640625 -7.96875 C 1.648438 -8.226562 1.65625 -8.472656 1.65625 -8.703125 C 1.65625 -8.941406 1.65625 -9.1875 1.65625 -9.4375 C 1.65625 -9.6875 1.65625 -9.929688 1.65625 -10.171875 C 1.65625 -10.410156 1.65625 -10.648438 1.65625 -10.890625 C 1.644531 -11.210938 1.640625 -11.53125 1.640625 -11.84375 C 1.640625 -12.164062 1.640625 -12.488281 1.640625 -12.8125 C 1.640625 -13.113281 1.640625 -13.425781 1.640625 -13.75 C 1.640625 -14.070312 1.640625 -14.390625 1.640625 -14.703125 C 1.640625 -14.867188 1.640625 -15.035156 1.640625 -15.203125 C 1.640625 -15.378906 1.640625 -15.539062 1.640625 -15.6875 C 1.640625 -15.738281 1.640625 -15.78125 1.640625 -15.8125 C 1.648438 -15.851562 1.65625 -15.898438 1.65625 -15.953125 C 1.6875 -15.960938 1.707031 -15.972656 1.71875 -15.984375 C 1.738281 -16.003906 1.757812 -16.023438 1.78125 -16.046875 C 1.8125 -16.046875 1.832031 -16.046875 1.84375 -16.046875 C 1.863281 -16.046875 1.878906 -16.046875 1.890625 -16.046875 C 2.078125 -16.054688 2.265625 -16.0625 2.453125 -16.0625 C 2.648438 -16.0625 2.835938 -16.0625 3.015625 -16.0625 C 3.128906 -16.070312 3.234375 -16.070312 3.328125 -16.0625 C 3.421875 -16.0625 3.519531 -16.054688 3.625 -16.046875 C 3.695312 -16.046875 3.773438 -16.039062 3.859375 -16.03125 C 3.953125 -16.019531 4.035156 -16.023438 4.109375 -16.046875 C 4.140625 -16.046875 4.171875 -16.046875 4.203125 -16.046875 C 4.242188 -16.046875 4.28125 -16.046875 4.3125 -16.046875 C 4.476562 -16.046875 4.65625 -16.046875 4.84375 -16.046875 C 5.03125 -16.046875 5.207031 -16.050781 5.375 -16.0625 C 5.601562 -16.0625 5.832031 -16.0625 6.0625 -16.0625 C 6.300781 -16.070312 6.523438 -16.078125 6.734375 -16.078125 C 7.015625 -16.078125 7.289062 -16.078125 7.5625 -16.078125 C 7.84375 -16.078125 8.125 -16.070312 8.40625 -16.0625 C 8.90625 -16.050781 9.40625 -16.050781 9.90625 -16.0625 C 10.019531 -16.0625 10.144531 -16.0625 10.28125 -16.0625 C 10.414062 -16.070312 10.535156 -16.070312 10.640625 -16.0625 C 10.929688 -16.050781 11.222656 -16.050781 11.515625 -16.0625 C 12.347656 -16.09375 13.191406 -16.09375 14.046875 -16.0625 C 14.992188 -16.050781 15.9375 -16.046875 16.875 -16.046875 C 17.820312 -16.054688 18.765625 -16.054688 19.703125 -16.046875 C 19.796875 -16.046875 19.890625 -16.039062 19.984375 -16.03125 C 20.078125 -16.019531 20.171875 -16.007812 20.265625 -16 C 20.328125 -16 20.390625 -16 20.453125 -16 C 20.515625 -16 20.570312 -16 20.625 -16 C 20.832031 -16 21.023438 -15.972656 21.203125 -15.921875 C 21.554688 -15.859375 21.882812 -15.765625 22.1875 -15.640625 C 22.5 -15.523438 22.8125 -15.390625 23.125 -15.234375 C 23.320312 -15.117188 23.519531 -14.988281 23.71875 -14.84375 C 23.75 -14.820312 23.785156 -14.800781 23.828125 -14.78125 C 23.867188 -14.757812 23.894531 -14.734375 23.90625 -14.703125 C 24.03125 -14.578125 24.15625 -14.441406 24.28125 -14.296875 C 24.414062 -14.160156 24.546875 -14.023438 24.671875 -13.890625 C 24.796875 -13.734375 24.890625 -13.585938 24.953125 -13.453125 C 24.992188 -13.359375 25.035156 -13.269531 25.078125 -13.1875 C 25.128906 -13.113281 25.171875 -13.035156 25.203125 -12.953125 C 25.234375 -12.859375 25.265625 -12.757812 25.296875 -12.65625 C 25.335938 -12.5625 25.367188 -12.457031 25.390625 -12.34375 C 25.421875 -12.21875 25.445312 -12.085938 25.46875 -11.953125 C 25.488281 -11.816406 25.507812 -11.6875 25.53125 -11.5625 C 25.570312 -11.332031 25.585938 -11.101562 25.578125 -10.875 C 25.578125 -10.644531 25.578125 -10.410156 25.578125 -10.171875 C 25.578125 -10.140625 25.5625 -10.082031 25.53125 -10 C 25.46875 -9.726562 25.382812 -9.460938 25.28125 -9.203125 C 25.175781 -8.941406 25.066406 -8.679688 24.953125 -8.421875 C 24.921875 -8.359375 24.890625 -8.300781 24.859375 -8.25 C 24.835938 -8.195312 24.8125 -8.140625 24.78125 -8.078125 C 24.601562 -7.691406 24.359375 -7.34375 24.046875 -7.03125 C 23.984375 -6.976562 23.914062 -6.921875 23.84375 -6.859375 C 23.78125 -6.796875 23.71875 -6.734375 23.65625 -6.671875 C 23.550781 -6.585938 23.441406 -6.515625 23.328125 -6.453125 C 23.222656 -6.398438 23.109375 -6.34375 22.984375 -6.28125 C 22.566406 -6.0625 22.117188 -5.890625 21.640625 -5.765625 C 21.535156 -5.753906 21.4375 -5.742188 21.34375 -5.734375 C 21.25 -5.722656 21.148438 -5.703125 21.046875 -5.671875 C 21.003906 -5.671875 20.96875 -5.664062 20.9375 -5.65625 Z M 8.625 -9.6875 C 8.65625 -9.6875 8.679688 -9.6875 8.703125 -9.6875 C 8.734375 -9.6875 8.753906 -9.6875 8.765625 -9.6875 C 9.109375 -9.6875 9.441406 -9.6875 9.765625 -9.6875 C 10.085938 -9.6875 10.414062 -9.6875 10.75 -9.6875 C 10.78125 -9.6875 10.804688 -9.6875 10.828125 -9.6875 C 10.859375 -9.6875 10.878906 -9.6875 10.890625 -9.6875 C 11.015625 -9.71875 11.132812 -9.734375 11.25 -9.734375 C 11.363281 -9.734375 11.484375 -9.734375 11.609375 -9.734375 C 12.421875 -9.734375 13.234375 -9.738281 14.046875 -9.75 C 14.867188 -9.757812 15.6875 -9.75 16.5 -9.71875 C 16.53125 -9.71875 16.566406 -9.71875 16.609375 -9.71875 C 16.660156 -9.726562 16.703125 -9.734375 16.734375 -9.734375 C 16.773438 -9.753906 16.816406 -9.765625 16.859375 -9.765625 C 16.910156 -9.765625 16.960938 -9.769531 17.015625 -9.78125 C 17.378906 -9.84375 17.628906 -10.066406 17.765625 -10.453125 C 17.796875 -10.523438 17.8125 -10.601562 17.8125 -10.6875 C 17.8125 -10.78125 17.804688 -10.875 17.796875 -10.96875 C 17.679688 -11.289062 17.492188 -11.519531 17.234375 -11.65625 C 17.171875 -11.6875 17.113281 -11.710938 17.0625 -11.734375 C 17.007812 -11.753906 16.945312 -11.773438 16.875 -11.796875 C 16.78125 -11.804688 16.691406 -11.816406 16.609375 -11.828125 C 16.523438 -11.847656 16.425781 -11.851562 16.3125 -11.84375 C 16.238281 -11.84375 16.15625 -11.84375 16.0625 -11.84375 C 15.96875 -11.851562 15.875 -11.859375 15.78125 -11.859375 C 15.75 -11.859375 15.710938 -11.863281 15.671875 -11.875 C 15.640625 -11.882812 15.601562 -11.878906 15.5625 -11.859375 C 15.40625 -11.847656 15.242188 -11.84375 15.078125 -11.84375 C 14.921875 -11.851562 14.753906 -11.84375 14.578125 -11.8125 C 14.273438 -11.832031 13.960938 -11.835938 13.640625 -11.828125 C 13.328125 -11.816406 13.019531 -11.820312 12.71875 -11.84375 C 12.53125 -11.851562 12.335938 -11.851562 12.140625 -11.84375 C 11.953125 -11.84375 11.765625 -11.847656 11.578125 -11.859375 C 11.273438 -11.890625 10.984375 -11.890625 10.703125 -11.859375 C 10.429688 -11.828125 10.148438 -11.828125 9.859375 -11.859375 C 9.828125 -11.890625 9.785156 -11.890625 9.734375 -11.859375 C 9.609375 -11.859375 9.476562 -11.851562 9.34375 -11.84375 C 9.21875 -11.84375 9.085938 -11.832031 8.953125 -11.8125 C 8.890625 -11.8125 8.832031 -11.8125 8.78125 -11.8125 C 8.726562 -11.8125 8.671875 -11.8125 8.609375 -11.8125 C 8.609375 -11.800781 8.609375 -11.78125 8.609375 -11.75 C 8.609375 -11.726562 8.609375 -11.710938 8.609375 -11.703125 C 8.609375 -11.640625 8.609375 -11.566406 8.609375 -11.484375 C 8.609375 -11.410156 8.609375 -11.335938 8.609375 -11.265625 C 8.609375 -11.097656 8.609375 -10.925781 8.609375 -10.75 C 8.609375 -10.582031 8.609375 -10.414062 8.609375 -10.25 C 8.578125 -10.0625 8.582031 -9.875 8.625 -9.6875 Z M 8.625 -9.6875 "/></g></g></g><g fill="#ffffff" fill-opacity="1"><g transform="translate(185.524751, 28.671765)"><g><path d="M 23.859375 -15.859375 C 23.847656 -15.835938 23.84375 -15.816406 23.84375 -15.796875 C 23.84375 -15.773438 23.84375 -15.75 23.84375 -15.71875 C 23.84375 -15.46875 23.835938 -15.21875 23.828125 -14.96875 C 23.816406 -14.726562 23.8125 -14.476562 23.8125 -14.21875 C 23.8125 -13.894531 23.8125 -13.570312 23.8125 -13.25 C 23.8125 -12.925781 23.8125 -12.609375 23.8125 -12.296875 C 23.8125 -12.222656 23.8125 -12.144531 23.8125 -12.0625 C 23.8125 -11.988281 23.804688 -11.914062 23.796875 -11.84375 C 23.734375 -11.820312 23.671875 -11.820312 23.609375 -11.84375 C 23.585938 -11.84375 23.5625 -11.84375 23.53125 -11.84375 C 23.507812 -11.84375 23.484375 -11.84375 23.453125 -11.84375 C 22.972656 -11.84375 22.5 -11.84375 22.03125 -11.84375 C 21.5625 -11.851562 21.085938 -11.851562 20.609375 -11.84375 C 20.179688 -11.820312 19.742188 -11.816406 19.296875 -11.828125 C 18.847656 -11.835938 18.398438 -11.832031 17.953125 -11.8125 C 17.847656 -11.8125 17.738281 -11.804688 17.625 -11.796875 C 17.519531 -11.796875 17.414062 -11.785156 17.3125 -11.765625 C 17.3125 -11.765625 17.304688 -11.765625 17.296875 -11.765625 C 17.285156 -11.765625 17.28125 -11.765625 17.28125 -11.765625 C 17.15625 -11.765625 17.03125 -11.757812 16.90625 -11.75 C 16.789062 -11.75 16.671875 -11.753906 16.546875 -11.765625 C 16.441406 -11.785156 16.332031 -11.796875 16.21875 -11.796875 C 16.101562 -11.796875 15.988281 -11.796875 15.875 -11.796875 C 15.863281 -11.796875 15.847656 -11.796875 15.828125 -11.796875 C 15.816406 -11.796875 15.796875 -11.796875 15.765625 -11.796875 C 15.765625 -11.773438 15.765625 -11.757812 15.765625 -11.75 C 15.765625 -11.488281 15.765625 -11.226562 15.765625 -10.96875 C 15.765625 -10.71875 15.765625 -10.460938 15.765625 -10.203125 C 15.765625 -10.109375 15.769531 -10.019531 15.78125 -9.9375 C 15.800781 -9.851562 15.800781 -9.769531 15.78125 -9.6875 C 15.769531 -9.539062 15.765625 -9.390625 15.765625 -9.234375 C 15.765625 -9.078125 15.765625 -8.914062 15.765625 -8.75 C 15.796875 -8.144531 15.800781 -7.535156 15.78125 -6.921875 C 15.769531 -6.316406 15.769531 -5.71875 15.78125 -5.125 C 15.769531 -4.925781 15.765625 -4.722656 15.765625 -4.515625 C 15.765625 -4.316406 15.765625 -4.117188 15.765625 -3.921875 C 15.742188 -3.585938 15.726562 -3.242188 15.71875 -2.890625 C 15.71875 -2.546875 15.722656 -2.195312 15.734375 -1.84375 C 15.753906 -1.601562 15.765625 -1.363281 15.765625 -1.125 C 15.765625 -0.882812 15.765625 -0.640625 15.765625 -0.390625 C 15.765625 -0.378906 15.765625 -0.367188 15.765625 -0.359375 C 15.765625 -0.347656 15.765625 -0.335938 15.765625 -0.328125 C 15.796875 -0.273438 15.800781 -0.222656 15.78125 -0.171875 C 15.769531 -0.128906 15.753906 -0.0859375 15.734375 -0.046875 C 15.640625 -0.046875 15.550781 -0.046875 15.46875 -0.046875 C 15.382812 -0.046875 15.296875 -0.046875 15.203125 -0.046875 C 14.960938 -0.015625 14.722656 0 14.484375 0 C 14.253906 -0.0078125 14.019531 -0.0078125 13.78125 0 C 13.070312 0 12.351562 0 11.625 0 C 10.90625 -0.0078125 10.1875 -0.015625 9.46875 -0.015625 C 9.382812 -0.015625 9.304688 -0.0078125 9.234375 0 C 9.171875 0 9.101562 0 9.03125 0 C 8.976562 0 8.929688 -0.00390625 8.890625 -0.015625 C 8.890625 -0.0976562 8.890625 -0.171875 8.890625 -0.234375 C 8.890625 -0.296875 8.890625 -0.359375 8.890625 -0.421875 C 8.867188 -0.628906 8.859375 -0.835938 8.859375 -1.046875 C 8.859375 -1.253906 8.859375 -1.46875 8.859375 -1.6875 C 8.847656 -1.78125 8.835938 -1.867188 8.828125 -1.953125 C 8.816406 -2.046875 8.8125 -2.148438 8.8125 -2.265625 C 8.800781 -2.273438 8.796875 -2.304688 8.796875 -2.359375 C 8.796875 -2.585938 8.796875 -2.8125 8.796875 -3.03125 C 8.796875 -3.257812 8.800781 -3.488281 8.8125 -3.71875 C 8.832031 -3.976562 8.835938 -4.238281 8.828125 -4.5 C 8.816406 -4.757812 8.820312 -5.015625 8.84375 -5.265625 C 8.84375 -5.367188 8.84375 -5.46875 8.84375 -5.5625 C 8.851562 -5.664062 8.867188 -5.773438 8.890625 -5.890625 C 8.890625 -5.972656 8.890625 -6.054688 8.890625 -6.140625 C 8.898438 -6.234375 8.890625 -6.328125 8.859375 -6.421875 C 8.847656 -6.460938 8.84375 -6.507812 8.84375 -6.5625 C 8.851562 -6.613281 8.859375 -6.664062 8.859375 -6.71875 C 8.859375 -6.84375 8.863281 -6.960938 8.875 -7.078125 C 8.882812 -7.203125 8.878906 -7.328125 8.859375 -7.453125 C 8.847656 -7.648438 8.84375 -7.84375 8.84375 -8.03125 C 8.851562 -8.226562 8.859375 -8.425781 8.859375 -8.625 C 8.859375 -8.738281 8.863281 -8.847656 8.875 -8.953125 C 8.882812 -9.054688 8.890625 -9.15625 8.890625 -9.25 C 8.867188 -9.53125 8.863281 -9.804688 8.875 -10.078125 C 8.882812 -10.359375 8.878906 -10.640625 8.859375 -10.921875 C 8.847656 -10.992188 8.84375 -11.070312 8.84375 -11.15625 C 8.84375 -11.238281 8.84375 -11.320312 8.84375 -11.40625 C 8.84375 -11.519531 8.847656 -11.601562 8.859375 -11.65625 C 8.859375 -11.6875 8.859375 -11.707031 8.859375 -11.71875 C 8.859375 -11.738281 8.859375 -11.753906 8.859375 -11.765625 C 8.816406 -11.765625 8.769531 -11.769531 8.71875 -11.78125 C 8.675781 -11.789062 8.628906 -11.796875 8.578125 -11.796875 C 8.472656 -11.804688 8.351562 -11.8125 8.21875 -11.8125 C 8.09375 -11.8125 7.96875 -11.8125 7.84375 -11.8125 C 7.507812 -11.8125 7.164062 -11.8125 6.8125 -11.8125 C 6.457031 -11.8125 6.101562 -11.820312 5.75 -11.84375 C 5.550781 -11.84375 5.347656 -11.84375 5.140625 -11.84375 C 4.941406 -11.851562 4.742188 -11.851562 4.546875 -11.84375 C 4.441406 -11.84375 4.328125 -11.84375 4.203125 -11.84375 C 4.085938 -11.84375 3.972656 -11.832031 3.859375 -11.8125 C 3.679688 -11.800781 3.503906 -11.789062 3.328125 -11.78125 C 3.148438 -11.769531 2.976562 -11.765625 2.8125 -11.765625 C 2.65625 -11.753906 2.492188 -11.75 2.328125 -11.75 C 2.160156 -11.75 1.992188 -11.75 1.828125 -11.75 C 1.710938 -11.75 1.597656 -11.75 1.484375 -11.75 C 1.367188 -11.757812 1.25 -11.765625 1.125 -11.765625 C 1.09375 -11.765625 1.054688 -11.769531 1.015625 -11.78125 C 0.984375 -11.789062 0.945312 -11.800781 0.90625 -11.8125 C 0.90625 -11.863281 0.898438 -11.914062 0.890625 -11.96875 C 0.878906 -12.019531 0.867188 -12.078125 0.859375 -12.140625 C 0.835938 -12.359375 0.832031 -12.570312 0.84375 -12.78125 C 0.851562 -13 0.847656 -13.21875 0.828125 -13.4375 C 0.828125 -13.507812 0.828125 -13.578125 0.828125 -13.640625 C 0.828125 -13.710938 0.828125 -13.789062 0.828125 -13.875 C 0.828125 -14.039062 0.828125 -14.195312 0.828125 -14.34375 C 0.828125 -14.5 0.820312 -14.65625 0.8125 -14.8125 C 0.8125 -14.894531 0.8125 -14.960938 0.8125 -15.015625 C 0.8125 -15.066406 0.8125 -15.125 0.8125 -15.1875 C 0.820312 -15.257812 0.832031 -15.335938 0.84375 -15.421875 C 0.851562 -15.515625 0.859375 -15.597656 0.859375 -15.671875 C 0.859375 -15.734375 0.859375 -15.785156 0.859375 -15.828125 C 0.859375 -15.878906 0.859375 -15.925781 0.859375 -15.96875 C 0.898438 -15.988281 0.976562 -16 1.09375 -16 C 1.207031 -16 1.28125 -16 1.3125 -16 C 1.375 -15.976562 1.4375 -15.960938 1.5 -15.953125 C 1.5625 -15.953125 1.625 -15.953125 1.6875 -15.953125 C 1.894531 -15.953125 2.097656 -15.953125 2.296875 -15.953125 C 2.503906 -15.953125 2.707031 -15.957031 2.90625 -15.96875 C 3 -15.988281 3.09375 -15.992188 3.1875 -15.984375 C 3.28125 -15.972656 3.375 -15.976562 3.46875 -16 C 3.695312 -16.03125 3.925781 -16.046875 4.15625 -16.046875 C 4.394531 -16.046875 4.640625 -16.035156 4.890625 -16.015625 C 5.296875 -16.003906 5.695312 -16 6.09375 -16 C 6.488281 -16.007812 6.878906 -16.007812 7.265625 -16 C 7.390625 -15.976562 7.519531 -15.972656 7.65625 -15.984375 C 7.800781 -15.992188 7.929688 -15.988281 8.046875 -15.96875 C 8.285156 -15.957031 8.519531 -15.953125 8.75 -15.953125 C 8.976562 -15.953125 9.203125 -15.953125 9.421875 -15.953125 C 9.523438 -15.953125 9.625 -15.953125 9.71875 -15.953125 C 9.820312 -15.960938 9.925781 -15.96875 10.03125 -15.96875 C 10.144531 -15.96875 10.25 -15.972656 10.34375 -15.984375 C 10.445312 -15.992188 10.550781 -16 10.65625 -16 C 10.800781 -16.007812 10.941406 -16.015625 11.078125 -16.015625 C 11.210938 -16.015625 11.351562 -16.015625 11.5 -16.015625 C 11.632812 -16.015625 11.773438 -16.003906 11.921875 -15.984375 C 12.066406 -15.972656 12.207031 -15.96875 12.34375 -15.96875 C 12.507812 -15.96875 12.671875 -15.96875 12.828125 -15.96875 C 12.984375 -15.96875 13.140625 -15.976562 13.296875 -16 C 13.328125 -16 13.351562 -16 13.375 -16 C 13.394531 -16 13.414062 -16 13.4375 -16 C 13.832031 -16 14.234375 -16 14.640625 -16 C 15.046875 -16 15.441406 -16 15.828125 -16 C 15.910156 -16 15.976562 -16 16.03125 -16 C 16.09375 -16 16.15625 -16 16.21875 -16 C 16.332031 -16 16.429688 -16 16.515625 -16 C 16.609375 -16 16.710938 -16 16.828125 -16 C 16.867188 -16 16.910156 -16 16.953125 -16 C 17.003906 -16 17.050781 -16 17.09375 -16 C 17.40625 -16 17.71875 -16 18.03125 -16 C 18.351562 -16 18.660156 -16 18.953125 -16 C 19.097656 -16 19.238281 -16 19.375 -16 C 19.519531 -16.007812 19.660156 -16.015625 19.796875 -16.015625 C 20.203125 -16.003906 20.609375 -16 21.015625 -16 C 21.421875 -16.007812 21.832031 -16.007812 22.25 -16 C 22.507812 -15.976562 22.773438 -15.972656 23.046875 -15.984375 C 23.328125 -15.992188 23.597656 -15.988281 23.859375 -15.96875 C 23.859375 -15.957031 23.859375 -15.941406 23.859375 -15.921875 C 23.859375 -15.910156 23.859375 -15.890625 23.859375 -15.859375 Z M 23.859375 -15.859375 "/></g></g></g></g></g></g></svg>