<svg xmlns="http://www.w3.org/2000/svg" xmlns:xlink="http://www.w3.org/1999/xlink" width="660" zoomAndPan="magnify" viewBox="0 0 495 112.499997" height="150" preserveAspectRatio="xMidYMid meet" version="1.0"><defs><g/><clipPath id="83e7abd78b"><path d="M 30 0 L 313 0 L 313 112.003906 L 30 112.003906 Z M 30 0 " clip-rule="nonzero"/></clipPath><clipPath id="df57d09492"><rect x="0" width="283" y="0" height="113"/></clipPath><clipPath id="f555b89e0c"><path d="M 309.332031 2.34375 L 467.628906 2.34375 L 467.628906 83.730469 L 309.332031 83.730469 Z M 309.332031 2.34375 " clip-rule="nonzero"/></clipPath><clipPath id="db8f1d329a"><rect x="0" width="174" y="0" height="29"/></clipPath></defs><g clip-path="url(#83e7abd78b)"><g transform="matrix(1, 0, 0, 1, 30, 0)"><g clip-path="url(#df57d09492)"><g fill="#ffffff" fill-opacity="1"><g transform="translate(0.752709, 81.851598)"><g><path d="M 1.171875 18.046875 L 1.171875 -12.8125 L 13.59375 -12.8125 C 14.90625 -12.8125 15.5625 -13.46875 15.5625 -14.78125 L 15.5625 -73.34375 L 47.71875 -73.34375 L 47.71875 -15.953125 C 47.71875 -9.148438 46.234375 -3.203125 43.265625 1.890625 C 40.304688 6.992188 36.210938 10.960938 30.984375 13.796875 C 25.753906 16.628906 19.695312 18.046875 12.8125 18.046875 Z M 1.171875 18.046875 "/></g></g></g><g fill="#ffffff" fill-opacity="1"><g transform="translate(49.777066, 81.851598)"><g><path d="M 42.890625 -33.078125 C 44.804688 -34.128906 45.9375 -35.585938 46.28125 -37.453125 C 46.632812 -39.328125 46.222656 -41.023438 45.046875 -42.546875 C 43.867188 -44.078125 41.925781 -44.84375 39.21875 -44.84375 C 36.957031 -44.9375 35.238281 -44.304688 34.0625 -42.953125 C 32.882812 -41.597656 32.273438 -40.023438 32.234375 -38.234375 C 32.191406 -36.453125 32.710938 -34.863281 33.796875 -33.46875 C 34.890625 -32.070312 36.613281 -31.375 38.96875 -31.375 L 75.96875 -31.375 L 75.96875 0 L 38.96875 0 C 33.738281 0 28.851562 -0.976562 24.3125 -2.9375 C 19.78125 -4.90625 15.769531 -7.628906 12.28125 -11.109375 C 8.800781 -14.597656 6.078125 -18.609375 4.109375 -23.140625 C 2.148438 -27.671875 1.171875 -32.550781 1.171875 -37.78125 C 1.171875 -44.664062 2.71875 -50.941406 5.8125 -56.609375 C 8.90625 -62.273438 13.304688 -66.828125 19.015625 -70.265625 C 24.734375 -73.710938 31.515625 -75.484375 39.359375 -75.578125 C 43.453125 -75.578125 47.566406 -75.179688 51.703125 -74.390625 C 55.847656 -73.609375 59.75 -72.128906 63.40625 -69.953125 C 67.070312 -67.773438 70.125 -64.550781 72.5625 -60.28125 C 73.613281 -58.445312 74.378906 -56.265625 74.859375 -53.734375 C 75.335938 -51.210938 75.507812 -48.617188 75.375 -45.953125 C 75.25 -43.296875 74.707031 -40.8125 73.75 -38.5 C 72.789062 -36.195312 71.304688 -34.390625 69.296875 -33.078125 Z M 42.890625 -33.078125 "/></g></g></g><g fill="#ffffff" fill-opacity="1"><g transform="translate(126.908706, 81.851598)"><g><path d="M 1.171875 0 L 1.171875 -30.46875 L 16.859375 -30.46875 C 16.691406 -30.8125 16.5 -31.132812 16.28125 -31.4375 C 16.0625 -31.75 15.863281 -32.035156 15.6875 -32.296875 L 6.796875 -32.296875 C 3.742188 -36.648438 2.128906 -41.222656 1.953125 -46.015625 C 1.785156 -50.816406 2.660156 -55.046875 4.578125 -58.703125 C 6.753906 -62.890625 9.519531 -66.050781 12.875 -68.1875 C 16.226562 -70.320312 20.0625 -71.738281 24.375 -72.4375 C 28.695312 -73.132812 33.34375 -73.484375 38.3125 -73.484375 L 75.578125 -73.484375 L 75.578125 -43.9375 L 38.3125 -43.9375 C 35.78125 -43.9375 33.835938 -43.039062 32.484375 -41.25 C 31.140625 -39.46875 30.640625 -37.570312 30.984375 -35.5625 C 31.335938 -33.988281 32.144531 -32.546875 33.40625 -31.234375 C 34.664062 -29.929688 36.390625 -29.28125 38.578125 -29.28125 C 41.191406 -29.28125 43.0625 -30.128906 44.1875 -31.828125 C 45.320312 -33.535156 45.710938 -35.429688 45.359375 -37.515625 C 45.015625 -39.609375 43.84375 -41.132812 41.84375 -42.09375 L 67.984375 -42.09375 C 70.867188 -39.050781 72.832031 -35.847656 73.875 -32.484375 C 74.914062 -29.128906 75.285156 -25.882812 74.984375 -22.75 C 74.679688 -19.613281 73.875 -16.78125 72.5625 -14.25 C 70.382812 -10.0625 67.59375 -6.96875 64.1875 -4.96875 C 60.789062 -2.96875 56.914062 -1.640625 52.5625 -0.984375 C 48.207031 -0.328125 43.546875 0 38.578125 0 Z M 1.171875 0 "/></g></g></g><g fill="#ffffff" fill-opacity="1"><g transform="translate(203.648165, 81.851598)"><g><path d="M 39.09375 -75.578125 C 44.320312 -75.578125 49.203125 -74.59375 53.734375 -72.625 C 58.265625 -70.664062 62.273438 -67.960938 65.765625 -64.515625 C 69.253906 -61.078125 71.976562 -57.066406 73.9375 -52.484375 C 75.894531 -47.910156 76.875 -43.007812 76.875 -37.78125 L 76.875 0 L 45.5 0 L 45.5 -37.78125 C 45.5 -39.53125 44.863281 -41.054688 43.59375 -42.359375 C 42.332031 -43.671875 40.832031 -44.328125 39.09375 -44.328125 C 37.257812 -44.328125 35.710938 -43.671875 34.453125 -42.359375 C 33.191406 -41.054688 32.5625 -39.53125 32.5625 -37.78125 C 32.5625 -36.039062 33.191406 -34.515625 34.453125 -33.203125 C 35.710938 -31.898438 37.257812 -31.25 39.09375 -31.25 L 43.671875 -31.25 L 43.671875 0 L 39.09375 0 C 33.863281 0 28.957031 -0.976562 24.375 -2.9375 C 19.800781 -4.90625 15.789062 -7.628906 12.34375 -11.109375 C 8.90625 -14.597656 6.207031 -18.609375 4.25 -23.140625 C 2.289062 -27.671875 1.3125 -32.550781 1.3125 -37.78125 C 1.3125 -43.007812 2.289062 -47.910156 4.25 -52.484375 C 6.207031 -57.066406 8.90625 -61.078125 12.34375 -64.515625 C 15.789062 -67.960938 19.800781 -70.664062 24.375 -72.625 C 28.957031 -74.59375 33.863281 -75.578125 39.09375 -75.578125 Z M 39.09375 -75.578125 "/></g></g></g></g></g></g><g clip-path="url(#f555b89e0c)"><path fill="#ffffff" d="M 309.273438 43.398438 L 309.273438 42.765625 C 382.503906 42.765625 387.828125 36.667969 387.828125 2.433594 L 389.042969 2.433594 C 389.042969 36.667969 394.375 42.765625 467.605469 42.765625 L 467.605469 43.398438 C 394.375 43.398438 389.042969 49.488281 389.042969 83.722656 L 387.828125 83.722656 C 387.828125 49.488281 382.503906 43.398438 309.273438 43.398438 " fill-opacity="1" fill-rule="evenodd"/></g><g transform="matrix(1, 0, 0, 1, 153, 77)"><g clip-path="url(#db8f1d329a)"><g fill="#ffffff" fill-opacity="1"><g transform="translate(0.842036, 22.016463)"><g><path d="M 1.609375 -0.03125 C 1.585938 -0.113281 1.578125 -0.191406 1.578125 -0.265625 C 1.578125 -0.347656 1.570312 -0.421875 1.5625 -0.484375 C 1.550781 -0.640625 1.546875 -0.789062 1.546875 -0.9375 C 1.546875 -1.082031 1.546875 -1.226562 1.546875 -1.375 C 1.566406 -1.6875 1.570312 -1.992188 1.5625 -2.296875 C 1.5625 -2.609375 1.5625 -2.914062 1.5625 -3.21875 C 1.5625 -3.25 1.5625 -3.269531 1.5625 -3.28125 C 1.5625 -3.289062 1.5625 -3.300781 1.5625 -3.3125 C 1.59375 -3.3125 1.613281 -3.3125 1.625 -3.3125 C 1.632812 -3.3125 1.644531 -3.3125 1.65625 -3.3125 C 1.75 -3.3125 1.84375 -3.3125 1.9375 -3.3125 C 2.03125 -3.3125 2.113281 -3.304688 2.1875 -3.296875 C 2.46875 -3.285156 2.75 -3.28125 3.03125 -3.28125 C 3.320312 -3.289062 3.609375 -3.296875 3.890625 -3.296875 C 4.179688 -3.285156 4.460938 -3.28125 4.734375 -3.28125 C 5.015625 -3.289062 5.300781 -3.289062 5.59375 -3.28125 C 5.894531 -3.269531 6.195312 -3.265625 6.5 -3.265625 C 6.8125 -3.273438 7.117188 -3.273438 7.421875 -3.265625 C 7.515625 -3.265625 7.601562 -3.265625 7.6875 -3.265625 C 7.78125 -3.265625 7.863281 -3.253906 7.9375 -3.234375 C 8.03125 -3.222656 8.117188 -3.21875 8.203125 -3.21875 C 8.285156 -3.21875 8.367188 -3.21875 8.453125 -3.21875 C 8.609375 -3.21875 8.769531 -3.210938 8.9375 -3.203125 C 9.101562 -3.203125 9.265625 -3.203125 9.421875 -3.203125 C 9.546875 -3.203125 9.671875 -3.203125 9.796875 -3.203125 C 9.929688 -3.203125 10.0625 -3.203125 10.1875 -3.203125 C 10.195312 -3.203125 10.207031 -3.195312 10.21875 -3.1875 C 10.238281 -3.1875 10.253906 -3.1875 10.265625 -3.1875 C 10.347656 -3.175781 10.425781 -3.175781 10.5 -3.1875 C 10.539062 -3.195312 10.578125 -3.203125 10.609375 -3.203125 C 10.648438 -3.203125 10.691406 -3.203125 10.734375 -3.203125 C 10.859375 -3.191406 10.988281 -3.179688 11.125 -3.171875 C 11.269531 -3.171875 11.410156 -3.171875 11.546875 -3.171875 C 11.597656 -3.171875 11.644531 -3.164062 11.6875 -3.15625 C 11.738281 -3.15625 11.785156 -3.15625 11.828125 -3.15625 C 11.960938 -3.15625 12.101562 -3.171875 12.25 -3.203125 C 12.289062 -3.203125 12.332031 -3.203125 12.375 -3.203125 C 12.425781 -3.203125 12.476562 -3.207031 12.53125 -3.21875 C 12.625 -3.226562 12.722656 -3.238281 12.828125 -3.25 C 12.929688 -3.269531 13.019531 -3.296875 13.09375 -3.328125 C 13.3125 -3.421875 13.441406 -3.5625 13.484375 -3.75 C 13.492188 -3.769531 13.5 -3.789062 13.5 -3.8125 C 13.507812 -3.832031 13.515625 -3.859375 13.515625 -3.890625 C 13.515625 -3.921875 13.515625 -3.953125 13.515625 -3.984375 C 13.515625 -4.023438 13.515625 -4.0625 13.515625 -4.09375 C 13.484375 -4.1875 13.429688 -4.25 13.359375 -4.28125 C 13.296875 -4.320312 13.222656 -4.347656 13.140625 -4.359375 C 13.066406 -4.378906 12.992188 -4.390625 12.921875 -4.390625 C 12.859375 -4.398438 12.785156 -4.410156 12.703125 -4.421875 C 12.585938 -4.429688 12.46875 -4.4375 12.34375 -4.4375 C 12.21875 -4.4375 12.09375 -4.441406 11.96875 -4.453125 C 11.875 -4.472656 11.773438 -4.476562 11.671875 -4.46875 C 11.566406 -4.457031 11.46875 -4.460938 11.375 -4.484375 C 11.164062 -4.503906 10.957031 -4.507812 10.75 -4.5 C 10.539062 -4.5 10.332031 -4.5 10.125 -4.5 C 9.726562 -4.5 9.332031 -4.5 8.9375 -4.5 C 8.539062 -4.5 8.144531 -4.5 7.75 -4.5 C 7.601562 -4.5 7.453125 -4.5 7.296875 -4.5 C 7.140625 -4.507812 6.976562 -4.519531 6.8125 -4.53125 C 6.625 -4.539062 6.429688 -4.539062 6.234375 -4.53125 C 6.035156 -4.53125 5.835938 -4.535156 5.640625 -4.546875 C 5.554688 -4.546875 5.472656 -4.546875 5.390625 -4.546875 C 5.316406 -4.546875 5.238281 -4.550781 5.15625 -4.5625 C 5.144531 -4.5625 5.128906 -4.5625 5.109375 -4.5625 C 5.097656 -4.570312 5.078125 -4.578125 5.046875 -4.578125 C 5.003906 -4.585938 4.957031 -4.59375 4.90625 -4.59375 C 4.863281 -4.59375 4.8125 -4.59375 4.75 -4.59375 C 4.695312 -4.601562 4.640625 -4.613281 4.578125 -4.625 C 4.515625 -4.632812 4.453125 -4.644531 4.390625 -4.65625 C 4.347656 -4.664062 4.300781 -4.671875 4.25 -4.671875 C 4.207031 -4.679688 4.160156 -4.691406 4.109375 -4.703125 C 4.003906 -4.710938 3.898438 -4.734375 3.796875 -4.765625 C 3.703125 -4.796875 3.601562 -4.828125 3.5 -4.859375 C 3.382812 -4.890625 3.269531 -4.9375 3.15625 -5 C 3.039062 -5.0625 2.925781 -5.128906 2.8125 -5.203125 C 2.789062 -5.222656 2.773438 -5.234375 2.765625 -5.234375 C 2.753906 -5.242188 2.742188 -5.253906 2.734375 -5.265625 C 2.628906 -5.316406 2.53125 -5.378906 2.4375 -5.453125 C 2.351562 -5.523438 2.269531 -5.59375 2.1875 -5.65625 C 2.144531 -5.707031 2.097656 -5.753906 2.046875 -5.796875 C 2.003906 -5.847656 1.960938 -5.894531 1.921875 -5.9375 C 1.847656 -6.007812 1.785156 -6.085938 1.734375 -6.171875 C 1.691406 -6.265625 1.65625 -6.347656 1.625 -6.421875 C 1.5625 -6.585938 1.503906 -6.75 1.453125 -6.90625 C 1.398438 -7.0625 1.359375 -7.222656 1.328125 -7.390625 C 1.316406 -7.441406 1.304688 -7.492188 1.296875 -7.546875 C 1.296875 -7.609375 1.28125 -7.664062 1.25 -7.71875 C 1.25 -7.78125 1.242188 -7.835938 1.234375 -7.890625 C 1.234375 -7.953125 1.226562 -8.003906 1.21875 -8.046875 C 1.21875 -8.109375 1.21875 -8.171875 1.21875 -8.234375 C 1.226562 -8.304688 1.234375 -8.378906 1.234375 -8.453125 C 1.234375 -8.460938 1.234375 -8.472656 1.234375 -8.484375 C 1.234375 -8.492188 1.234375 -8.503906 1.234375 -8.515625 C 1.234375 -8.722656 1.253906 -8.921875 1.296875 -9.109375 C 1.347656 -9.304688 1.410156 -9.5 1.484375 -9.6875 C 1.578125 -9.925781 1.679688 -10.144531 1.796875 -10.34375 C 1.835938 -10.414062 1.878906 -10.476562 1.921875 -10.53125 C 1.972656 -10.59375 2.023438 -10.65625 2.078125 -10.71875 C 2.148438 -10.8125 2.226562 -10.894531 2.3125 -10.96875 C 2.40625 -11.039062 2.5 -11.117188 2.59375 -11.203125 C 2.65625 -11.234375 2.710938 -11.265625 2.765625 -11.296875 C 2.816406 -11.328125 2.863281 -11.351562 2.90625 -11.375 C 2.96875 -11.40625 3.023438 -11.4375 3.078125 -11.46875 C 3.140625 -11.5 3.191406 -11.523438 3.234375 -11.546875 C 3.378906 -11.628906 3.53125 -11.695312 3.6875 -11.75 C 3.84375 -11.800781 3.992188 -11.84375 4.140625 -11.875 C 4.234375 -11.90625 4.320312 -11.929688 4.40625 -11.953125 C 4.5 -11.972656 4.585938 -11.988281 4.671875 -12 C 4.722656 -12.007812 4.78125 -12.015625 4.84375 -12.015625 C 4.914062 -12.023438 4.976562 -12.039062 5.03125 -12.0625 C 5.101562 -12.070312 5.171875 -12.078125 5.234375 -12.078125 C 5.304688 -12.085938 5.378906 -12.09375 5.453125 -12.09375 C 5.546875 -12.09375 5.632812 -12.09375 5.71875 -12.09375 C 5.800781 -12.101562 5.878906 -12.097656 5.953125 -12.078125 C 5.984375 -12.078125 6.007812 -12.078125 6.03125 -12.078125 C 6.050781 -12.078125 6.070312 -12.078125 6.09375 -12.078125 C 6.394531 -12.066406 6.695312 -12.0625 7 -12.0625 C 7.300781 -12.0625 7.601562 -12.0625 7.90625 -12.0625 C 8.019531 -12.039062 8.140625 -12.035156 8.265625 -12.046875 C 8.390625 -12.054688 8.507812 -12.050781 8.625 -12.03125 C 8.820312 -12.019531 9.019531 -12.015625 9.21875 -12.015625 C 9.414062 -12.015625 9.617188 -12.015625 9.828125 -12.015625 C 9.878906 -12.003906 9.929688 -12.003906 9.984375 -12.015625 C 10.035156 -12.023438 10.09375 -12.03125 10.15625 -12.03125 C 10.257812 -12.03125 10.363281 -12.03125 10.46875 -12.03125 C 10.570312 -12.03125 10.675781 -12.03125 10.78125 -12.03125 C 10.882812 -12.019531 10.984375 -12.015625 11.078125 -12.015625 C 11.179688 -12.023438 11.273438 -12.039062 11.359375 -12.0625 C 11.398438 -12.0625 11.441406 -12.054688 11.484375 -12.046875 C 11.523438 -12.035156 11.570312 -12.039062 11.625 -12.0625 C 11.75 -12.082031 11.875 -12.085938 12 -12.078125 C 12.132812 -12.078125 12.257812 -12.078125 12.375 -12.078125 C 12.445312 -12.078125 12.519531 -12.070312 12.59375 -12.0625 C 12.675781 -12.0625 12.757812 -12.0625 12.84375 -12.0625 C 13.070312 -12.082031 13.296875 -12.085938 13.515625 -12.078125 C 13.734375 -12.078125 13.957031 -12.078125 14.1875 -12.078125 C 14.257812 -12.078125 14.332031 -12.082031 14.40625 -12.09375 C 14.476562 -12.101562 14.554688 -12.109375 14.640625 -12.109375 C 14.660156 -12.109375 14.671875 -12.109375 14.671875 -12.109375 C 14.671875 -12.109375 14.675781 -12.109375 14.6875 -12.109375 C 14.707031 -12.109375 14.726562 -12.109375 14.75 -12.109375 C 14.78125 -12.109375 14.800781 -12.109375 14.8125 -12.109375 C 14.976562 -12.109375 15.148438 -12.109375 15.328125 -12.109375 C 15.503906 -12.109375 15.679688 -12.101562 15.859375 -12.09375 C 16.128906 -12.082031 16.40625 -12.078125 16.6875 -12.078125 C 16.96875 -12.085938 17.25 -12.085938 17.53125 -12.078125 C 17.625 -12.078125 17.71875 -12.078125 17.8125 -12.078125 C 17.914062 -12.085938 18.007812 -12.09375 18.09375 -12.09375 C 18.125 -12.09375 18.148438 -12.09375 18.171875 -12.09375 C 18.191406 -12.09375 18.210938 -12.09375 18.234375 -12.09375 C 18.265625 -11.820312 18.269531 -11.554688 18.25 -11.296875 C 18.226562 -11.035156 18.21875 -10.769531 18.21875 -10.5 C 18.226562 -10.238281 18.234375 -9.976562 18.234375 -9.71875 C 18.234375 -9.457031 18.234375 -9.191406 18.234375 -8.921875 C 18.222656 -8.910156 18.203125 -8.90625 18.171875 -8.90625 C 18.109375 -8.90625 18.039062 -8.90625 17.96875 -8.90625 C 17.90625 -8.914062 17.84375 -8.914062 17.78125 -8.90625 C 17.65625 -8.894531 17.519531 -8.890625 17.375 -8.890625 C 17.238281 -8.898438 17.101562 -8.898438 16.96875 -8.890625 C 16.820312 -8.878906 16.664062 -8.875 16.5 -8.875 C 16.332031 -8.875 16.171875 -8.875 16.015625 -8.875 C 15.722656 -8.875 15.429688 -8.875 15.140625 -8.875 C 14.847656 -8.875 14.550781 -8.875 14.25 -8.875 C 14.144531 -8.875 14.039062 -8.878906 13.9375 -8.890625 C 13.832031 -8.898438 13.726562 -8.90625 13.625 -8.90625 C 13.539062 -8.90625 13.453125 -8.90625 13.359375 -8.90625 C 13.265625 -8.90625 13.171875 -8.898438 13.078125 -8.890625 C 13.066406 -8.890625 13.050781 -8.890625 13.03125 -8.890625 C 13.019531 -8.890625 13.003906 -8.890625 12.984375 -8.890625 C 12.742188 -8.890625 12.503906 -8.890625 12.265625 -8.890625 C 12.035156 -8.890625 11.800781 -8.890625 11.5625 -8.890625 C 11.425781 -8.910156 11.285156 -8.914062 11.140625 -8.90625 C 10.992188 -8.90625 10.859375 -8.910156 10.734375 -8.921875 C 10.578125 -8.929688 10.421875 -8.929688 10.265625 -8.921875 C 10.109375 -8.921875 9.953125 -8.925781 9.796875 -8.9375 C 9.710938 -8.9375 9.625 -8.9375 9.53125 -8.9375 C 9.445312 -8.945312 9.359375 -8.953125 9.265625 -8.953125 C 9.179688 -8.960938 9.101562 -8.96875 9.03125 -8.96875 C 8.957031 -8.976562 8.878906 -8.972656 8.796875 -8.953125 C 8.773438 -8.929688 8.753906 -8.929688 8.734375 -8.953125 C 8.679688 -8.953125 8.628906 -8.945312 8.578125 -8.9375 C 8.535156 -8.925781 8.492188 -8.921875 8.453125 -8.921875 C 8.367188 -8.910156 8.285156 -8.898438 8.203125 -8.890625 C 8.128906 -8.878906 8.054688 -8.875 7.984375 -8.875 C 7.910156 -8.851562 7.835938 -8.847656 7.765625 -8.859375 C 7.703125 -8.867188 7.632812 -8.875 7.5625 -8.875 C 7.425781 -8.875 7.300781 -8.828125 7.1875 -8.734375 C 7.070312 -8.640625 7 -8.523438 6.96875 -8.390625 C 6.945312 -8.328125 6.945312 -8.25 6.96875 -8.15625 C 6.988281 -8.070312 7.023438 -8.007812 7.078125 -7.96875 C 7.140625 -7.925781 7.207031 -7.894531 7.28125 -7.875 C 7.300781 -7.863281 7.328125 -7.859375 7.359375 -7.859375 C 7.398438 -7.859375 7.429688 -7.859375 7.453125 -7.859375 C 7.628906 -7.859375 7.804688 -7.859375 7.984375 -7.859375 C 8.171875 -7.859375 8.351562 -7.859375 8.53125 -7.859375 C 8.664062 -7.847656 8.800781 -7.84375 8.9375 -7.84375 C 9.070312 -7.851562 9.207031 -7.847656 9.34375 -7.828125 C 9.539062 -7.816406 9.742188 -7.804688 9.953125 -7.796875 C 10.160156 -7.785156 10.367188 -7.789062 10.578125 -7.8125 C 10.703125 -7.8125 10.820312 -7.8125 10.9375 -7.8125 C 11.050781 -7.820312 11.171875 -7.820312 11.296875 -7.8125 C 11.484375 -7.8125 11.679688 -7.8125 11.890625 -7.8125 C 12.097656 -7.8125 12.296875 -7.800781 12.484375 -7.78125 C 12.578125 -7.78125 12.664062 -7.773438 12.75 -7.765625 C 12.84375 -7.765625 12.929688 -7.765625 13.015625 -7.765625 C 13.085938 -7.765625 13.15625 -7.757812 13.21875 -7.75 C 13.289062 -7.738281 13.363281 -7.734375 13.4375 -7.734375 C 13.445312 -7.734375 13.453125 -7.734375 13.453125 -7.734375 C 13.460938 -7.734375 13.472656 -7.734375 13.484375 -7.734375 C 13.648438 -7.734375 13.804688 -7.71875 13.953125 -7.6875 C 13.972656 -7.6875 13.992188 -7.6875 14.015625 -7.6875 C 14.035156 -7.6875 14.050781 -7.6875 14.0625 -7.6875 C 14.257812 -7.6875 14.457031 -7.6875 14.65625 -7.6875 C 14.851562 -7.6875 15.050781 -7.6875 15.25 -7.6875 C 15.34375 -7.6875 15.425781 -7.679688 15.5 -7.671875 C 15.570312 -7.671875 15.648438 -7.660156 15.734375 -7.640625 C 15.816406 -7.628906 15.894531 -7.617188 15.96875 -7.609375 C 16.039062 -7.597656 16.117188 -7.582031 16.203125 -7.5625 C 16.347656 -7.53125 16.492188 -7.488281 16.640625 -7.4375 C 16.785156 -7.394531 16.929688 -7.34375 17.078125 -7.28125 C 17.160156 -7.257812 17.238281 -7.226562 17.3125 -7.1875 C 17.382812 -7.144531 17.457031 -7.101562 17.53125 -7.0625 C 17.625 -7 17.710938 -6.9375 17.796875 -6.875 C 17.890625 -6.8125 17.976562 -6.75 18.0625 -6.6875 C 18.082031 -6.675781 18.109375 -6.660156 18.140625 -6.640625 C 18.171875 -6.617188 18.191406 -6.59375 18.203125 -6.5625 C 18.285156 -6.488281 18.367188 -6.40625 18.453125 -6.3125 C 18.535156 -6.226562 18.601562 -6.140625 18.65625 -6.046875 C 18.820312 -5.828125 18.9375 -5.597656 19 -5.359375 C 19.03125 -5.296875 19.050781 -5.226562 19.0625 -5.15625 C 19.082031 -5.09375 19.097656 -5.03125 19.109375 -4.96875 C 19.128906 -4.894531 19.144531 -4.820312 19.15625 -4.75 C 19.175781 -4.675781 19.191406 -4.601562 19.203125 -4.53125 C 19.234375 -4.351562 19.242188 -4.175781 19.234375 -4 C 19.234375 -3.832031 19.234375 -3.660156 19.234375 -3.484375 C 19.234375 -3.453125 19.234375 -3.414062 19.234375 -3.375 C 19.234375 -3.34375 19.226562 -3.3125 19.21875 -3.28125 C 19.207031 -3.195312 19.195312 -3.117188 19.1875 -3.046875 C 19.175781 -2.972656 19.15625 -2.898438 19.125 -2.828125 C 19.113281 -2.742188 19.097656 -2.65625 19.078125 -2.5625 C 19.054688 -2.476562 19.023438 -2.390625 18.984375 -2.296875 C 18.929688 -2.160156 18.863281 -2.019531 18.78125 -1.875 C 18.695312 -1.738281 18.601562 -1.609375 18.5 -1.484375 C 18.363281 -1.304688 18.207031 -1.148438 18.03125 -1.015625 C 18 -0.972656 17.960938 -0.9375 17.921875 -0.90625 C 17.890625 -0.875 17.859375 -0.84375 17.828125 -0.8125 C 17.734375 -0.707031 17.625 -0.617188 17.5 -0.546875 C 17.375 -0.484375 17.25 -0.421875 17.125 -0.359375 C 17.007812 -0.316406 16.894531 -0.273438 16.78125 -0.234375 C 16.664062 -0.191406 16.539062 -0.148438 16.40625 -0.109375 C 16.28125 -0.0546875 16.132812 -0.03125 15.96875 -0.03125 C 15.738281 -0.03125 15.507812 -0.03125 15.28125 -0.03125 C 15.0625 -0.03125 14.832031 -0.03125 14.59375 -0.03125 C 14.476562 -0.03125 14.363281 -0.03125 14.25 -0.03125 C 14.144531 -0.0390625 14.039062 -0.046875 13.9375 -0.046875 C 13.8125 -0.0546875 13.679688 -0.0625 13.546875 -0.0625 C 13.410156 -0.0625 13.28125 -0.0625 13.15625 -0.0625 C 12.894531 -0.0625 12.640625 -0.0664062 12.390625 -0.078125 C 12.140625 -0.0859375 11.890625 -0.0820312 11.640625 -0.0625 C 11.222656 -0.0507812 10.800781 -0.046875 10.375 -0.046875 C 9.957031 -0.046875 9.535156 -0.046875 9.109375 -0.046875 C 8.984375 -0.0351562 8.851562 -0.03125 8.71875 -0.03125 C 8.582031 -0.03125 8.453125 -0.03125 8.328125 -0.03125 C 8.242188 -0.0195312 8.171875 -0.0078125 8.109375 0 C 8.046875 0 7.972656 0.00390625 7.890625 0.015625 C 7.847656 0.015625 7.804688 0.015625 7.765625 0.015625 C 7.722656 0.015625 7.675781 0.0195312 7.625 0.03125 C 7.476562 0.0390625 7.328125 0.046875 7.171875 0.046875 C 7.015625 0.046875 6.851562 0.046875 6.6875 0.046875 C 6.601562 0.046875 6.519531 0.0390625 6.4375 0.03125 C 6.351562 0.03125 6.265625 0.0234375 6.171875 0.015625 C 6.117188 0.00390625 6.078125 0 6.046875 0 C 6.015625 0 5.972656 -0.00390625 5.921875 -0.015625 C 5.828125 -0.015625 5.734375 -0.015625 5.640625 -0.015625 C 5.546875 -0.015625 5.453125 -0.0195312 5.359375 -0.03125 C 5.234375 -0.0507812 5.109375 -0.0546875 4.984375 -0.046875 C 4.859375 -0.046875 4.726562 -0.046875 4.59375 -0.046875 C 4.4375 -0.046875 4.269531 -0.0390625 4.09375 -0.03125 C 3.925781 -0.0195312 3.765625 -0.0195312 3.609375 -0.03125 C 3.492188 -0.03125 3.375 -0.03125 3.25 -0.03125 C 3.125 -0.0390625 3 -0.046875 2.875 -0.046875 C 2.6875 -0.0351562 2.492188 -0.03125 2.296875 -0.03125 C 2.097656 -0.03125 1.898438 -0.03125 1.703125 -0.03125 C 1.691406 -0.03125 1.675781 -0.03125 1.65625 -0.03125 C 1.644531 -0.03125 1.628906 -0.03125 1.609375 -0.03125 Z M 1.609375 -0.03125 "/></g></g></g><g fill="#ffffff" fill-opacity="1"><g transform="translate(35.250664, 22.016463)"><g><path d="M 6.5 -3.546875 C 6.5 -3.523438 6.5 -3.503906 6.5 -3.484375 C 6.5 -3.472656 6.5 -3.457031 6.5 -3.4375 C 6.5 -3.269531 6.5 -3.101562 6.5 -2.9375 C 6.5 -2.78125 6.5 -2.617188 6.5 -2.453125 C 6.488281 -2.367188 6.484375 -2.285156 6.484375 -2.203125 C 6.484375 -2.128906 6.476562 -2.046875 6.46875 -1.953125 C 6.457031 -1.867188 6.453125 -1.789062 6.453125 -1.71875 C 6.460938 -1.644531 6.46875 -1.5625 6.46875 -1.46875 C 6.457031 -1.363281 6.453125 -1.253906 6.453125 -1.140625 C 6.460938 -1.023438 6.460938 -0.910156 6.453125 -0.796875 C 6.453125 -0.753906 6.445312 -0.710938 6.4375 -0.671875 C 6.425781 -0.640625 6.421875 -0.601562 6.421875 -0.5625 C 6.421875 -0.476562 6.414062 -0.398438 6.40625 -0.328125 C 6.40625 -0.253906 6.40625 -0.179688 6.40625 -0.109375 C 6.40625 -0.0976562 6.40625 -0.0859375 6.40625 -0.078125 C 6.40625 -0.0664062 6.40625 -0.0507812 6.40625 -0.03125 C 6.375 -0.0195312 6.335938 -0.015625 6.296875 -0.015625 C 6.265625 -0.015625 6.238281 -0.015625 6.21875 -0.015625 C 6.113281 -0.015625 6.007812 -0.015625 5.90625 -0.015625 C 5.800781 -0.015625 5.695312 -0.015625 5.59375 -0.015625 C 5.40625 -0.00390625 5.21875 0 5.03125 0 C 4.84375 0 4.660156 0.00390625 4.484375 0.015625 C 4.191406 0.0234375 3.898438 0.0234375 3.609375 0.015625 C 3.328125 0.015625 3.039062 0.0195312 2.75 0.03125 C 2.632812 0.03125 2.515625 0.03125 2.390625 0.03125 C 2.273438 0.0390625 2.148438 0.046875 2.015625 0.046875 C 1.953125 0.046875 1.882812 0.0390625 1.8125 0.03125 C 1.738281 0.0195312 1.660156 0.015625 1.578125 0.015625 C 1.566406 0.015625 1.554688 0.015625 1.546875 0.015625 C 1.535156 0.015625 1.519531 0.015625 1.5 0.015625 C 1.445312 0.015625 1.40625 0.015625 1.375 0.015625 C 1.34375 0.015625 1.300781 0.015625 1.25 0.015625 C 1.25 -0.00390625 1.25 -0.0195312 1.25 -0.03125 C 1.25 -0.0390625 1.25 -0.0507812 1.25 -0.0625 C 1.25 -0.15625 1.25 -0.242188 1.25 -0.328125 C 1.25 -0.421875 1.25 -0.507812 1.25 -0.59375 C 1.257812 -0.769531 1.257812 -0.9375 1.25 -1.09375 C 1.25 -1.257812 1.25 -1.425781 1.25 -1.59375 C 1.257812 -1.757812 1.257812 -1.929688 1.25 -2.109375 C 1.25 -2.191406 1.25 -2.269531 1.25 -2.34375 C 1.25 -2.425781 1.25 -2.507812 1.25 -2.59375 C 1.238281 -2.851562 1.234375 -3.101562 1.234375 -3.34375 C 1.242188 -3.582031 1.25 -3.832031 1.25 -4.09375 C 1.25 -4.300781 1.25 -4.507812 1.25 -4.71875 C 1.25 -4.925781 1.242188 -5.128906 1.234375 -5.328125 C 1.234375 -5.429688 1.226562 -5.535156 1.21875 -5.640625 C 1.21875 -5.742188 1.21875 -5.847656 1.21875 -5.953125 C 1.238281 -6.140625 1.242188 -6.328125 1.234375 -6.515625 C 1.234375 -6.703125 1.234375 -6.890625 1.234375 -7.078125 C 1.253906 -7.441406 1.253906 -7.804688 1.234375 -8.171875 C 1.222656 -8.410156 1.21875 -8.648438 1.21875 -8.890625 C 1.226562 -9.140625 1.226562 -9.378906 1.21875 -9.609375 C 1.21875 -9.859375 1.21875 -10.101562 1.21875 -10.34375 C 1.21875 -10.582031 1.21875 -10.820312 1.21875 -11.0625 C 1.21875 -11.1875 1.21875 -11.3125 1.21875 -11.4375 C 1.21875 -11.5625 1.21875 -11.679688 1.21875 -11.796875 C 1.21875 -11.816406 1.21875 -11.84375 1.21875 -11.875 C 1.226562 -11.90625 1.238281 -11.9375 1.25 -11.96875 C 1.257812 -11.976562 1.269531 -11.988281 1.28125 -12 C 1.300781 -12.007812 1.316406 -12.019531 1.328125 -12.03125 C 1.335938 -12.03125 1.34375 -12.035156 1.34375 -12.046875 C 1.351562 -12.054688 1.359375 -12.0625 1.359375 -12.0625 C 1.523438 -12.0625 1.6875 -12.0625 1.84375 -12.0625 C 2 -12.0625 2.148438 -12.066406 2.296875 -12.078125 C 2.367188 -12.078125 2.4375 -12.070312 2.5 -12.0625 C 2.570312 -12.0625 2.648438 -12.050781 2.734375 -12.03125 C 2.796875 -12.03125 2.859375 -12.03125 2.921875 -12.03125 C 2.984375 -12.03125 3.039062 -12.03125 3.09375 -12.03125 C 3.125 -12.050781 3.171875 -12.0625 3.234375 -12.0625 C 3.378906 -12.0625 3.515625 -12.0625 3.640625 -12.0625 C 3.773438 -12.0625 3.914062 -12.0625 4.0625 -12.0625 C 4.21875 -12.0625 4.382812 -12.0625 4.5625 -12.0625 C 4.738281 -12.070312 4.914062 -12.078125 5.09375 -12.078125 C 5.300781 -12.078125 5.507812 -12.078125 5.71875 -12.078125 C 5.925781 -12.085938 6.128906 -12.085938 6.328125 -12.078125 C 6.523438 -12.066406 6.71875 -12.0625 6.90625 -12.0625 C 7.09375 -12.0625 7.28125 -12.0625 7.46875 -12.0625 C 7.5625 -12.0625 7.65625 -12.066406 7.75 -12.078125 C 7.84375 -12.085938 7.929688 -12.085938 8.015625 -12.078125 C 8.128906 -12.066406 8.238281 -12.0625 8.34375 -12.0625 C 8.457031 -12.0625 8.570312 -12.0625 8.6875 -12.0625 C 9.03125 -12.082031 9.367188 -12.09375 9.703125 -12.09375 C 10.035156 -12.09375 10.367188 -12.085938 10.703125 -12.078125 C 11.398438 -12.066406 12.09375 -12.0625 12.78125 -12.0625 C 13.476562 -12.070312 14.171875 -12.070312 14.859375 -12.0625 C 14.929688 -12.0625 15 -12.050781 15.0625 -12.03125 C 15.132812 -12.019531 15.210938 -12.015625 15.296875 -12.015625 C 15.328125 -12.003906 15.363281 -12 15.40625 -12 C 15.445312 -12 15.492188 -12 15.546875 -12 C 15.597656 -12 15.65625 -11.992188 15.71875 -11.984375 C 15.78125 -11.984375 15.84375 -11.984375 15.90625 -11.984375 C 16 -11.972656 16.082031 -11.957031 16.15625 -11.9375 C 16.226562 -11.914062 16.304688 -11.890625 16.390625 -11.859375 C 16.410156 -11.859375 16.4375 -11.851562 16.46875 -11.84375 C 16.5 -11.832031 16.519531 -11.828125 16.53125 -11.828125 C 16.707031 -11.753906 16.878906 -11.679688 17.046875 -11.609375 C 17.210938 -11.546875 17.378906 -11.46875 17.546875 -11.375 C 17.617188 -11.332031 17.691406 -11.289062 17.765625 -11.25 C 17.835938 -11.21875 17.90625 -11.171875 17.96875 -11.109375 C 18.019531 -11.066406 18.070312 -11.015625 18.125 -10.953125 C 18.1875 -10.890625 18.25 -10.828125 18.3125 -10.765625 C 18.34375 -10.722656 18.375 -10.679688 18.40625 -10.640625 C 18.445312 -10.597656 18.488281 -10.550781 18.53125 -10.5 C 18.59375 -10.4375 18.648438 -10.367188 18.703125 -10.296875 C 18.765625 -10.222656 18.8125 -10.140625 18.84375 -10.046875 C 18.894531 -9.972656 18.941406 -9.890625 18.984375 -9.796875 C 19.023438 -9.703125 19.054688 -9.609375 19.078125 -9.515625 C 19.097656 -9.429688 19.117188 -9.347656 19.140625 -9.265625 C 19.171875 -9.191406 19.191406 -9.117188 19.203125 -9.046875 C 19.222656 -8.960938 19.234375 -8.882812 19.234375 -8.8125 C 19.242188 -8.75 19.253906 -8.675781 19.265625 -8.59375 C 19.273438 -8.539062 19.28125 -8.488281 19.28125 -8.4375 C 19.289062 -8.394531 19.296875 -8.347656 19.296875 -8.296875 C 19.296875 -8.203125 19.296875 -8.109375 19.296875 -8.015625 C 19.296875 -7.921875 19.296875 -7.828125 19.296875 -7.734375 C 19.296875 -7.648438 19.296875 -7.570312 19.296875 -7.5 C 19.296875 -7.425781 19.289062 -7.347656 19.28125 -7.265625 C 19.226562 -6.765625 19.09375 -6.300781 18.875 -5.875 C 18.84375 -5.800781 18.8125 -5.734375 18.78125 -5.671875 C 18.75 -5.609375 18.71875 -5.539062 18.6875 -5.46875 C 18.539062 -5.1875 18.367188 -4.945312 18.171875 -4.75 C 18.117188 -4.707031 18.0625 -4.65625 18 -4.59375 C 17.945312 -4.539062 17.894531 -4.488281 17.84375 -4.4375 C 17.71875 -4.320312 17.546875 -4.21875 17.328125 -4.125 C 17.179688 -4.039062 17.019531 -3.96875 16.84375 -3.90625 C 16.664062 -3.84375 16.492188 -3.796875 16.328125 -3.765625 C 16.253906 -3.753906 16.179688 -3.738281 16.109375 -3.71875 C 16.035156 -3.707031 15.960938 -3.695312 15.890625 -3.6875 C 15.835938 -3.675781 15.78125 -3.664062 15.71875 -3.65625 C 15.664062 -3.65625 15.613281 -3.648438 15.5625 -3.640625 C 15.550781 -3.640625 15.546875 -3.640625 15.546875 -3.640625 C 15.546875 -3.640625 15.535156 -3.640625 15.515625 -3.640625 C 15.441406 -3.628906 15.367188 -3.625 15.296875 -3.625 C 15.222656 -3.625 15.144531 -3.625 15.0625 -3.625 C 14.925781 -3.613281 14.789062 -3.609375 14.65625 -3.609375 C 14.519531 -3.617188 14.382812 -3.617188 14.25 -3.609375 C 14.132812 -3.609375 14.019531 -3.601562 13.90625 -3.59375 C 13.789062 -3.59375 13.671875 -3.59375 13.546875 -3.59375 C 13.492188 -3.59375 13.441406 -3.59375 13.390625 -3.59375 C 13.335938 -3.601562 13.28125 -3.609375 13.21875 -3.609375 C 13.070312 -3.609375 12.921875 -3.609375 12.765625 -3.609375 C 12.617188 -3.609375 12.460938 -3.601562 12.296875 -3.59375 C 12.109375 -3.582031 11.925781 -3.578125 11.75 -3.578125 C 11.570312 -3.585938 11.382812 -3.585938 11.1875 -3.578125 C 11.101562 -3.554688 11.015625 -3.546875 10.921875 -3.546875 C 10.835938 -3.546875 10.75 -3.539062 10.65625 -3.53125 C 10.644531 -3.53125 10.628906 -3.53125 10.609375 -3.53125 C 10.597656 -3.53125 10.582031 -3.53125 10.5625 -3.53125 C 10.039062 -3.539062 9.515625 -3.546875 8.984375 -3.546875 C 8.453125 -3.546875 7.925781 -3.546875 7.40625 -3.546875 C 7.351562 -3.546875 7.296875 -3.550781 7.234375 -3.5625 C 7.179688 -3.570312 7.128906 -3.578125 7.078125 -3.578125 C 6.984375 -3.578125 6.890625 -3.570312 6.796875 -3.5625 C 6.703125 -3.550781 6.601562 -3.546875 6.5 -3.546875 Z M 6.5 -6.71875 C 6.519531 -6.71875 6.539062 -6.71875 6.5625 -6.71875 C 6.59375 -6.71875 6.613281 -6.71875 6.625 -6.71875 C 6.863281 -6.71875 7.109375 -6.71875 7.359375 -6.71875 C 7.609375 -6.71875 7.851562 -6.71875 8.09375 -6.71875 C 8.125 -6.71875 8.148438 -6.71875 8.171875 -6.71875 C 8.191406 -6.71875 8.207031 -6.71875 8.21875 -6.71875 C 8.289062 -6.738281 8.359375 -6.75 8.421875 -6.75 C 8.484375 -6.757812 8.550781 -6.765625 8.625 -6.765625 C 9.226562 -6.765625 9.828125 -6.765625 10.421875 -6.765625 C 11.015625 -6.765625 11.609375 -6.765625 12.203125 -6.765625 C 12.234375 -6.765625 12.257812 -6.757812 12.28125 -6.75 C 12.300781 -6.75 12.328125 -6.75 12.359375 -6.75 C 12.390625 -6.75 12.414062 -6.75 12.4375 -6.75 C 12.46875 -6.75 12.503906 -6.75 12.546875 -6.75 C 12.566406 -6.75 12.582031 -6.75 12.59375 -6.75 C 12.613281 -6.757812 12.640625 -6.765625 12.671875 -6.765625 C 12.734375 -6.773438 12.800781 -6.785156 12.875 -6.796875 C 12.945312 -6.804688 13.015625 -6.828125 13.078125 -6.859375 C 13.234375 -6.941406 13.375 -7.035156 13.5 -7.140625 C 13.625 -7.242188 13.734375 -7.367188 13.828125 -7.515625 C 13.910156 -7.617188 13.953125 -7.722656 13.953125 -7.828125 C 13.953125 -7.929688 13.929688 -8.035156 13.890625 -8.140625 C 13.878906 -8.191406 13.851562 -8.238281 13.8125 -8.28125 C 13.769531 -8.320312 13.726562 -8.367188 13.6875 -8.421875 C 13.613281 -8.492188 13.523438 -8.5625 13.421875 -8.625 C 13.328125 -8.6875 13.234375 -8.738281 13.140625 -8.78125 C 13.128906 -8.789062 13.109375 -8.796875 13.078125 -8.796875 C 13.035156 -8.804688 12.988281 -8.8125 12.9375 -8.8125 C 12.894531 -8.820312 12.84375 -8.832031 12.78125 -8.84375 C 12.71875 -8.863281 12.644531 -8.875 12.5625 -8.875 C 12.488281 -8.882812 12.421875 -8.890625 12.359375 -8.890625 C 12.273438 -8.890625 12.195312 -8.890625 12.125 -8.890625 C 12.050781 -8.890625 11.976562 -8.890625 11.90625 -8.890625 C 11.875 -8.890625 11.84375 -8.890625 11.8125 -8.890625 C 11.789062 -8.898438 11.769531 -8.90625 11.75 -8.90625 C 11.625 -8.894531 11.5 -8.890625 11.375 -8.890625 C 11.257812 -8.898438 11.140625 -8.894531 11.015625 -8.875 C 10.773438 -8.875 10.535156 -8.875 10.296875 -8.875 C 10.066406 -8.875 9.832031 -8.878906 9.59375 -8.890625 C 9.457031 -8.898438 9.316406 -8.898438 9.171875 -8.890625 C 9.023438 -8.890625 8.882812 -8.894531 8.75 -8.90625 C 8.632812 -8.914062 8.519531 -8.914062 8.40625 -8.90625 C 8.289062 -8.90625 8.175781 -8.898438 8.0625 -8.890625 C 7.957031 -8.890625 7.851562 -8.890625 7.75 -8.890625 C 7.644531 -8.890625 7.539062 -8.894531 7.4375 -8.90625 C 7.425781 -8.90625 7.410156 -8.90625 7.390625 -8.90625 C 7.378906 -8.90625 7.367188 -8.90625 7.359375 -8.90625 C 7.265625 -8.894531 7.164062 -8.890625 7.0625 -8.890625 C 6.96875 -8.890625 6.867188 -8.882812 6.765625 -8.875 C 6.710938 -8.875 6.660156 -8.875 6.609375 -8.875 C 6.566406 -8.875 6.519531 -8.875 6.46875 -8.875 C 6.457031 -8.820312 6.445312 -8.773438 6.4375 -8.734375 C 6.425781 -8.703125 6.421875 -8.675781 6.421875 -8.65625 C 6.421875 -8.5625 6.421875 -8.472656 6.421875 -8.390625 C 6.421875 -8.304688 6.429688 -8.21875 6.453125 -8.125 C 6.460938 -7.945312 6.46875 -7.773438 6.46875 -7.609375 C 6.46875 -7.441406 6.472656 -7.269531 6.484375 -7.09375 C 6.484375 -7.03125 6.484375 -6.96875 6.484375 -6.90625 C 6.484375 -6.851562 6.488281 -6.789062 6.5 -6.71875 Z M 6.5 -6.71875 "/></g></g></g><g fill="#ffffff" fill-opacity="1"><g transform="translate(69.711542, 22.016463)"><g><path d="M 20.234375 -4.859375 C 20.210938 -4.847656 20.203125 -4.832031 20.203125 -4.8125 C 20.191406 -4.675781 20.1875 -4.539062 20.1875 -4.40625 C 20.1875 -4.28125 20.179688 -4.15625 20.171875 -4.03125 C 20.160156 -3.875 20.15625 -3.722656 20.15625 -3.578125 C 20.15625 -3.429688 20.15625 -3.285156 20.15625 -3.140625 C 20.15625 -3.085938 20.148438 -3.035156 20.140625 -2.984375 C 20.128906 -2.929688 20.125 -2.882812 20.125 -2.84375 C 20.125 -2.769531 20.117188 -2.703125 20.109375 -2.640625 C 20.097656 -2.578125 20.078125 -2.515625 20.046875 -2.453125 C 20.015625 -2.335938 19.976562 -2.21875 19.9375 -2.09375 C 19.894531 -1.96875 19.847656 -1.835938 19.796875 -1.703125 C 19.722656 -1.566406 19.632812 -1.429688 19.53125 -1.296875 C 19.476562 -1.242188 19.429688 -1.1875 19.390625 -1.125 C 19.359375 -1.070312 19.3125 -1.015625 19.25 -0.953125 C 19.207031 -0.898438 19.148438 -0.847656 19.078125 -0.796875 C 19.003906 -0.742188 18.9375 -0.6875 18.875 -0.625 C 18.738281 -0.53125 18.597656 -0.445312 18.453125 -0.375 C 18.304688 -0.3125 18.160156 -0.25 18.015625 -0.1875 C 17.859375 -0.144531 17.707031 -0.101562 17.5625 -0.0625 C 17.425781 -0.03125 17.28125 0 17.125 0.03125 C 17.03125 0.0507812 16.945312 0.0625 16.875 0.0625 C 16.726562 0.0625 16.582031 0.0664062 16.4375 0.078125 C 16.289062 0.0859375 16.144531 0.09375 16 0.09375 C 15.9375 0.09375 15.875 0.09375 15.8125 0.09375 C 15.757812 0.101562 15.703125 0.109375 15.640625 0.109375 C 15.273438 0.078125 14.898438 0.0664062 14.515625 0.078125 C 14.128906 0.0976562 13.75 0.101562 13.375 0.09375 C 13.25 0.09375 13.125 0.0976562 13 0.109375 C 12.875 0.117188 12.742188 0.117188 12.609375 0.109375 C 12.441406 0.0976562 12.269531 0.09375 12.09375 0.09375 C 11.925781 0.09375 11.753906 0.09375 11.578125 0.09375 C 11.390625 0.09375 11.195312 0.09375 11 0.09375 C 10.800781 0.09375 10.601562 0.0976562 10.40625 0.109375 C 9.863281 0.117188 9.332031 0.117188 8.8125 0.109375 C 8.59375 0.0976562 8.375 0.09375 8.15625 0.09375 C 7.945312 0.101562 7.738281 0.101562 7.53125 0.09375 C 7.257812 0.0625 6.988281 0.046875 6.71875 0.046875 C 6.445312 0.0546875 6.175781 0.0625 5.90625 0.0625 C 5.75 0.0625 5.597656 0.0664062 5.453125 0.078125 C 5.316406 0.0859375 5.171875 0.09375 5.015625 0.09375 C 4.960938 0.09375 4.910156 0.0859375 4.859375 0.078125 C 4.804688 0.0664062 4.75 0.0546875 4.6875 0.046875 C 4.65625 0.046875 4.617188 0.046875 4.578125 0.046875 C 4.546875 0.046875 4.515625 0.0390625 4.484375 0.03125 C 4.410156 0.0195312 4.332031 0.0078125 4.25 0 C 4.175781 -0.0195312 4.109375 -0.0351562 4.046875 -0.046875 C 3.960938 -0.078125 3.875 -0.101562 3.78125 -0.125 C 3.695312 -0.144531 3.609375 -0.164062 3.515625 -0.1875 C 3.460938 -0.207031 3.40625 -0.226562 3.34375 -0.25 C 3.289062 -0.28125 3.234375 -0.300781 3.171875 -0.3125 C 3.054688 -0.34375 2.945312 -0.390625 2.84375 -0.453125 C 2.738281 -0.515625 2.640625 -0.582031 2.546875 -0.65625 C 2.429688 -0.738281 2.328125 -0.828125 2.234375 -0.921875 C 2.148438 -1.015625 2.066406 -1.113281 1.984375 -1.21875 C 1.878906 -1.34375 1.789062 -1.460938 1.71875 -1.578125 C 1.675781 -1.671875 1.632812 -1.765625 1.59375 -1.859375 C 1.550781 -1.960938 1.515625 -2.066406 1.484375 -2.171875 C 1.460938 -2.265625 1.4375 -2.351562 1.40625 -2.4375 C 1.382812 -2.53125 1.363281 -2.625 1.34375 -2.71875 C 1.332031 -2.75 1.328125 -2.78125 1.328125 -2.8125 C 1.328125 -2.851562 1.328125 -2.890625 1.328125 -2.921875 C 1.316406 -3.023438 1.304688 -3.132812 1.296875 -3.25 C 1.296875 -3.363281 1.296875 -3.472656 1.296875 -3.578125 C 1.296875 -3.703125 1.296875 -3.820312 1.296875 -3.9375 C 1.296875 -4.0625 1.285156 -4.179688 1.265625 -4.296875 C 1.253906 -4.378906 1.25 -4.460938 1.25 -4.546875 C 1.257812 -4.640625 1.257812 -4.726562 1.25 -4.8125 C 1.238281 -4.9375 1.234375 -5.054688 1.234375 -5.171875 C 1.234375 -5.285156 1.234375 -5.398438 1.234375 -5.515625 C 1.253906 -5.796875 1.257812 -6.078125 1.25 -6.359375 C 1.238281 -6.640625 1.238281 -6.914062 1.25 -7.1875 C 1.257812 -7.300781 1.265625 -7.40625 1.265625 -7.5 C 1.265625 -7.59375 1.273438 -7.6875 1.296875 -7.78125 C 1.296875 -7.84375 1.296875 -7.898438 1.296875 -7.953125 C 1.296875 -8.015625 1.300781 -8.070312 1.3125 -8.125 C 1.320312 -8.21875 1.320312 -8.304688 1.3125 -8.390625 C 1.3125 -8.472656 1.316406 -8.554688 1.328125 -8.640625 C 1.328125 -8.691406 1.328125 -8.742188 1.328125 -8.796875 C 1.335938 -8.847656 1.347656 -8.894531 1.359375 -8.9375 C 1.359375 -8.96875 1.359375 -9 1.359375 -9.03125 C 1.367188 -9.0625 1.375 -9.09375 1.375 -9.125 C 1.382812 -9.21875 1.40625 -9.304688 1.4375 -9.390625 C 1.46875 -9.472656 1.492188 -9.554688 1.515625 -9.640625 C 1.546875 -9.753906 1.59375 -9.882812 1.65625 -10.03125 C 1.695312 -10.132812 1.75 -10.234375 1.8125 -10.328125 C 1.882812 -10.429688 1.957031 -10.53125 2.03125 -10.625 C 2.070312 -10.65625 2.101562 -10.691406 2.125 -10.734375 C 2.15625 -10.773438 2.195312 -10.820312 2.25 -10.875 C 2.300781 -10.925781 2.359375 -10.976562 2.421875 -11.03125 C 2.484375 -11.082031 2.539062 -11.132812 2.59375 -11.1875 C 2.71875 -11.28125 2.851562 -11.359375 3 -11.421875 C 3.15625 -11.492188 3.3125 -11.554688 3.46875 -11.609375 C 3.59375 -11.648438 3.71875 -11.6875 3.84375 -11.71875 C 3.976562 -11.757812 4.101562 -11.796875 4.21875 -11.828125 C 4.269531 -11.835938 4.328125 -11.84375 4.390625 -11.84375 C 4.460938 -11.851562 4.519531 -11.859375 4.5625 -11.859375 C 4.625 -11.867188 4.679688 -11.878906 4.734375 -11.890625 C 4.785156 -11.898438 4.832031 -11.910156 4.875 -11.921875 C 4.882812 -11.921875 4.890625 -11.921875 4.890625 -11.921875 C 4.898438 -11.921875 4.914062 -11.921875 4.9375 -11.921875 C 5.144531 -11.929688 5.347656 -11.9375 5.546875 -11.9375 C 5.753906 -11.9375 5.960938 -11.9375 6.171875 -11.9375 C 6.617188 -11.9375 7.066406 -11.9375 7.515625 -11.9375 C 7.960938 -11.945312 8.414062 -11.945312 8.875 -11.9375 C 9.195312 -11.925781 9.515625 -11.921875 9.828125 -11.921875 C 10.148438 -11.921875 10.472656 -11.921875 10.796875 -11.921875 C 10.941406 -11.921875 11.082031 -11.914062 11.21875 -11.90625 C 11.351562 -11.90625 11.492188 -11.910156 11.640625 -11.921875 C 11.921875 -11.941406 12.203125 -11.953125 12.484375 -11.953125 C 12.765625 -11.953125 13.046875 -11.945312 13.328125 -11.9375 C 13.628906 -11.925781 13.929688 -11.921875 14.234375 -11.921875 C 14.546875 -11.921875 14.851562 -11.921875 15.15625 -11.921875 C 15.3125 -11.910156 15.460938 -11.90625 15.609375 -11.90625 C 15.765625 -11.90625 15.914062 -11.894531 16.0625 -11.875 C 16.144531 -11.875 16.21875 -11.867188 16.28125 -11.859375 C 16.351562 -11.859375 16.429688 -11.859375 16.515625 -11.859375 C 16.523438 -11.847656 16.539062 -11.84375 16.5625 -11.84375 C 16.84375 -11.84375 17.125 -11.8125 17.40625 -11.75 C 17.625 -11.707031 17.820312 -11.648438 18 -11.578125 C 18.125 -11.546875 18.242188 -11.5 18.359375 -11.4375 C 18.484375 -11.382812 18.609375 -11.320312 18.734375 -11.25 C 18.742188 -11.238281 18.769531 -11.222656 18.8125 -11.203125 C 18.90625 -11.171875 18.988281 -11.117188 19.0625 -11.046875 C 19.144531 -10.984375 19.21875 -10.90625 19.28125 -10.8125 C 19.351562 -10.738281 19.421875 -10.660156 19.484375 -10.578125 C 19.554688 -10.503906 19.617188 -10.421875 19.671875 -10.328125 C 19.796875 -10.148438 19.882812 -9.957031 19.9375 -9.75 C 19.957031 -9.675781 19.976562 -9.59375 20 -9.5 C 20.03125 -9.414062 20.0625 -9.332031 20.09375 -9.25 C 20.101562 -9.207031 20.109375 -9.164062 20.109375 -9.125 C 20.109375 -9.09375 20.113281 -9.0625 20.125 -9.03125 C 20.125 -8.976562 20.125 -8.925781 20.125 -8.875 C 20.132812 -8.820312 20.144531 -8.773438 20.15625 -8.734375 C 20.15625 -8.722656 20.15625 -8.707031 20.15625 -8.6875 C 20.15625 -8.675781 20.15625 -8.664062 20.15625 -8.65625 C 20.15625 -8.613281 20.15625 -8.570312 20.15625 -8.53125 C 20.15625 -8.488281 20.15625 -8.4375 20.15625 -8.375 C 20.15625 -8.238281 20.15625 -8.097656 20.15625 -7.953125 C 20.15625 -7.816406 20.160156 -7.675781 20.171875 -7.53125 C 20.179688 -7.445312 20.1875 -7.363281 20.1875 -7.28125 C 20.1875 -7.195312 20.191406 -7.113281 20.203125 -7.03125 C 20.203125 -7 20.210938 -6.976562 20.234375 -6.96875 C 20.234375 -6.84375 20.234375 -6.710938 20.234375 -6.578125 C 20.234375 -6.441406 20.234375 -6.304688 20.234375 -6.171875 C 20.210938 -6.171875 20.203125 -6.164062 20.203125 -6.15625 C 20.203125 -6.070312 20.203125 -5.988281 20.203125 -5.90625 C 20.203125 -5.832031 20.203125 -5.753906 20.203125 -5.671875 C 20.203125 -5.660156 20.210938 -5.65625 20.234375 -5.65625 C 20.234375 -5.519531 20.234375 -5.382812 20.234375 -5.25 C 20.234375 -5.113281 20.234375 -4.984375 20.234375 -4.859375 Z M 12.25 -3.015625 C 12.300781 -3.015625 12.347656 -3.015625 12.390625 -3.015625 C 12.441406 -3.015625 12.492188 -3.015625 12.546875 -3.015625 C 12.691406 -3.015625 12.835938 -3.015625 12.984375 -3.015625 C 13.140625 -3.015625 13.296875 -3.023438 13.453125 -3.046875 C 13.554688 -3.066406 13.65625 -3.09375 13.75 -3.125 C 13.851562 -3.15625 13.945312 -3.203125 14.03125 -3.265625 C 14.09375 -3.296875 14.15625 -3.332031 14.21875 -3.375 C 14.289062 -3.414062 14.351562 -3.457031 14.40625 -3.5 C 14.675781 -3.71875 14.820312 -4.015625 14.84375 -4.390625 C 14.84375 -4.421875 14.847656 -4.441406 14.859375 -4.453125 C 14.859375 -4.503906 14.859375 -4.550781 14.859375 -4.59375 C 14.867188 -4.632812 14.875 -4.675781 14.875 -4.71875 C 14.882812 -4.8125 14.890625 -4.910156 14.890625 -5.015625 C 14.890625 -5.117188 14.894531 -5.222656 14.90625 -5.328125 C 14.90625 -5.546875 14.910156 -5.765625 14.921875 -5.984375 C 14.929688 -6.203125 14.921875 -6.421875 14.890625 -6.640625 C 14.878906 -6.660156 14.878906 -6.6875 14.890625 -6.71875 C 14.898438 -6.75 14.90625 -6.773438 14.90625 -6.796875 C 14.894531 -6.921875 14.890625 -7.050781 14.890625 -7.1875 C 14.898438 -7.320312 14.898438 -7.445312 14.890625 -7.5625 C 14.878906 -7.726562 14.816406 -7.882812 14.703125 -8.03125 C 14.660156 -8.09375 14.609375 -8.15625 14.546875 -8.21875 C 14.484375 -8.28125 14.425781 -8.335938 14.375 -8.390625 C 14.289062 -8.460938 14.203125 -8.523438 14.109375 -8.578125 C 14.015625 -8.640625 13.914062 -8.6875 13.8125 -8.71875 C 13.726562 -8.726562 13.644531 -8.738281 13.5625 -8.75 C 13.488281 -8.769531 13.410156 -8.785156 13.328125 -8.796875 C 13.285156 -8.796875 13.242188 -8.796875 13.203125 -8.796875 C 13.160156 -8.796875 13.117188 -8.800781 13.078125 -8.8125 C 13.003906 -8.8125 12.925781 -8.816406 12.84375 -8.828125 C 12.769531 -8.835938 12.695312 -8.84375 12.625 -8.84375 C 12.476562 -8.84375 12.328125 -8.847656 12.171875 -8.859375 C 12.023438 -8.867188 11.867188 -8.859375 11.703125 -8.828125 C 11.660156 -8.816406 11.613281 -8.8125 11.5625 -8.8125 C 11.507812 -8.8125 11.453125 -8.8125 11.390625 -8.8125 C 11.097656 -8.8125 10.8125 -8.8125 10.53125 -8.8125 C 10.25 -8.820312 9.957031 -8.828125 9.65625 -8.828125 C 9.488281 -8.828125 9.316406 -8.828125 9.140625 -8.828125 C 8.972656 -8.828125 8.800781 -8.816406 8.625 -8.796875 C 8.613281 -8.796875 8.601562 -8.796875 8.59375 -8.796875 C 8.519531 -8.796875 8.453125 -8.789062 8.390625 -8.78125 C 8.328125 -8.78125 8.265625 -8.773438 8.203125 -8.765625 C 8.160156 -8.765625 8.117188 -8.757812 8.078125 -8.75 C 8.046875 -8.75 8.007812 -8.742188 7.96875 -8.734375 C 7.882812 -8.722656 7.800781 -8.703125 7.71875 -8.671875 C 7.632812 -8.640625 7.550781 -8.609375 7.46875 -8.578125 C 7.394531 -8.535156 7.3125 -8.488281 7.21875 -8.4375 C 7.132812 -8.394531 7.0625 -8.335938 7 -8.265625 C 6.957031 -8.203125 6.910156 -8.140625 6.859375 -8.078125 C 6.816406 -8.023438 6.785156 -7.960938 6.765625 -7.890625 C 6.753906 -7.835938 6.738281 -7.773438 6.71875 -7.703125 C 6.695312 -7.640625 6.679688 -7.582031 6.671875 -7.53125 C 6.660156 -7.488281 6.65625 -7.445312 6.65625 -7.40625 C 6.65625 -7.375 6.65625 -7.335938 6.65625 -7.296875 C 6.644531 -7.222656 6.632812 -7.148438 6.625 -7.078125 C 6.613281 -7.015625 6.609375 -6.945312 6.609375 -6.875 C 6.617188 -6.625 6.617188 -6.367188 6.609375 -6.109375 C 6.609375 -5.847656 6.613281 -5.582031 6.625 -5.3125 C 6.632812 -5.144531 6.632812 -4.976562 6.625 -4.8125 C 6.625 -4.65625 6.625 -4.5 6.625 -4.34375 C 6.632812 -4.300781 6.640625 -4.265625 6.640625 -4.234375 C 6.640625 -4.203125 6.644531 -4.164062 6.65625 -4.125 C 6.6875 -4.007812 6.726562 -3.898438 6.78125 -3.796875 C 6.84375 -3.703125 6.914062 -3.613281 7 -3.53125 C 7.019531 -3.5 7.046875 -3.46875 7.078125 -3.4375 C 7.109375 -3.40625 7.132812 -3.378906 7.15625 -3.359375 C 7.175781 -3.304688 7.226562 -3.257812 7.3125 -3.21875 C 7.375 -3.195312 7.425781 -3.175781 7.46875 -3.15625 C 7.519531 -3.132812 7.566406 -3.109375 7.609375 -3.078125 C 7.679688 -3.054688 7.738281 -3.046875 7.78125 -3.046875 C 7.863281 -3.035156 7.945312 -3.03125 8.03125 -3.03125 C 8.113281 -3.03125 8.195312 -3.023438 8.28125 -3.015625 C 8.34375 -3.015625 8.40625 -3.015625 8.46875 -3.015625 C 8.539062 -3.015625 8.601562 -3.015625 8.65625 -3.015625 C 9.03125 -3.015625 9.394531 -3.015625 9.75 -3.015625 C 10.113281 -3.023438 10.476562 -3.019531 10.84375 -3 C 10.988281 -3 11.132812 -3 11.28125 -3 C 11.4375 -3.007812 11.59375 -3.015625 11.75 -3.015625 C 11.832031 -3.015625 11.914062 -3.015625 12 -3.015625 C 12.082031 -3.015625 12.164062 -3.015625 12.25 -3.015625 Z M 12.25 -3.015625 "/></g></g></g><g fill="#ffffff" fill-opacity="1"><g transform="translate(105.095648, 22.016463)"><g><path d="M 15.796875 -4.265625 C 15.890625 -4.171875 15.976562 -4.078125 16.0625 -3.984375 C 16.15625 -3.890625 16.242188 -3.796875 16.328125 -3.703125 C 16.410156 -3.628906 16.492188 -3.546875 16.578125 -3.453125 C 16.660156 -3.359375 16.742188 -3.265625 16.828125 -3.171875 C 16.953125 -3.054688 17.070312 -2.925781 17.1875 -2.78125 C 17.3125 -2.644531 17.429688 -2.515625 17.546875 -2.390625 C 17.640625 -2.296875 17.722656 -2.195312 17.796875 -2.09375 C 17.878906 -1.988281 17.972656 -1.890625 18.078125 -1.796875 C 18.171875 -1.703125 18.269531 -1.601562 18.375 -1.5 C 18.476562 -1.394531 18.578125 -1.289062 18.671875 -1.1875 C 18.785156 -1.082031 18.898438 -0.972656 19.015625 -0.859375 C 19.128906 -0.753906 19.238281 -0.648438 19.34375 -0.546875 C 19.414062 -0.460938 19.488281 -0.382812 19.5625 -0.3125 C 19.632812 -0.238281 19.707031 -0.164062 19.78125 -0.09375 C 19.78125 -0.09375 19.78125 -0.0859375 19.78125 -0.078125 C 19.78125 -0.0664062 19.785156 -0.0546875 19.796875 -0.046875 C 19.765625 -0.046875 19.742188 -0.046875 19.734375 -0.046875 C 19.722656 -0.046875 19.707031 -0.046875 19.6875 -0.046875 C 19.53125 -0.046875 19.375 -0.046875 19.21875 -0.046875 C 19.070312 -0.046875 18.925781 -0.046875 18.78125 -0.046875 C 18.65625 -0.0351562 18.523438 -0.0234375 18.390625 -0.015625 C 18.253906 -0.015625 18.117188 -0.0195312 17.984375 -0.03125 C 17.898438 -0.03125 17.8125 -0.03125 17.71875 -0.03125 C 17.632812 -0.0390625 17.546875 -0.046875 17.453125 -0.046875 C 17.398438 -0.046875 17.34375 -0.0390625 17.28125 -0.03125 C 17.226562 -0.03125 17.171875 -0.03125 17.109375 -0.03125 C 17.054688 -0.03125 17.003906 -0.03125 16.953125 -0.03125 C 16.898438 -0.03125 16.847656 -0.03125 16.796875 -0.03125 C 16.335938 -0.0507812 15.882812 -0.0546875 15.4375 -0.046875 C 15 -0.046875 14.550781 -0.046875 14.09375 -0.046875 C 14.0625 -0.046875 14.023438 -0.046875 13.984375 -0.046875 C 13.941406 -0.046875 13.90625 -0.046875 13.875 -0.046875 C 13.851562 -0.046875 13.832031 -0.0390625 13.8125 -0.03125 C 13.800781 -0.03125 13.785156 -0.03125 13.765625 -0.03125 C 13.753906 -0.03125 13.738281 -0.03125 13.71875 -0.03125 C 13.695312 -0.03125 13.675781 -0.03125 13.65625 -0.03125 C 13.582031 -0.03125 13.507812 -0.03125 13.4375 -0.03125 C 13.375 -0.0390625 13.304688 -0.046875 13.234375 -0.046875 C 13.203125 -0.0976562 13.164062 -0.144531 13.125 -0.1875 C 13.082031 -0.226562 13.039062 -0.269531 13 -0.3125 C 12.925781 -0.40625 12.851562 -0.5 12.78125 -0.59375 C 12.707031 -0.6875 12.632812 -0.773438 12.5625 -0.859375 C 12.507812 -0.898438 12.46875 -0.941406 12.4375 -0.984375 C 12.40625 -1.035156 12.363281 -1.082031 12.3125 -1.125 C 12.257812 -1.195312 12.195312 -1.269531 12.125 -1.34375 C 12.050781 -1.425781 11.988281 -1.5 11.9375 -1.5625 C 11.863281 -1.65625 11.789062 -1.742188 11.71875 -1.828125 C 11.644531 -1.910156 11.570312 -1.992188 11.5 -2.078125 C 11.488281 -2.097656 11.476562 -2.113281 11.46875 -2.125 C 11.457031 -2.144531 11.4375 -2.164062 11.40625 -2.1875 C 11.375 -2.25 11.335938 -2.304688 11.296875 -2.359375 C 11.253906 -2.421875 11.210938 -2.476562 11.171875 -2.53125 C 11.117188 -2.570312 11.078125 -2.613281 11.046875 -2.65625 C 11.015625 -2.707031 10.972656 -2.757812 10.921875 -2.8125 C 10.910156 -2.832031 10.894531 -2.851562 10.875 -2.875 C 10.851562 -2.894531 10.828125 -2.914062 10.796875 -2.9375 C 10.753906 -3 10.707031 -3.054688 10.65625 -3.109375 C 10.613281 -3.171875 10.566406 -3.226562 10.515625 -3.28125 C 10.347656 -3.445312 10.210938 -3.609375 10.109375 -3.765625 C 10.097656 -3.785156 10.070312 -3.8125 10.03125 -3.84375 C 10 -3.875 9.972656 -3.898438 9.953125 -3.921875 C 9.910156 -3.953125 9.875 -3.988281 9.84375 -4.03125 C 9.8125 -4.070312 9.769531 -4.109375 9.71875 -4.140625 C 9.707031 -4.140625 9.691406 -4.140625 9.671875 -4.140625 C 9.660156 -4.140625 9.640625 -4.140625 9.609375 -4.140625 C 9.253906 -4.140625 8.894531 -4.140625 8.53125 -4.140625 C 8.175781 -4.140625 7.816406 -4.140625 7.453125 -4.140625 C 7.347656 -4.148438 7.242188 -4.15625 7.140625 -4.15625 C 7.046875 -4.15625 6.945312 -4.15625 6.84375 -4.15625 C 6.800781 -4.15625 6.75 -4.15625 6.6875 -4.15625 C 6.632812 -4.15625 6.578125 -4.148438 6.515625 -4.140625 C 6.515625 -4.128906 6.507812 -4.117188 6.5 -4.109375 C 6.5 -4.109375 6.5 -4.101562 6.5 -4.09375 C 6.5 -3.875 6.5 -3.660156 6.5 -3.453125 C 6.5 -3.242188 6.5 -3.03125 6.5 -2.8125 C 6.5 -2.75 6.5 -2.6875 6.5 -2.625 C 6.507812 -2.5625 6.507812 -2.5 6.5 -2.4375 C 6.488281 -2.363281 6.484375 -2.296875 6.484375 -2.234375 C 6.492188 -2.171875 6.492188 -2.101562 6.484375 -2.03125 C 6.472656 -1.863281 6.46875 -1.691406 6.46875 -1.515625 C 6.46875 -1.335938 6.46875 -1.164062 6.46875 -1 C 6.457031 -0.90625 6.445312 -0.804688 6.4375 -0.703125 C 6.425781 -0.609375 6.421875 -0.507812 6.421875 -0.40625 C 6.410156 -0.375 6.40625 -0.34375 6.40625 -0.3125 C 6.414062 -0.28125 6.414062 -0.238281 6.40625 -0.1875 C 6.40625 -0.175781 6.40625 -0.160156 6.40625 -0.140625 C 6.40625 -0.128906 6.40625 -0.113281 6.40625 -0.09375 C 6.363281 -0.09375 6.320312 -0.0859375 6.28125 -0.078125 C 6.25 -0.0664062 6.210938 -0.0625 6.171875 -0.0625 C 6.054688 -0.0625 5.941406 -0.0664062 5.828125 -0.078125 C 5.722656 -0.0859375 5.613281 -0.0820312 5.5 -0.0625 C 5.351562 -0.0507812 5.207031 -0.046875 5.0625 -0.046875 C 4.925781 -0.0546875 4.785156 -0.0546875 4.640625 -0.046875 C 4.296875 -0.0351562 3.953125 -0.03125 3.609375 -0.03125 C 3.265625 -0.03125 2.925781 -0.03125 2.59375 -0.03125 C 2.507812 -0.03125 2.425781 -0.0234375 2.34375 -0.015625 C 2.257812 -0.015625 2.175781 -0.015625 2.09375 -0.015625 C 2.007812 -0.015625 1.925781 -0.015625 1.84375 -0.015625 C 1.757812 -0.0234375 1.671875 -0.0351562 1.578125 -0.046875 C 1.554688 -0.046875 1.53125 -0.046875 1.5 -0.046875 C 1.46875 -0.046875 1.429688 -0.046875 1.390625 -0.046875 C 1.378906 -0.046875 1.359375 -0.046875 1.328125 -0.046875 C 1.304688 -0.046875 1.28125 -0.046875 1.25 -0.046875 C 1.25 -0.117188 1.25 -0.1875 1.25 -0.25 C 1.25 -0.3125 1.253906 -0.375 1.265625 -0.4375 C 1.265625 -0.457031 1.265625 -0.46875 1.265625 -0.46875 C 1.265625 -0.476562 1.265625 -0.488281 1.265625 -0.5 C 1.265625 -0.789062 1.269531 -1.078125 1.28125 -1.359375 C 1.289062 -1.648438 1.285156 -1.941406 1.265625 -2.234375 C 1.253906 -2.460938 1.25 -2.695312 1.25 -2.9375 C 1.25 -3.175781 1.25 -3.40625 1.25 -3.625 C 1.25 -3.925781 1.25 -4.222656 1.25 -4.515625 C 1.25 -4.816406 1.25 -5.113281 1.25 -5.40625 C 1.238281 -5.507812 1.226562 -5.613281 1.21875 -5.71875 C 1.21875 -5.820312 1.222656 -5.921875 1.234375 -6.015625 C 1.242188 -6.210938 1.25 -6.398438 1.25 -6.578125 C 1.25 -6.753906 1.25 -6.9375 1.25 -7.125 C 1.25 -7.3125 1.25 -7.492188 1.25 -7.671875 C 1.25 -7.847656 1.25 -8.03125 1.25 -8.21875 C 1.238281 -8.46875 1.234375 -8.707031 1.234375 -8.9375 C 1.234375 -9.175781 1.234375 -9.421875 1.234375 -9.671875 C 1.234375 -9.898438 1.234375 -10.132812 1.234375 -10.375 C 1.234375 -10.625 1.234375 -10.863281 1.234375 -11.09375 C 1.234375 -11.226562 1.234375 -11.359375 1.234375 -11.484375 C 1.234375 -11.609375 1.234375 -11.726562 1.234375 -11.84375 C 1.234375 -11.882812 1.234375 -11.914062 1.234375 -11.9375 C 1.242188 -11.96875 1.25 -12 1.25 -12.03125 C 1.28125 -12.050781 1.300781 -12.066406 1.3125 -12.078125 C 1.320312 -12.085938 1.332031 -12.097656 1.34375 -12.109375 C 1.363281 -12.109375 1.378906 -12.109375 1.390625 -12.109375 C 1.398438 -12.109375 1.410156 -12.109375 1.421875 -12.109375 C 1.566406 -12.117188 1.710938 -12.125 1.859375 -12.125 C 2.003906 -12.125 2.144531 -12.125 2.28125 -12.125 C 2.363281 -12.132812 2.4375 -12.132812 2.5 -12.125 C 2.570312 -12.125 2.648438 -12.117188 2.734375 -12.109375 C 2.796875 -12.109375 2.859375 -12.101562 2.921875 -12.09375 C 2.984375 -12.09375 3.039062 -12.097656 3.09375 -12.109375 C 3.125 -12.109375 3.148438 -12.109375 3.171875 -12.109375 C 3.203125 -12.109375 3.234375 -12.109375 3.265625 -12.109375 C 3.390625 -12.109375 3.519531 -12.109375 3.65625 -12.109375 C 3.800781 -12.109375 3.9375 -12.113281 4.0625 -12.125 C 4.238281 -12.125 4.410156 -12.125 4.578125 -12.125 C 4.753906 -12.132812 4.925781 -12.140625 5.09375 -12.140625 C 5.300781 -12.140625 5.507812 -12.140625 5.71875 -12.140625 C 5.925781 -12.140625 6.132812 -12.132812 6.34375 -12.125 C 6.726562 -12.113281 7.101562 -12.113281 7.46875 -12.125 C 7.5625 -12.125 7.65625 -12.125 7.75 -12.125 C 7.851562 -12.132812 7.945312 -12.132812 8.03125 -12.125 C 8.25 -12.113281 8.46875 -12.113281 8.6875 -12.125 C 9.320312 -12.144531 9.960938 -12.144531 10.609375 -12.125 C 11.316406 -12.113281 12.023438 -12.109375 12.734375 -12.109375 C 13.453125 -12.117188 14.164062 -12.117188 14.875 -12.109375 C 14.945312 -12.109375 15.015625 -12.101562 15.078125 -12.09375 C 15.148438 -12.09375 15.222656 -12.085938 15.296875 -12.078125 C 15.335938 -12.078125 15.378906 -12.078125 15.421875 -12.078125 C 15.472656 -12.078125 15.523438 -12.078125 15.578125 -12.078125 C 15.722656 -12.078125 15.867188 -12.054688 16.015625 -12.015625 C 16.273438 -11.972656 16.519531 -11.90625 16.75 -11.8125 C 16.988281 -11.71875 17.222656 -11.613281 17.453125 -11.5 C 17.609375 -11.414062 17.757812 -11.316406 17.90625 -11.203125 C 17.925781 -11.191406 17.953125 -11.175781 17.984375 -11.15625 C 18.015625 -11.132812 18.035156 -11.113281 18.046875 -11.09375 C 18.140625 -11 18.234375 -10.898438 18.328125 -10.796875 C 18.429688 -10.691406 18.53125 -10.585938 18.625 -10.484375 C 18.71875 -10.367188 18.785156 -10.257812 18.828125 -10.15625 C 18.867188 -10.082031 18.90625 -10.015625 18.9375 -9.953125 C 18.96875 -9.898438 19 -9.84375 19.03125 -9.78125 C 19.050781 -9.707031 19.070312 -9.628906 19.09375 -9.546875 C 19.125 -9.472656 19.148438 -9.398438 19.171875 -9.328125 C 19.191406 -9.234375 19.207031 -9.132812 19.21875 -9.03125 C 19.238281 -8.925781 19.253906 -8.828125 19.265625 -8.734375 C 19.304688 -8.554688 19.320312 -8.378906 19.3125 -8.203125 C 19.300781 -8.023438 19.296875 -7.851562 19.296875 -7.6875 C 19.296875 -7.65625 19.285156 -7.609375 19.265625 -7.546875 C 19.222656 -7.347656 19.160156 -7.148438 19.078125 -6.953125 C 19.003906 -6.753906 18.921875 -6.554688 18.828125 -6.359375 C 18.804688 -6.316406 18.785156 -6.273438 18.765625 -6.234375 C 18.753906 -6.191406 18.738281 -6.144531 18.71875 -6.09375 C 18.570312 -5.800781 18.382812 -5.539062 18.15625 -5.3125 C 18.101562 -5.269531 18.050781 -5.222656 18 -5.171875 C 17.945312 -5.128906 17.898438 -5.082031 17.859375 -5.03125 C 17.773438 -4.976562 17.691406 -4.925781 17.609375 -4.875 C 17.523438 -4.832031 17.441406 -4.785156 17.359375 -4.734375 C 17.035156 -4.578125 16.695312 -4.453125 16.34375 -4.359375 C 16.257812 -4.347656 16.179688 -4.335938 16.109375 -4.328125 C 16.046875 -4.328125 15.972656 -4.3125 15.890625 -4.28125 C 15.859375 -4.28125 15.828125 -4.273438 15.796875 -4.265625 Z M 6.515625 -7.3125 C 6.535156 -7.3125 6.554688 -7.3125 6.578125 -7.3125 C 6.597656 -7.3125 6.613281 -7.3125 6.625 -7.3125 C 6.875 -7.3125 7.117188 -7.3125 7.359375 -7.3125 C 7.609375 -7.3125 7.863281 -7.3125 8.125 -7.3125 C 8.144531 -7.3125 8.160156 -7.3125 8.171875 -7.3125 C 8.191406 -7.3125 8.207031 -7.3125 8.21875 -7.3125 C 8.3125 -7.34375 8.398438 -7.359375 8.484375 -7.359375 C 8.578125 -7.359375 8.671875 -7.359375 8.765625 -7.359375 C 9.378906 -7.359375 9.992188 -7.359375 10.609375 -7.359375 C 11.222656 -7.367188 11.835938 -7.359375 12.453125 -7.328125 C 12.472656 -7.328125 12.5 -7.332031 12.53125 -7.34375 C 12.570312 -7.351562 12.601562 -7.359375 12.625 -7.359375 C 12.664062 -7.367188 12.703125 -7.375 12.734375 -7.375 C 12.765625 -7.375 12.800781 -7.378906 12.84375 -7.390625 C 13.125 -7.429688 13.316406 -7.597656 13.421875 -7.890625 C 13.441406 -7.953125 13.453125 -8.015625 13.453125 -8.078125 C 13.453125 -8.140625 13.445312 -8.207031 13.4375 -8.28125 C 13.351562 -8.519531 13.210938 -8.691406 13.015625 -8.796875 C 12.960938 -8.816406 12.914062 -8.835938 12.875 -8.859375 C 12.84375 -8.878906 12.796875 -8.894531 12.734375 -8.90625 C 12.660156 -8.914062 12.59375 -8.925781 12.53125 -8.9375 C 12.46875 -8.945312 12.394531 -8.945312 12.3125 -8.9375 C 12.257812 -8.9375 12.195312 -8.9375 12.125 -8.9375 C 12.050781 -8.945312 11.984375 -8.953125 11.921875 -8.953125 C 11.890625 -8.953125 11.859375 -8.953125 11.828125 -8.953125 C 11.804688 -8.960938 11.78125 -8.960938 11.75 -8.953125 C 11.625 -8.941406 11.5 -8.9375 11.375 -8.9375 C 11.257812 -8.945312 11.140625 -8.941406 11.015625 -8.921875 C 10.773438 -8.929688 10.535156 -8.929688 10.296875 -8.921875 C 10.066406 -8.921875 9.832031 -8.925781 9.59375 -8.9375 C 9.457031 -8.945312 9.316406 -8.945312 9.171875 -8.9375 C 9.023438 -8.9375 8.882812 -8.941406 8.75 -8.953125 C 8.507812 -8.972656 8.285156 -8.972656 8.078125 -8.953125 C 7.867188 -8.929688 7.65625 -8.929688 7.4375 -8.953125 C 7.414062 -8.972656 7.390625 -8.972656 7.359375 -8.953125 C 7.265625 -8.953125 7.164062 -8.945312 7.0625 -8.9375 C 6.96875 -8.9375 6.867188 -8.929688 6.765625 -8.921875 C 6.710938 -8.921875 6.664062 -8.921875 6.625 -8.921875 C 6.582031 -8.921875 6.539062 -8.921875 6.5 -8.921875 C 6.5 -8.910156 6.5 -8.894531 6.5 -8.875 C 6.5 -8.851562 6.5 -8.835938 6.5 -8.828125 C 6.5 -8.785156 6.5 -8.734375 6.5 -8.671875 C 6.5 -8.617188 6.5 -8.5625 6.5 -8.5 C 6.5 -8.375 6.5 -8.242188 6.5 -8.109375 C 6.5 -7.984375 6.5 -7.859375 6.5 -7.734375 C 6.476562 -7.597656 6.484375 -7.457031 6.515625 -7.3125 Z M 6.515625 -7.3125 "/></g></g></g><g fill="#ffffff" fill-opacity="1"><g transform="translate(140.044264, 22.016463)"><g><path d="M 18.015625 -11.96875 C 18.003906 -11.957031 18 -11.941406 18 -11.921875 C 18 -11.910156 18 -11.890625 18 -11.859375 C 18 -11.671875 17.992188 -11.484375 17.984375 -11.296875 C 17.984375 -11.117188 17.984375 -10.929688 17.984375 -10.734375 C 17.984375 -10.484375 17.984375 -10.238281 17.984375 -10 C 17.984375 -9.757812 17.984375 -9.519531 17.984375 -9.28125 C 17.984375 -9.226562 17.984375 -9.171875 17.984375 -9.109375 C 17.984375 -9.054688 17.976562 -9 17.96875 -8.9375 C 17.914062 -8.925781 17.867188 -8.925781 17.828125 -8.9375 C 17.816406 -8.9375 17.796875 -8.9375 17.765625 -8.9375 C 17.742188 -8.9375 17.722656 -8.9375 17.703125 -8.9375 C 17.335938 -8.9375 16.976562 -8.9375 16.625 -8.9375 C 16.269531 -8.945312 15.914062 -8.945312 15.5625 -8.9375 C 15.226562 -8.925781 14.894531 -8.921875 14.5625 -8.921875 C 14.226562 -8.929688 13.890625 -8.929688 13.546875 -8.921875 C 13.472656 -8.921875 13.394531 -8.914062 13.3125 -8.90625 C 13.226562 -8.90625 13.144531 -8.898438 13.0625 -8.890625 C 13.0625 -8.890625 13.054688 -8.890625 13.046875 -8.890625 C 12.953125 -8.890625 12.859375 -8.882812 12.765625 -8.875 C 12.671875 -8.875 12.578125 -8.878906 12.484375 -8.890625 C 12.410156 -8.898438 12.328125 -8.90625 12.234375 -8.90625 C 12.148438 -8.90625 12.066406 -8.90625 11.984375 -8.90625 C 11.972656 -8.90625 11.960938 -8.90625 11.953125 -8.90625 C 11.941406 -8.90625 11.925781 -8.90625 11.90625 -8.90625 C 11.90625 -8.894531 11.90625 -8.882812 11.90625 -8.875 C 11.90625 -8.675781 11.90625 -8.476562 11.90625 -8.28125 C 11.90625 -8.09375 11.90625 -7.898438 11.90625 -7.703125 C 11.90625 -7.628906 11.910156 -7.5625 11.921875 -7.5 C 11.929688 -7.4375 11.929688 -7.375 11.921875 -7.3125 C 11.910156 -7.195312 11.90625 -7.082031 11.90625 -6.96875 C 11.90625 -6.851562 11.90625 -6.734375 11.90625 -6.609375 C 11.925781 -6.148438 11.929688 -5.691406 11.921875 -5.234375 C 11.910156 -4.773438 11.910156 -4.320312 11.921875 -3.875 C 11.910156 -3.71875 11.90625 -3.5625 11.90625 -3.40625 C 11.90625 -3.257812 11.90625 -3.113281 11.90625 -2.96875 C 11.882812 -2.707031 11.867188 -2.445312 11.859375 -2.1875 C 11.859375 -1.925781 11.863281 -1.660156 11.875 -1.390625 C 11.894531 -1.203125 11.90625 -1.019531 11.90625 -0.84375 C 11.90625 -0.664062 11.90625 -0.484375 11.90625 -0.296875 C 11.90625 -0.285156 11.90625 -0.273438 11.90625 -0.265625 C 11.90625 -0.265625 11.90625 -0.257812 11.90625 -0.25 C 11.925781 -0.207031 11.929688 -0.171875 11.921875 -0.140625 C 11.910156 -0.109375 11.894531 -0.0703125 11.875 -0.03125 C 11.8125 -0.03125 11.742188 -0.03125 11.671875 -0.03125 C 11.609375 -0.03125 11.546875 -0.03125 11.484375 -0.03125 C 11.296875 -0.0078125 11.113281 0 10.9375 0 C 10.757812 -0.0078125 10.582031 -0.0078125 10.40625 0 C 9.863281 0 9.320312 0 8.78125 0 C 8.238281 -0.0078125 7.691406 -0.015625 7.140625 -0.015625 C 7.085938 -0.015625 7.035156 -0.0078125 6.984375 0 C 6.929688 0 6.875 0 6.8125 0 C 6.78125 0 6.742188 -0.00390625 6.703125 -0.015625 C 6.703125 -0.078125 6.703125 -0.128906 6.703125 -0.171875 C 6.703125 -0.222656 6.703125 -0.269531 6.703125 -0.3125 C 6.691406 -0.476562 6.6875 -0.640625 6.6875 -0.796875 C 6.6875 -0.953125 6.6875 -1.109375 6.6875 -1.265625 C 6.675781 -1.335938 6.664062 -1.40625 6.65625 -1.46875 C 6.65625 -1.539062 6.65625 -1.617188 6.65625 -1.703125 C 6.644531 -1.710938 6.640625 -1.738281 6.640625 -1.78125 C 6.640625 -1.945312 6.640625 -2.113281 6.640625 -2.28125 C 6.640625 -2.457031 6.644531 -2.632812 6.65625 -2.8125 C 6.664062 -3 6.664062 -3.191406 6.65625 -3.390625 C 6.65625 -3.585938 6.660156 -3.78125 6.671875 -3.96875 C 6.671875 -4.050781 6.671875 -4.128906 6.671875 -4.203125 C 6.679688 -4.285156 6.691406 -4.363281 6.703125 -4.4375 C 6.703125 -4.507812 6.703125 -4.578125 6.703125 -4.640625 C 6.710938 -4.703125 6.707031 -4.769531 6.6875 -4.84375 C 6.675781 -4.875 6.671875 -4.910156 6.671875 -4.953125 C 6.679688 -4.992188 6.6875 -5.03125 6.6875 -5.0625 C 6.6875 -5.15625 6.6875 -5.25 6.6875 -5.34375 C 6.695312 -5.4375 6.695312 -5.53125 6.6875 -5.625 C 6.675781 -5.78125 6.671875 -5.929688 6.671875 -6.078125 C 6.679688 -6.222656 6.6875 -6.367188 6.6875 -6.515625 C 6.6875 -6.597656 6.6875 -6.675781 6.6875 -6.75 C 6.695312 -6.832031 6.703125 -6.910156 6.703125 -6.984375 C 6.691406 -7.191406 6.6875 -7.398438 6.6875 -7.609375 C 6.695312 -7.816406 6.695312 -8.023438 6.6875 -8.234375 C 6.675781 -8.296875 6.671875 -8.359375 6.671875 -8.421875 C 6.671875 -8.484375 6.671875 -8.546875 6.671875 -8.609375 C 6.671875 -8.703125 6.675781 -8.765625 6.6875 -8.796875 C 6.6875 -8.816406 6.6875 -8.832031 6.6875 -8.84375 C 6.6875 -8.863281 6.6875 -8.878906 6.6875 -8.890625 C 6.65625 -8.890625 6.617188 -8.890625 6.578125 -8.890625 C 6.546875 -8.898438 6.515625 -8.90625 6.484375 -8.90625 C 6.398438 -8.914062 6.304688 -8.921875 6.203125 -8.921875 C 6.109375 -8.921875 6.015625 -8.921875 5.921875 -8.921875 C 5.671875 -8.921875 5.410156 -8.921875 5.140625 -8.921875 C 4.867188 -8.921875 4.601562 -8.925781 4.34375 -8.9375 C 4.1875 -8.9375 4.03125 -8.9375 3.875 -8.9375 C 3.726562 -8.945312 3.582031 -8.945312 3.4375 -8.9375 C 3.351562 -8.9375 3.265625 -8.9375 3.171875 -8.9375 C 3.085938 -8.9375 3 -8.929688 2.90625 -8.921875 C 2.78125 -8.910156 2.648438 -8.898438 2.515625 -8.890625 C 2.378906 -8.890625 2.25 -8.890625 2.125 -8.890625 C 2.007812 -8.878906 1.882812 -8.875 1.75 -8.875 C 1.625 -8.875 1.5 -8.875 1.375 -8.875 C 1.289062 -8.875 1.207031 -8.875 1.125 -8.875 C 1.039062 -8.882812 0.953125 -8.890625 0.859375 -8.890625 C 0.828125 -8.890625 0.796875 -8.890625 0.765625 -8.890625 C 0.742188 -8.898438 0.710938 -8.910156 0.671875 -8.921875 C 0.671875 -8.953125 0.664062 -8.988281 0.65625 -9.03125 C 0.65625 -9.070312 0.648438 -9.113281 0.640625 -9.15625 C 0.628906 -9.320312 0.625 -9.484375 0.625 -9.640625 C 0.632812 -9.804688 0.632812 -9.972656 0.625 -10.140625 C 0.625 -10.203125 0.625 -10.257812 0.625 -10.3125 C 0.625 -10.363281 0.625 -10.414062 0.625 -10.46875 C 0.625 -10.59375 0.625 -10.710938 0.625 -10.828125 C 0.625 -10.953125 0.617188 -11.070312 0.609375 -11.1875 C 0.609375 -11.238281 0.609375 -11.285156 0.609375 -11.328125 C 0.609375 -11.367188 0.609375 -11.414062 0.609375 -11.46875 C 0.617188 -11.519531 0.625 -11.578125 0.625 -11.640625 C 0.632812 -11.710938 0.640625 -11.773438 0.640625 -11.828125 C 0.640625 -11.878906 0.640625 -11.921875 0.640625 -11.953125 C 0.640625 -11.984375 0.640625 -12.019531 0.640625 -12.0625 C 0.679688 -12.070312 0.742188 -12.078125 0.828125 -12.078125 C 0.910156 -12.078125 0.96875 -12.078125 1 -12.078125 C 1.039062 -12.066406 1.082031 -12.054688 1.125 -12.046875 C 1.175781 -12.035156 1.222656 -12.03125 1.265625 -12.03125 C 1.429688 -12.03125 1.585938 -12.03125 1.734375 -12.03125 C 1.890625 -12.03125 2.039062 -12.039062 2.1875 -12.0625 C 2.257812 -12.070312 2.332031 -12.070312 2.40625 -12.0625 C 2.476562 -12.0625 2.546875 -12.066406 2.609375 -12.078125 C 2.785156 -12.097656 2.960938 -12.109375 3.140625 -12.109375 C 3.328125 -12.109375 3.507812 -12.101562 3.6875 -12.09375 C 3.988281 -12.082031 4.289062 -12.078125 4.59375 -12.078125 C 4.894531 -12.085938 5.191406 -12.085938 5.484375 -12.078125 C 5.578125 -12.066406 5.675781 -12.0625 5.78125 -12.0625 C 5.882812 -12.070312 5.984375 -12.070312 6.078125 -12.0625 C 6.253906 -12.039062 6.425781 -12.03125 6.59375 -12.03125 C 6.769531 -12.03125 6.941406 -12.03125 7.109375 -12.03125 C 7.191406 -12.03125 7.269531 -12.035156 7.34375 -12.046875 C 7.414062 -12.054688 7.492188 -12.0625 7.578125 -12.0625 C 7.660156 -12.0625 7.738281 -12.0625 7.8125 -12.0625 C 7.882812 -12.070312 7.960938 -12.078125 8.046875 -12.078125 C 8.148438 -12.085938 8.253906 -12.09375 8.359375 -12.09375 C 8.460938 -12.09375 8.566406 -12.09375 8.671875 -12.09375 C 8.773438 -12.09375 8.878906 -12.085938 8.984375 -12.078125 C 9.097656 -12.066406 9.210938 -12.0625 9.328125 -12.0625 C 9.453125 -12.0625 9.570312 -12.0625 9.6875 -12.0625 C 9.800781 -12.0625 9.914062 -12.066406 10.03125 -12.078125 C 10.050781 -12.078125 10.070312 -12.078125 10.09375 -12.078125 C 10.113281 -12.078125 10.128906 -12.078125 10.140625 -12.078125 C 10.441406 -12.078125 10.742188 -12.078125 11.046875 -12.078125 C 11.359375 -12.078125 11.660156 -12.078125 11.953125 -12.078125 C 12.003906 -12.078125 12.050781 -12.078125 12.09375 -12.078125 C 12.144531 -12.078125 12.195312 -12.078125 12.25 -12.078125 C 12.332031 -12.078125 12.40625 -12.078125 12.46875 -12.078125 C 12.539062 -12.078125 12.617188 -12.078125 12.703125 -12.078125 C 12.734375 -12.078125 12.765625 -12.078125 12.796875 -12.078125 C 12.835938 -12.078125 12.875 -12.078125 12.90625 -12.078125 C 13.144531 -12.078125 13.378906 -12.078125 13.609375 -12.078125 C 13.847656 -12.078125 14.078125 -12.078125 14.296875 -12.078125 C 14.421875 -12.078125 14.535156 -12.078125 14.640625 -12.078125 C 14.742188 -12.085938 14.847656 -12.09375 14.953125 -12.09375 C 15.253906 -12.082031 15.554688 -12.078125 15.859375 -12.078125 C 16.171875 -12.085938 16.484375 -12.085938 16.796875 -12.078125 C 16.992188 -12.066406 17.195312 -12.0625 17.40625 -12.0625 C 17.613281 -12.070312 17.816406 -12.070312 18.015625 -12.0625 C 18.015625 -12.039062 18.015625 -12.023438 18.015625 -12.015625 C 18.015625 -12.003906 18.015625 -11.988281 18.015625 -11.96875 Z M 18.015625 -11.96875 "/></g></g></g></g></g></svg>